<?xml version="1.0" encoding="utf-8"?>
<!-- Generator: Adobe Illustrator 23.0.3, SVG Export Plug-In . SVG Version: 6.00 Build 0)  -->
<svg version="1.1" id="ëÎÓÈ_1" xmlns="http://www.w3.org/2000/svg" xmlns:xlink="http://www.w3.org/1999/xlink" x="0px" y="0px"
	 viewBox="0 0 1000 866.1" style="enable-background:new 0 0 1000 866.1;" xml:space="preserve">
<path d="M1001,1.1V-1h-2.4l-19.4,11.2l0,0L959.7-1h-2.7l-19.4,11.2L918.1-1h-2.7l-19.3,11.1l-0.3,0.1L876.4-1h-2.7l-19.4,11.2l0,0
	L834.7-1h-2.7l-19.4,11.2L793.1-1h-2.7l-19.3,11.1l-0.3,0.1L751.4-1h-2.7l-19.4,11.2L709.7-1h-2.7l-19.4,11.2l-0.1,0.1L668-1h-2.7
	L646,10.1l-0.3,0.1L626.4-1h-2.7l-19.4,11.2l-0.1,0.1L584.7-1h-2.7l-19.2,11.1h-0.1l-0.3,0.2L543-1h-2.7L521,10.1l-0.3,0.1L501.4-1
	h-2.7l-19.4,11.2l0,0L459.7-1h-2.7l-19.4,11.2L418.1-1h-2.7l-19.4,11.2L376.4-1h-2.7l-19.4,11.2l0,0L334.7-1h-2.7l-19.4,11.2
	L293.1-1h-2.7l-19.4,11.2L251.4-1h-2.7l-19.4,11.2L209.7-1h-2.7l-19.4,11.2L168-1h-2.7l-19.4,11.2L126.4-1h-2.7l-19.4,11.2l-0.1,0.1
	L84.7-1h-2.7L62.8,10.1h-0.1l-0.3,0.2L43-1h-2.7L21,10.1l-0.1,0L1.4-1H-1v2.1l20.4,11.8l0.1,0.1v22.1L0,46.3l-1,0.6v26.3l20.4,11.8
	l0.1,0.1v22.1L0.1,118.5l-1.1,0.4v26.4l20.4,11.8l0.1,0.1v22.2L0,190.6l-1,0.6v26.3l20.3,11.8l0.1,0.1v22.3L0,262.8l-1,0.6v26.3
	l20.3,11.8l0.1,0.1v22.1L0,335l-1,0.6V362l20.4,11.8l0.1,0.1V396L0.1,407.2l-1.1,0.4v26.4l20.4,11.8l0.1,0.1v22.2L0,479.3l-1,0.6
	v26.3l20.4,11.8l0.1,0.1v22.2L0.1,551.5l-1.1,0.4v26.4l20.4,11.8l0.1,0.1v22.2L0,623.6l-1,0.6v26.3l20.3,11.8l0.1,0.1v22.3L0,695.8
	l-1,0.6v26.3l20.3,11.8l0.1,0.1v22.1L0,768l-1,0.6V795l20.4,11.8l0.1,0.1V829L0.1,840.2l-1.1,0.4V867h2v-1.1l0.1-0.2h0.4v-23
	l19.2-11.1l19.1,11v23.2h0.6l0,1.2h2.1v-1.2l0-0.1h0.2v-22.8l19.5-11.2l0.2-0.1l0.3,0.2h0.1l19.1,11l0.2,0.1v22.2l-0.2,0.1l0.2,0.4
	v0.1h0.1l0.1,0.2v1.2h2.1v-1.2l0.6,0v-23.2l18.9-11l0.3-0.2l19.4,11.2l0,22.3l-0.1,0l0.1,0.2v0.4h0.2l0,1.3h2.1v-1.1l0.1-0.2h0.4
	v-23l19.2-11.1l19.1,11v23.3h0.6l0,1.2h2v-1.2l0.2-0.2h0.1v-0.2l0.2-0.2l-0.2-0.1v-22.3l19.3-11.2l0.1-0.1l19.4,11.2l0,22.8h0.2
	l0.1,0.1v1.2h2v-1.2l0.6,0v-23l19-11l0.1,0l19.3,11.1l0,23.1l0.2,0.5l0.8-0.3v1h2v-1.2l0.1-0.1h0.3v-22.9l19.3-11.2l19.1,11v23.3
	h0.6l0,1.2h2.1v-1.2l0.1-0.2h0.2v-0.3l0.1-0.2l-0.1-0.1v-22.3l19.5-11.3l19.4,11.2l0.1,0.1v22.2l-0.1,0.1l0.1,0.2v0.3h0.2l0.1,0.2
	v1.2h2.1v-1.2l0.6,0v-23.2l18.9-11l0.2-0.1l19.2,11.1l0,22.9l0,0.2l0.8,0.3v1h2.1v-1.2l0.1-0.1h0.3v-22.9l19.3-11.2l19.1,11v23.2
	h0.6l0,1.2h2.1v-1.1l0.5-0.7l-0.2-0.2v-22.2l19.5-11.3l19.3,11.2l0.1,0.1v22.2l-0.1,0.1l0.1,0.2v0.3h0.2l0.1,0.2v1.2h2v-1.2l0.6,0
	v-23.2l18.9-11l0.2-0.1l19.2,11.2l0,23.3h0.9v1h2v-1.1l0.1-0.2h0.4v-23l19.2-11.1l0.1,0l19.2,11.1v23.2h0.6l0,1.2h2.1v-1.2l0-0.1
	h0.3v-22.8l19.3-11.1l0.2-0.1l19.4,11.1l0.2,0.1v22.2l-0.2,0.1l0.2,0.4v0.1h0.1l0.1,0.2v1.2h2.1v-1.1l0-0.1h0.6v-23.3l18.9-11
	l0.3-0.2l19.4,11.2l0,22.9h0.2l0,1.3h2.1v-1.1l0.1-0.2h0.4v-23l19.2-11.1l0.1,0l19.2,11.1v23.3h0.6l0,1.2h2V866l0.2-0.2h0.1v-0.2
	l0.2-0.2l-0.2-0.1v-22.3l19.2-11.1l0.3-0.2l19.5,11.3l0,22.8h0.2l0,1.3h2v-1.1l0-0.1h0.6v-23l19-11l0.1,0l19.3,11.1l0,22.9h0.4
	l0.2,0.2v1.1h2v-1.2l0.1-0.1h0.3v-22.9l19.3-11.2l0.1,0l19.2,11.1v23.3h0.6l0,1.2h2.1v-1.2l0.1-0.2h0.2v-0.3l0.1-0.2l-0.1-0.1v-22.3
	l19.4-11.3l19.4,11.2l0.1,0.1v22.2l-0.1,0.1l0.1,0.2v0.3h0.2l0.1,0.2v1.2h2.1v-1.1l0-0.1h0.6v-23.2l18.9-11l0.2-0.1l19.2,11.1
	l0,23.1h0.4l0.3,0.2v1.1h2.1v-1.2l0.1-0.1h0.3v-22.9l19.3-11.2l0.1,0l19.2,11.1v23.2h0.6l0,1.2h2.1v-1.1l0.5-0.7L918,865v-22.2
	l19.5-11.3l19.3,11.2l0.1,0.1v22.2l-0.1,0.1l0.1,0.2v0.3h0.2l0.1,0.2v1.2h2v-1.1l0-0.1h0.6v-23.2l18.9-11l0.2-0.1l19.2,11.2l0,22.7
	l-0.1,0.2l0.8,0.4v1h2v-26.3l-20.5-11.8l0,0v-22.1l19.5-11.3l1-0.6v-26.3l-20.5-11.8l0,0v-22.2l19.5-11.3l1-0.6v-26.3l-20.5-11.8
	l0-22.2l19.5-11.3l1-0.6v-26.3l-20.5-11.8l0,0v-22.1l19.5-11.3l1-0.6v-26.3l-20.5-11.8l0,0v-22.2l19.5-11.3l1-0.6v-26.3l-20.4-11.8
	l0-22.2l19.5-11.3l1-0.6v-26.3l-20.5-11.8l0,0v-22.1l19.5-11.3l1-0.6v-26.3l-20.5-11.8l0,0v-22.2l19.5-11.3l1-0.6v-26.3l-20.5-11.8
	l0-22.2l19.5-11.3l1-0.6v-26.3l-20.5-11.8l0,0v-22.1l19.5-11.3l1-0.6v-26.3l-20.5-11.8l0,0V85.1l19.5-11.3l1-0.6V46.9l-20.5-11.8
	l0-22.2L1000,1.7L1001,1.1z M979.3,804.2L979.3,804.2l-19.2-11.1v-22.7l18.9-11l0.1-0.1l19.3,11.1l0,22.5L979.3,804.2z M769.5,828.9
	l-19.6,11.3L730.5,829l-0.1-0.1v-22.2l19.5-11.3l19.4,11.2l0.2,0.1V828.9z M519.5,828.9l-19.6,11.3L480.4,829l0,0v-22.2l19.5-11.2
	l19.4,11.2l0.2,0.1V828.9z M394.5,829L375,840.2L355.5,829l0,0v-22.2l19.5-11.2l19.4,11.2l0.1,0.1V829z M269.5,829L250,840.2
	L230.6,829l-0.1-0.1v-22.2l19.5-11.3l19.4,11.2l0.1,0.1V829z M1.5,793v-22.5l19.2-11.1l19.1,11V793l-19,11L1.5,793z M1.5,48.8
	l19.2-11.1l19.3,11v22.6l-19,11l-0.1,0.1L1.5,71.3V48.8z M41.4,1.8l0.3-0.1L61,12.9l0,22.3L41.8,46.3l-0.1,0L22.5,35.3V12.7
	L41.4,1.8z M83.2,1.7L83.2,1.7l19.3,11.1v22.5l-18.9,11l-0.3,0.1L64,35.2V12.9L83.2,1.7z M144.4,12.9l0.1,0.1v22.1L125,46.3
	l-19.4-11.2l-0.1-0.1V12.9L125,1.6L144.4,12.9z M185.9,12.8v22.5l-19.2,11l-19.2-11.1V12.7l19.2-11L185.9,12.8z M208.2,1.6
	L208.2,1.6l19.3,11.2v22.6l-18.9,10.9l-0.3,0.1L189,35.2V12.8L208.2,1.6z M269.4,12.9l0.1,0.1v22.1L250,46.3l-19.4-11.2l-0.1-0.1
	V12.8L250,1.6L269.4,12.9z M291.6,1.7l19.3,11.1v22.5l-19.2,11.1l-19.2-11.1V12.7L291.6,1.7z M333.3,1.6l19.2,11.1v22.5l-19.1,11
	L314,35.1l0,0V12.8L333.3,1.6z M394.4,12.9l0.1,0.1v22.1L375,46.3l-19.5-11.2l0,0V12.9L375,1.7L394.4,12.9z M416.4,1.8l0.3-0.1
	L436,12.9l0,22.3l-19.2,11.2l-0.1,0l-19.2-11.1V12.7L416.4,1.8z M458.2,1.7l19.3,11v22.5l-19.1,11l-19.3-11.1v-1H439V12.8L458.2,1.7
	z M541.4,1.8l0.2-0.1L561,12.9l0,22.3l-19.2,11.1l-0.2,0.1l-19.1-11V12.7L541.4,1.8z M583.3,1.7L583.3,1.7l19.2,11.1v22.5l-18.9,11
	l-0.3,0.1L564,35.2V12.9L583.3,1.7z M644.4,12.9l0.2,0.1v22L625,46.3l-19.4-11.2l-0.1-0.1V12.9L625,1.6L644.4,12.9z M666.7,1.7
	l19.3,11.2l0.1,0v22.3l-19.3,11.1l-19.2-11.1V12.7l19-10.9L666.7,1.7z M708.2,1.6L708.2,1.6l19.3,11.2v22.6l-18.9,10.9l-0.3,0.1
	L689,35.2V12.8L708.2,1.6z M769.4,12.9l0.2,0.1v22L750,46.3l-19.4-11.2l-0.1-0.1V12.8L750,1.6L769.4,12.9z M791.5,1.8L791.5,1.8
	l19.4,11v22.5l-19.2,11.1l-19.2-11.1V12.7L791.5,1.8z M833.3,1.6l19.2,11.1v22.5l-19.1,11L814,35.1l0,0V12.8L833.3,1.6z M894.4,12.9
	l0.2,0.1v22L875,46.3l-19.5-11.2l0,0V12.9L875,1.7L894.4,12.9z M916.4,1.8l0.3-0.1L936,12.9l0,22.3l-19.2,11.2l-0.1,0l-19.2-11.1
	V12.7L916.4,1.8z M958.2,1.7l19.3,11v22.5l-19.1,11l-19.3-11.1v-1H939V12.8L958.2,1.7z M939,756v-21.5l19.2-11.1l19.1,11V757
	l-18.8,10.9l-0.1,0.1l-19.3-11.1L939,756L939,756z M708.6,767.9l-0.2,0.1l-19.2-11.1V756H689v-21.5l19.2-11.2l0.1,0l19.2,11.1V757
	L708.6,767.9z M41.6,73.8l19.3,11.1L61,85v22.4l-19.2,11.1l-0.2,0.1l-19.1-11V84.9l18.9-11L41.6,73.8z M333.4,73.8l19.1,11v22.7
	l-19.1,10.9l-19.3-11.1l0,0V85L333.4,73.8z M458.4,73.9l0.2,0.1h0.1l18.8,10.8v22.7l-19.1,10.9l-19.2-11.1V85L458.4,73.9z
	 M833.4,73.8l19.1,11v22.7l-19.1,10.9l-19.3-11.1l0,0V85L833.4,73.8z M958.5,73.9l19,11v22.7l-18.8,10.8h-0.1l-0.2,0.1l-19.2-11.1
	V85L958.5,73.9z M916.6,768L897.5,757v-22.6l18.9-11l0.3-0.1l19.3,11.2l0,22.4L916.6,768z M772.5,756.9v-22.5l19-11l0.1,0l19.2,11.1
	v22.5L791.6,768L772.5,756.9z M625.1,768l-19.4-11.2l-0.2-0.1v-22.1l19.6-11.3l19.4,11.2l0.2,0.1v22.1L625.1,768z M272.5,756.9
	v-22.5l19-11l0.1,0l19.2,11.1v22.5L291.6,768L272.5,756.9z M186,158v21.6l-19.3,11l-19.2-11.1v-22.5l19-11l0.2-0.1l19.2,11.1v0.9
	H186z M833.4,146l19.1,11v22.6l-19.1,10.9l-19.3-11.1l0,0v-22.3L833.4,146z M416.7,695.9L416.7,695.9l-19.2-11v-22.8l18.9-11
	l0.3-0.1l19.3,11.2l0,22.4L416.7,695.9z M291.6,695.9l-19.1-11v-22.7l19-11l0.1,0l19.2,11.1v22.6L291.6,695.9z M522.5,683.6v-21.4
	l18.9-11l0.2-0.1l19.4,11.1l0,22.3l-19.2,11.1l-0.1,0.1l-19-11L522.5,683.6L522.5,683.6z M186,230.3v21.5l-19.3,11l-19.2-11.1v-22.7
	l19-11l0.2-0.1l19.2,11.1v1.2H186z M833.4,218l19.1,11v22.8l-19.1,10.9l-19.3-11.1l0,0v-22.4L833.4,218z M291.6,623.7l-19.1-11V590
	l19-11l0.1-0.1l19.2,11.1v22.5L291.6,623.7z M187.4,254.3l0.1-0.1l19.4,11.3l0.1,0.1v22.1l-19.5,11.3l-19.3-11.1l-0.2-0.1v-22.2
	L187.4,254.3z M352.5,302v22l-19,11l-0.1,0.1L314,323.8l0,0v-22.3l19.3-11.2l19.1,11v0.7H352.5z M477.5,302v22l-19,11l-0.1,0.1
	l-19.3-11.1v-22.4l19.2-11.1l19.1,11v0.6H477.5z M852.4,301.3v22.6l-18.9,11l-0.1,0.1L814,323.8l0,0v-22.3l19.3-11.2L852.4,301.3z
	 M291.6,551.5l-19.1-11v-22.6l19-11l0.1,0l19.2,11.1v22.5L291.6,551.5z M895.9,326.4l19.2,11.1v22.7l-18.9,11l-0.2,0.1l-19.4-11.3
	l0,0v-22.4L895.9,326.4L895.9,326.4z M876.5,481.9l19.3-11.2l0.1,0l19.1,11v22.7l-18.9,11l-0.3,0.1l-19.3-11.2l0,0V481.9z
	 M896.1,443.1l-0.3,0.1l-19.2-11.1l-0.2-0.1v-22.3l19.3-11.2l0.1,0l19.2,11.1v22.5L896.1,443.1z M894.4,373.8l0.2,0.1v22L875,407.2
	L855.5,396l0,0v-22.2l19.5-11.3L894.4,373.8z M855.5,445.9l19.5-11.2l19.4,11.2l0.1,0.1V468l-19.6,11.3l-19.4-11.2l0,0V445.9z
	 M853.9,398.7l0.2-0.1l19.2,11.1l0,22.4l-19.1,11.1l0,0L835,432.1v-22.5L853.9,398.7z M915.1,287.8l-18.9,11l-0.3,0.1l-0.2-0.1
	l-19.2-11.1l0-22.3l19.3-11.2l0.1,0l19.2,11.1V287.8z M894.6,323.7L875,335l-19.4-11.2l-0.1-0.1v-22.2l19.5-11.3l19.4,11.2l0.2,0.1
	V323.7z M187.4,326.5l0.1-0.1l19.4,11.2l0.1,0.1v22.2l-19.5,11.3L168.3,360l-0.2-0.1v-22.2L187.4,326.5z M291.6,479.4l-19.1-11.1
	v-22.6l19-11l0.1,0l19.2,11.1v22.6L291.6,479.4z M103.9,398.7l0.3-0.2l19.4,11.2l0,22.2h-0.2l-19.4,11.2l-0.1,0.1l-18.6-10.7
	l-0.5-0.3v-22.6L103.9,398.7z M103.8,470.8l0.2-0.1l19.4,11.2l0,22.4l-19.3,11.2l-0.1,0l-19.2-11.1v-22.6L103.8,470.8z M105.6,468.1
	l-0.2-0.1v-22.2l19.4-11.2l0.1,0l19.5,11.3l0.1,0.1v22.2L125,479.4L105.6,468.1z M104.3,371.1L104.3,371.1L85,360.1v-22.6l18.9-11
	l0.3-0.1l19.4,11.2l0,22.4L104.3,371.1z M145.7,443.2L145.7,443.2l-19.2-11.2v-22.4l19.2-11.1l19.1,11v22.6L145.7,443.2z M269.5,396
	L250,407.2L230.6,396l-0.1-0.1v-22.2l19.5-11.3l19.4,11.2l0.1,0.1V396z M227.6,396.1l-19,11l-0.3,0.1l-19.2-11.1v-22.4l19.2-11.2
	l0.1,0l19.2,11.1V396.1z M206.9,409.8L206.9,409.8l0,22.1l-19.4,11.3L168.1,432H168v-22.2l19.3-11.2l0.1-0.1L206.9,409.8z
	 M210,409.6l19-11l0.1,0l19.3,11.1l0,22.3l-19.3,11.1l-19.1-11V409.6z M230.5,445.8l19.5-11.3l19.4,11.2l0.1,0.1v22.2L250,479.3
	l-19.4-11.2l-0.1-0.1V445.8z M270.8,443.2L251.4,432v-22.2l19.3-11.2l19.1,11v22.6L270.8,443.2z M310.8,373.6v22.5l-19.2,11.1
	l-0.2-0.2h-0.2l-18.8-10.8v-22.6l19.1-11L310.8,373.6z M293,409.8l19.5-11.3l19.4,11.2l0.1,0.1V432l-19.5,11.2l-19.2-11.1L293,432
	V409.8z M314,468.1L314,468.1l0-22.3l19.3-11.2l19.1,11v22.6l-18.9,11l-0.1,0L314,468.1z M352.4,396.2l-18.9,10.9l-0.1,0L314,395.9
	l0,0v-22.2l19.3-11.2l19.1,11V396.2z M332,359.9l-19.5,11.3l-19.4-11.2l-0.1-0.1v-22.2l19.5-11.3l19.4,11.2l0.1,0.1V359.9z
	 M269.5,323.8L250,335l-19.4-11.2l-0.1-0.1v-22.2l19.5-11.3l19.4,11.2l0.1,0.1V323.8z M248.5,359.9l-19.3,11.2l-19.1-11v-22.6
	l19.1-11l19.3,11.1L248.5,359.9z M185.9,396.1l-19.3,11.1l-19.1-11v-22.6l19-11l0.2-0.1l19.2,11.1V396.1z M164.8,337.4V360
	l-19.1,11.1L126.5,360v-22.5l19.2-11.1L164.8,337.4z M144.5,396L125,407.1L105.7,396l-0.2-0.1v-22.1l19.5-11.3l19.4,11.2l0.1,0.1
	V396z M105.4,540.2v-22.1l19.6-11.3l19.4,11.2l0.1,0.1v22.2L125,551.5l-19.4-11.2L105.4,540.2z M147.5,468.3v-22.6l18.9-11l0.2-0.1
	l19.3,11.2v22.6l-19.2,10.9L147.5,468.3z M168.1,481.9l19.3-11.2l0.1-0.1l19.4,11.2l0,22.2l-19.5,11.3l-19.3-11.1l-0.2-0.1V481.9z
	 M208.3,479.3L189,468.2v-22.4l19.1-11.1h0.2l0,0l19.2,11.1v22.7l-18.9,10.8L208.3,479.3z M710,409.6l19.1-11l19.3,11.1l0,22.3
	l-19.3,11.1l-19.1-11V409.6z M790,432.2l-18.9,10.9l-0.3,0.1l-19.2-11.1l-0.2-0.1v-22.3l19.3-11.2l0.1,0l19.2,11.1V432.2z
	 M751.5,481.9l19.3-11.2l0.1,0l19.2,11.1v22.7l-19,11l-0.2,0.1l-19.4-11.3l0,0V481.9z M810.8,373.6v22.5l-19.2,11.1l-0.3-0.2h-0.1
	l-18.8-10.8v-22.6l19.1-11L810.8,373.6z M769.6,373.8v22.1L750,407.2L730.6,396l-0.1-0.1v-22.2l19.5-11.3l19.4,11.2L769.6,373.8z
	 M730.5,445.8l19.5-11.3l19.4,11.2l0.2,0.1V468L750,479.3l-19.4-11.2l-0.1-0.1V445.8z M772.5,468.3v-22.6l19-11l0.1-0.1l19.3,11.1
	v22.6l-19.2,11.1L772.5,468.3z M793,409.8l19.4-11.3l19.4,11.2l0.1,0.1V432l-19.4,11.2l-19.2-11.1L793,432V409.8z M852.4,396.2
	l-19,10.9L814,395.9l0,0v-22.2l19.3-11.2l19.1,11V396.2z M832,359.9l-19.5,11.3l-19.4-11.2l-0.1-0.1v-22.2l19.5-11.3l19.4,11.2
	l0.1,0.1V359.9z M501.5,432.1v-22.4l19.2-11.1l0.1,0l19.2,11.1v22.5l-19,11l-0.2,0.1l-19.2-11.1L501.5,432.1z M626.6,432.1l-0.1,0
	v-22.4l19.2-11.1l0.1,0l19.2,11.1v22.6l-19,11l-0.1,0.1L626.6,432.1z M585,432.2v-22.5l18.9-11l0.3-0.2l19.4,11.2l0,22.2h-0.2
	l-19.4,11.2l-0.1,0.1L585,432.2z M602.5,396.2l-18.9,10.9l-0.2,0.1l-19.5-11.2v-22.2l19.3-11.2l0.1,0l19.2,11.1V396.2z M581.9,409.9
	l0.2,0.1v22.2h-0.2l-19.2,11.1h-0.1l-0.3,0.2l-0.1,0L543,432v-22.1l19.3-11.1l0.2-0.1L581.9,409.9z M522.5,445.7l18.9-11l0.2-0.1
	l19.4,11.1l0,22.4l-19.2,11.1l-0.2,0.1l-19.1-11V445.7z M564,468.2v-22.3l19.3-11.2l0.1,0l19.2,11.1v22.5l-19,11l-0.2,0.1L564,468.2
	z M605.5,445.9l19.5-11.3l19.4,11.2l0.2,0.1V468L625,479.3l-19.4-11.2l-0.1-0.1V445.9z M647.5,445.7l19-11l0.2-0.1l19.3,11.2l0.1,0
	v22.4l-19.3,11.1l-19.2-11.1V445.7z M686,396l-19.4,11.2l-0.1-0.1l-19-11v-22.6l19-11l0.2-0.1l19.3,11.2l0.1,0V396z M561,373.7
	l0,22.3l-19.2,11.1l-0.2,0.1l-19.1-11v-22.6l18.9-11l0.2-0.1L561,373.7z M687.6,443.2L687.6,443.2L668,432h-0.1v-22.2l19.2-11.1
	l0.3-0.2l19.5,11.3l0,0v22.1L687.6,443.2z M665,360l-18.9,11l-0.3,0.1L626.5,360v-22.5l19.2-11.1l0.1,0l19.2,11.1V360z M644.7,373.8
	v22.1L625,407.1l-0.1,0l-19.3-11.1l-0.2-0.1v-22.2l19.6-11.3l19.4,11.2L644.7,373.8z M623.6,337.7l0,22.3l-19.3,11.2l-0.1,0
	L585,360.1v-22.6l18.9-11l0.2-0.1L623.6,337.7z M519.6,395.9L500,407.2L480.5,396l0,0v-22.2l19.5-11.3l0.1,0l19.3,11.1l0.2,0.1
	V395.9z M480.5,445.9l19.5-11.3l19.4,11.2l0.2,0.1v22.1L500,479.4l-19.5-11.3l0,0V445.9z M501.5,481.8l19.2-11.1l0.1,0l19.2,11.1
	v22.6l-18.9,11l-0.3,0.1l0,0l-19.3-11.1V481.8z M543,504.2V482l19.3-11.1l0.2-0.1l19.4,11.1l0.2,0.1v22.1l-19.3,11.1h-0.1l-0.3,0.2
	l-0.1,0l-19.2-11.2L543,504.2z M585,504.3v-22.6l18.9-11l0.2-0.1l19.3,11.2l0,22.4l-19.4,11.2l-0.1,0L585,504.3z M605.5,518.1
	l19.6-11.3l19.4,11.2l0.2,0.1v22.1l-19.6,11.3l-19.4-11.2l-0.2-0.1V518.1z M626.5,504.3v-22.5l19.2-11.1l0.1,0l19.2,11.1v22.7
	l-18.9,11l-0.2,0.1L626.5,504.3z M602.5,324l-18.9,11l-0.3,0.1l-19.4-11.2v-22.3l19.3-11.2l0.1,0l19.2,11.1V324z M582.1,337.7v22.2
	L562.8,371h-0.1l-0.3,0.2l-0.1,0L543,360l0,0v-22.3l19.3-11.1l0.3-0.1l19.3,11.1L582.1,337.7z M520.8,326.4l19.2,11.1V360l-18.9,11
	l-0.3,0.1L501.5,360v-22.5L520.8,326.4L520.8,326.4z M479.1,398.5l19.2,11.2l0,22.4l-19.2,11.1l0,0l-19.1-11v-22.6l18.9-11
	L479.1,398.5z M541.6,551.5l-19.1-11v-22.6l18.9-11l0.2-0.1L561,518l0,22.4l-19.2,11.1L541.6,551.5z M564,540.4v-22.3l19.3-11.2
	l0.1,0l19.2,11.1v22.6l-19,10.9l-0.2,0.1L564,540.4z M647.5,517.8l19-11l0.2-0.1l19.3,11.2l0.1,0v22.3l-19.3,11.2l-19.2-11.1V517.8z
	 M687.6,515.4L687.6,515.4l-19.4-11.1l-0.2-0.1v-22.2l19.5-11.3l19.5,11.3l0,22.2L687.6,515.4z M727.6,396.1l-19,11l-0.2,0.1
	L689.1,396v-22.3l19.2-11.2l0.1,0l19.2,11.1V396.1z M707,337.6v22.2l-19.4,11.3l-0.1,0L668.2,360l-0.2-0.1v-22.2l19.2-11.1l0.3-0.2
	l19.4,11.2L707,337.6z M686,301.5v22.4L666.7,335L647.5,324v-22.6l19-11l0.2-0.1L686,301.5L686,301.5z M644.5,323.7L624.9,335
	l-19.4-11.2l-0.2-0.1v-22.1l19.6-11.3l19.4,11.2l0.2,0.1V323.7z M541.6,290.3l19.3,11.1l0.1,0.1v22.4l-19.3,11.1l-0.2,0.1l-19-11
	v-22.7l18.9-11L541.6,290.3z M416.8,407.1l-0.2,0.1l-19.1-11v-22.6l18.9-11l0.3-0.1l19.3,11.2l0,22.3L416.8,407.1z M415,360.1
	l-19.1,11.1l-19.4-11.2l0,0v-22.4l19.3-11.2l19.2,11V360.1z M355.5,445.9l19.5-11.3l19.4,11.2l0.1,0.1v22.2L375,479.4l-19.5-11.3
	l0,0V445.9z M395.7,443.1L376.4,432v-22.2l19.3-11.2l19.1,11v22.5L395.7,443.1z M457,432l-19.5,11.2l-19.2-11.1l-0.2-0.1l0-22.2
	l19.5-11.3l19.3,11.2l0.1,0.1V432z M394.4,373.8l0.1,0.1V396L375,407.2L355.5,396l0,0v-22.2l19.5-11.3L394.4,373.8z M397.5,445.7
	l18.9-11l0.3-0.1l19.3,11.2l0,22.4l-19.2,11.2l-0.1,0l-19.2-11.1V445.7z M418.2,504.3l-0.2-0.1V482l19.5-11.3l19.3,11.2l0.1,0.1
	v22.2l-19.4,11.3L418.2,504.3z M439.1,468.2v-1H439v-21.4l19.2-11.1l19.1,11v22.6l-18.9,10.9L439.1,468.2z M477.4,396.3l-19,10.8
	L439.1,396v-22.3l19.2-11.1l19.1,11V396.3z M436,323.8L416.6,335L397.5,324v-22.6l18.9-11l0.3-0.1l19.2,11.2l0.1,0.1V323.8z
	 M354.1,398.6l19.2,11.1l0,22.4l-19.2,11.1l0,0l-19.1-11v-22.5l18.9-11L354.1,398.6z M395.8,515.4l-19.3-11.1l0,0v-22.3l19.3-11.2
	l19.1,11v22.6L395.8,515.4L395.8,515.4z M708.3,479.3L689,468.2v-22.4l19.2-11.2l0.1,0l19.2,11.1v22.7l-18.9,10.9L708.3,479.3z
	 M814,468.1L814,468.1l0-22.3l19.3-11.2l19.1,11v0.9h0.1v21.8l-19,11l-0.1,0.1L814,468.1z M810.9,301.4L810.9,301.4l0.1,22.5
	L791.8,335l0,0L772.6,324v-22.6l19.1-11L810.9,301.4z M790,360l-18.9,11l-0.3,0.1L751.5,360v-22.4l19.3-11.2l0.1,0l19.1,11.1V360z
	 M769.5,323.7L749.9,335l-19.4-11.2l-0.1-0.1v-22.2l19.5-11.3l19.4,11.2l0.2,0.1V323.7z M748.5,337.6l0,22.4l-19.3,11.2l-19.1-11
	v-22.6l19.1-11L748.5,337.6z M665,288l-18.9,11l-0.3,0.1L626.5,288v-22.7l19.2-11.1l0.1,0l19.2,11.2V288z M623.6,265.5l0,22.4
	L604.3,299l-0.1,0L585,288v-22.7l18.9-11l0.2-0.1L623.6,265.5z M540,288l-18.9,11l-0.3,0.1l-19.3-11.1v-22.6l19.2-11.1l0.1,0
	l19.2,11.2V288z M519.5,323.7L500,335l-19.5-11.2l0,0v-22.2l19.5-11.3l19.3,11.2l0.2,0.1V323.7z M479.2,326.4l19.3,11.1l0,22.4
	l-19.2,11.2l0,0l-19.1-11.1v-22.7l18.9-11L479.2,326.4z M456.9,359.9l-19.4,11.3L418.2,360l-0.2-0.1v-22.2l19.4-11.2l19.4,11.2
	l0.1,0.1V359.9z M415,288l-19.1,11l-19.4-11.2l0,0v-22.3l19.3-11.2l19.2,11.1V288z M394.4,301.6l0.1,0.1v22.1L375,335l-19.5-11.2
	l0,0v-22.2l19.5-11.3L394.4,301.6z M310.9,301.4L310.9,301.4l0.1,22.5L291.8,335l0,0L272.6,324v-22.6l19.1-11L310.9,301.4z M290,360
	l-19.1,11.1L251.7,360v-22.4l19.3-11.2l19,11V360z M104.3,299l-0.1,0.1L84.9,288v-22.7l18.9-11l0.2-0.1l19.5,11.3l0,22.4L104.3,299z
	 M83.2,290.4L83.2,290.4l19.3,11.1V324l-18.9,10.9l-0.3,0.1l-19.4-11.2v-22.3L83.2,290.4z M83.3,362.6L83.3,362.6l19.3,11.1v22.6
	l-19,10.9l-0.3,0.1L64,396.1v-22.3L83.3,362.6z M83.2,434.7L83.2,434.7l19.3,11.1v22.5l-18.9,11l-0.2,0.1l-19.4-11.2v-22.3
	L83.2,434.7z M83.2,506.9L83.2,506.9l0.3,0.1h0.2l18.8,10.8v22.6l-18.9,11l-0.2,0.1l-19.4-11.2v-22.3L83.2,506.9z M85,554l18.9-11
	l0.3-0.1l19.4,11.2l0,22.4l-19.3,11.2l-0.1,0L85,576.5V554z M126.6,504.3v-22.5l19.2-11.1l19.1,11v22.7l-19,11L126.6,504.3z
	 M230.5,518l19.5-11.3l19.4,11.2l0.1,0.1v22.2L250,551.5l-19.4-11.2l-0.1-0.1V518z M251.5,504.2L251.5,504.2l0-22.3l19.3-11.2
	l19.1,11v22.7l-19,11L251.5,504.2z M293,481.9l19.5-11.3l19.4,11.2l0.1,0.1v22.2l-19.5,11.3l-19.4-11.2l-0.1-0.1V481.9z
	 M314.1,540.3L314.1,540.3l0-0.8H314V518l19.3-11.2l19.1,11v22.7l-19,10.9L314.1,540.3z M335,481.8l18.9-11l0.2-0.1l19.3,11.2
	l0,22.4l-19.2,11.1l0,0l-19.2-11V481.8z M355.5,518.1l19.5-11.3l19.4,11.2l0.1,0.1v22.2L375,551.6l-19.5-11.2l0,0V518.1z
	 M397.5,517.8l18.9-11l0.3-0.1L436,518l0,22.3l-19.2,11.2l-0.1,0l-19.2-11.1V517.8z M418,554.2l19.5-11.3l19.3,11.2l0.1,0.1v22.2
	l-19.4,11.2l-19.3-11.1l-0.2-0.1V554.2z M439.2,540.4v-0.9H439V518l19.2-11.1l19.1,11v22.7l-18.9,10.8L439.2,540.4z M460,481.8
	l18.9-11l0.2-0.1l19.3,11.2l0,22.4l-19.2,11.1l0,0l-19.2-11V481.8z M480.5,518.1l19.5-11.3l19.4,11.2l0.2,0.1v22.1L500,551.6
	l-19.5-11.2l0,0V518.1z M501.5,576.5V554l19.2-11.1l0.1,0l19.2,11.1v22.6l-18.9,11l-0.3,0.1l0,0L501.5,576.5z M522.5,590l18.9-11
	l0.1-0.1l19.3,11.1l0,22.3l-19.2,11.1l-0.2,0.1l-19-11V590z M543,554.2l19.3-11.2l0.2-0.1l19.4,11.1l0.2,0.1v22.1l-19.3,11.1h-0.1
	l-0.3,0.2l-0.1,0l-19.2-11.1l-0.1-0.1V554.2z M585,554l18.9-11l0.3-0.1l19.4,11.2l0,22.4l-19.3,11.2l-0.1,0L585,576.5V554z
	 M605.5,590.3l19.6-11.3l19.4,11.2l0.2,0.1v22.1l-19.6,11.3l-19.4-11.2l-0.2-0.1V590.3z M626.5,576.5V554l19.2-11.1l0.1,0l19.2,11.1
	v22.6l-18.9,11l-0.3,0.1l0,0L626.5,576.5z M668.2,576.5l-0.2-0.1v-22.2l19.2-11.1l0.3-0.2l19.5,11.3l0,0v22.1l-19.5,11.3l-0.1,0.1
	l-0.3-0.2h-0.1L668.2,576.5z M730.5,518l19.5-11.3l19.4,11.2l0.2,0.1v22.1L750,551.5l-19.4-11.2l-0.1-0.1V518z M751.5,554.1
	l19.3-11.2l0.1,0l19.2,11.1v22.6l-18.9,11l-0.3,0.1l-0.2-0.1l-19.2-11.1L751.5,554.1z M791.6,551.5l-19.1-11v-22.6l19-11l0.1,0
	l19.2,11.1v22.5L791.6,551.5z M793,481.9l19.5-11.3l19.4,11.2l0.1,0.1v22.2l-19.5,11.3l-19.4-11.2l-0.1-0.1V481.9z M855.5,518.1
	l19.5-11.2l19.4,11.2l0.2,0.1v22.1L875,551.6l-19.5-11.2l0,0V518.1z M876.5,576.4L876.5,576.4l0-22.4l19.3-11.2l0.1,0l19.2,11.1
	v22.7l-18.9,11l-0.2,0.1L876.5,576.4z M916.8,551.5L916.8,551.5l-19.3-11.1v-22.6l18.9-11l0.3-0.1L936,518l0,22.3L916.8,551.5z
	 M916.8,479.3L916.8,479.3l-19.3-11.1v-22.6l18.9-11l0.3-0.1l19.3,11.2l0,22.4L916.8,479.3z M916.8,407.1l-0.2,0.1l-19.1-11v-22.6
	l18.9-11l0.3-0.1l19.3,11.2l0,22.3L916.8,407.1z M916.6,335L897.5,324v-22.6l18.9-11l0.3-0.1l19.3,11.2l0,22.4L916.6,335z
	 M916.8,262.8L916.8,262.8l-19.3-11.1v-22.7l18.9-11l0.3-0.1l19.3,11.2l0,22.4L916.8,262.8z M854.1,326.4l19.2,11.1l0,22.4
	L854.2,371l0,0L835,360v-22.6l18.9-11L854.1,326.4z M727.5,324l-18.9,11l-0.3,0.1l-19.2-11.1v-22.4l19.2-11.2l0.1,0l19.1,11V324z
	 M707,287.6l-19.4,11.3l-0.1,0.1l-19.4-11.2l-0.2-0.1v-22.2l19.2-11.1l0.3-0.2l19.5,11.3l0.1,0.1V287.6z M602.5,251.7l-18.9,11
	l-0.3,0.1l-19.4-11.2v-22.3l19.3-11.2l0.1,0l19.2,11.1V251.7z M582.1,265.5v22.1l-19.3,11.1h-0.1l-0.3,0.2l-0.1,0L543,287.7l0,0
	v-22.2l19.3-11.1l0.3-0.1l19.3,11.1L582.1,265.5z M561,251.7l-19.2,11.1l-0.1,0.1l-19-11v-22.7l18.9-11l0.2-0.1l19.3,11.1V251.7z
	 M354.2,326.4l19.3,11.1l0,22.4l-19.2,11.1l0,0l-19.1-11.1v-22.6l18.9-11L354.2,326.4z M269.5,251.7l-19.4,11.2l-19.5-11.2l-0.1-0.1
	v-22.2l19.5-11.3l19.4,11.2l0.1,0.1V251.7z M227.5,324l-18.9,11l-0.3,0.1l-19.2-11.1v-22.4l19.2-11.2l0.1,0l19.1,11V324z M186,323.9
	L166.7,335L147.5,324v-22.6l19-11l0.2-0.1l19.3,11.2l0.1,0V323.9z M145.9,254.2l19.1,11.1V288l-19.1,11L126.7,288v-22.7L145.9,254.2
	z M144.4,323.8L124.9,335l-19.3-11.2l-0.2-0.1v-22.2l19.5-11.3l19.4,11.2l0.1,0.1V323.8z M102.5,251.7l-18.9,11l-0.3,0.1l-19.4-11.2
	v-22.3l19.3-11.2l0.1,0l19.2,11.1V251.7z M63.9,612.4v-22.2l19.4-11.2l0.1-0.1l19.1,11v22.6l-18.9,10.9l-0.3,0.1L63.9,612.4z
	 M147.5,540.5v-22.6l19-11l0.2-0.1l19.2,11.1v22.5l-19.2,11.1L147.5,540.5z M168.1,554.1l19.3-11.2l0.1-0.1l19.4,11.2l0,0v22.1
	l-19.5,11.4l-0.2-0.1h-0.1l-18.9-10.9l-0.2-0.1V554.1z M208.3,551.5L189,540.3l0,0v-22.4l19.1-11.1l0.1,0l19.2,11.1v22.6l-18.8,11
	L208.3,551.5z M210,481.8l19-11l0.1,0l19.4,11.1l0,22.4l-19.3,11.2l-19.2-11V481.8z M376.5,576.4v-22.4l19.3-11.2l19.1,11v22.7
	l-19,11L376.5,576.4L376.5,576.4z M564,612.5v-22.2l19.4-11.2l0.1,0l19.2,11.1v22.6l-19,10.8l-0.3,0.1L564,612.5z M647.5,590l19-11
	l0.2-0.1l19.3,11.2l0.1,0v22.3l-19.3,11.1l-19.2-11.1V590z M708.3,551.5L689,540.3l0,0v-22.4l19.1-11.1l0.1,0l19.2,11.1v22.6
	l-18.8,11L708.3,551.5z M710,481.8l19.1-11l19.4,11.1l0,22.4l-19.3,11.2l-19.2-11V481.8z M814.1,540.3L814.1,540.3l0-0.8H814V518
	l19.3-11.2l19.1,11v22.7l-19,10.9L814.1,540.3z M835.1,481.8l18.9-11l0.2-0.1l19.2,11.2l0,22.4l-19.2,11.1l0,0l-19.2-11.1V481.8z
	 M894.5,251.6L875,262.9l-19.5-11.3l0,0v-22.2l19.5-11.3l19.4,11.2l0.1,0.1V251.6z M832,287.8l-19.5,11.2l-19.4-11.2l-0.1-0.1v-22.2
	l19.5-11.3l19.4,11.3l0.1,0.1V287.8z M791.8,218.1l19.2,11.1v22.6l-19.2,11.1l-19.1-11v-22.7L791.8,218.1L791.8,218.1z M790,288
	l-18.9,11l-0.3,0.1l-19.3-11.3l0,0v-22.3l19.3-11.2l0.1,0l19.1,11.2V288z M769.5,251.6L750,262.9l-19.4-11.2l-0.1-0.1v-22.2
	l19.5-11.3l19.4,11.2l0.1,0.1V251.6z M748.5,265.5l0,22.4L729.2,299l-19.1-11v-22.7l19-11L748.5,265.5z M685.9,229.1L685.9,229.1
	l0.1,22.6l-19.3,11.1l-19.2-11.1v-22.7l19-11l0.2-0.1L685.9,229.1z M644.5,251.6L625,262.9l-19.4-11.2l-0.2-0.1v-22.3l19.6-11.3
	l19.4,11.2L644.5,251.6z M479.2,254.2l19.3,11.2l0,22.4l-19.2,11.2l0,0l-19.1-11.1v-22.8l18.9-11L479.2,254.2z M456.9,287.9
	l-19.4,11.1l-19.3-11.2l-0.2-0.1v-22.1l19.4-11.3l19.4,11.2l0.1,0.1V287.9z M416.6,218.1l19.3,11.2l0,0.7h0.1v21.7l-19.3,11.2
	l-0.1,0l-19.2-11.1v-22.7l18.9-11L416.6,218.1z M394.4,229.4l0.1,0.1v22.2l-19.4,11.2l-19.5-11.3l0,0v-22.2l19.5-11.3L394.4,229.4z
	 M332,287.8l-19.5,11.2l-19.4-11.2l-0.1-0.1v-22.2l19.5-11.3l19.4,11.3l0.1,0.1V287.8z M291.8,218.1l19.2,11.1v22.6l-19.2,11.1
	l-19.1-11v-22.7L291.8,218.1L291.8,218.1z M290,288l-19.1,11l-19.4-11.2l0,0v-22.3l19.3-11.2l19.2,11.1V288z M248.5,265.5l0,22.4
	L229.2,299l-19.1-11v-22.7l19-11L248.5,265.5z M105.5,590.3l19.6-11.3l19.4,11.2l0.1,0.1v22.2l-19.5,11.3l-19.3-11.2l-0.3-0.2V590.3
	z M126.6,576.5V554l19.2-11.1l19.1,11v22.6l-19.1,11.1L126.6,576.5z M230.5,590.2L250,579l19.4,11.2l0.1,0.1v22.2L250,623.7
	l-19.4-11.2l-0.1-0.1V590.2z M251.5,576.4L251.5,576.4l0-22.4l19.3-11.2l19.1,11v22.6l-19.1,11.1L251.5,576.4z M293,554.1l19.5-11.3
	l19.4,11.2l0.1,0.1v22.2l-19.5,11.2l-19.4-11.2l-0.1-0.1V554.1z M314,590.2l19.3-11.2l19.1,11v22.6l-18.9,10.9l-0.1,0L314,612.4l0,0
	V590.2z M335,554l18.9-11l0.2-0.1l19.2,11.1l0,22.5l-19.2,11.1l-0.1,0.1l-19-11V554z M355.5,590.3l19.5-11.2l19.4,11.2l0.1,0.1v22.2
	L375,623.8l-19.5-11.2l0,0V590.3z M397.5,590l18.9-11l0.2-0.1l19.3,11.2l0,22.3l-19.2,11.2l-0.1,0l-19.2-11.1V590z M439,590.2
	l19.2-11.1l19.1,11v22.6l-18.9,10.8L439,612.4l0,0V590.2z M460,554l18.9-11l0.2-0.1l19.2,11.2l0,22.5l-19.2,11.2l0,0L460,576.6V554z
	 M480.5,590.3l19.5-11.2l19.4,11.2l0.2,0.1v22.1L500,623.8l-19.5-11.2l0,0V590.3z M730.5,590.2L750,579l19.4,11.2l0.2,0.1v22.1
	L750,623.7l-19.4-11.2l-0.1-0.1V590.2z M791.6,623.7l-19.1-11V590l19-11l0.1-0.1l19.2,11.1v22.5L791.6,623.7z M793,554.1l19.5-11.3
	l19.4,11.2l0.1,0.1v22.2l-19.5,11.2l-19.4-11.2l-0.1-0.1V554.1z M855.5,590.3l19.5-11.2l19.4,11.2l0.2,0.1v22.1L875,623.8
	l-19.5-11.2l0,0V590.3z M916.7,623.7l-19.2-11.1V590l18.9-11l0.2-0.1l19.3,11.2l0,22.3L916.7,623.7L916.7,623.7z M915,215.7
	l-18.9,11l-0.3,0.1l-19.3-11.3l0,0v-22.3l19.3-11.2l0.1,0l19.1,11.1V215.7z M854.2,254.2l19.3,11.1l0,22.4l-19.2,11.1l0,0
	l-19.2-11.1v-22.5l18.9-11L854.2,254.2z M727.5,251.8l-18.9,10.9l-0.3,0.1l-19.2-11.1v-22.5l19.1-11.1l0.1,0l19.2,11.1V251.8z
	 M707,215.5l-19.4,11.2l-0.1,0.1l-19.4-11.2l-0.2-0.1v-22.2l19.2-11.1l0.3-0.2l19.5,11.3l0.1,0.1V215.5z M665,215.9l-18.9,11
	l-0.3,0.1l-19.3-11.1v-22.7l19.2-11.1l0.1,0l19.2,11.2V215.9z M623.6,193.3l0,22.3l-19.3,11.2l-0.1,0L585,215.8v-22.7l18.9-11
	l0.2-0.1L623.6,193.3z M540,215.7l-18.9,11l-0.3,0.1l-19.3-11.1v-22.6l19.2-11.1l0.1,0l19.2,11.2V215.7z M519.3,229.4l0.2,0.1v22.2
	l-19.4,11.2l-19.6-11.3l0,0v-22.2l19.5-11.3L519.3,229.4z M477.5,251.8l-19.1,10.9l-19.2-11.1v-22.4l19.2-11.1l19.1,11V251.8z
	 M415,215.7l-19.1,11l-19.4-11.2l0,0v-22.3l19.3-11.1l19.2,11V215.7z M354.2,254.2l19.3,11.1l0,22.4l-19.2,11.1l0,0l-19.1-11.1
	v-22.5l18.9-11L354.2,254.2z M352.5,251.8l-19.1,10.9l-19.3-11.1l0,0v-22.4l19.3-11.2l19.1,11V251.8z M227.5,251.8l-18.9,10.9
	l-0.3,0.1l-19.2-11.1v-22.5l19.1-11.1l0.1,0l19.2,11.1V251.8z M207,215.5l-19.5,11.2l-19.3-11.1l-0.2-0.1v-22.2l19.3-11.2l0.1-0.1
	l19.4,11.3l0.1,0.1V215.5z M165,215.8l-19.1,11l-19.2-11.1v-22.7l19.2-11.1l19.1,11.1V215.8z M125.1,262.9l-19.4-11.2l-0.2-0.1
	v-22.3l19.6-11.3l19.4,11.2l0,22.5L125.1,262.9z M123.6,215.6l-19.3,11.2l-0.1,0L85,215.8v-22.7l18.9-11l0.2-0.1l19.5,11.2
	L123.6,215.6z M62.7,254.4h0.1l19.1,11l0.2,0.1v22.1l-19.3,11.1h-0.1l-0.3,0.2l-0.1-0.1h-0.1L43,287.7l0,0v-22.2l19.5-11.3
	L62.7,254.4z M62.7,326.6h0.1l19.1,11l0.2,0.1v22.2L62.8,371h-0.1l-0.3,0.2l-0.1-0.1h-0.1L43,360l0,0v-22.3l19.5-11.3L62.7,326.6z
	 M62.3,398.7l0.2-0.1l0.3,0.2h0.1l19.1,11l0.2,0.1V432h-1.6l0.8,0.5l-18.6,10.7h-0.1l-0.3,0.2l-0.1-0.1h-0.1L43,432v-22.1
	L62.3,398.7z M62.3,470.8l0.2-0.1l19.4,11.1l0.2,0.1v22.1l-19.3,11.1h-0.1l-0.3,0.2l-0.1-0.1h-0.1L43,504.2l0,0V482L62.3,470.8z
	 M62.5,542.9L81.9,554l0.2,0.1v22.1l-19.3,11.1h-0.1l-0.3,0.2l-0.1-0.1h-0.1L43,576.3l0,0v-22.1L62.5,542.9z M62.7,615.3h0.1
	l19.1,11l0.2,0.1v22.1l-19.3,11.1h-0.1l-0.3,0.2l-0.1-0.1h-0.1L43,648.6l0-22.3l19.5-11.2L62.7,615.3z M85,626l18.9-11l0.2-0.1
	l19.4,11.2l0,22.3l-19.3,11.2l-0.1,0L85,648.7V626z M147.5,612.6V590l19-11l0.2-0.1l19.2,11.1v22.5l-19.2,11L147.5,612.6z
	 M168.1,626.2l19.3-11.2l0.1-0.1l19.4,11.2l0,0v22.2l-19.5,11.3l-19.3-11.1l-0.2-0.1V626.2z M208.3,623.6L189,612.4l0,0v-22.3
	l19.1-11.1l0.1,0l19.2,11.1v22.6l-18.8,10.9L208.3,623.6z M210,554l19.1-11.1l19.3,11.1l0,22.5l-19.3,11.1L210,576.6V554z
	 M418,626.2l19.5-11.3l19.3,11.2l0.1,0.1v22.2l-19.4,11.3l-19.3-11.2l-0.2-0.1V626.2z M501.5,626.1l19.2-11.1l0.1,0L540,626v22.6
	l-18.9,11l-0.2,0.1l-0.3,0l-19.1-11V626.1z M543,626.3l19.3-11.1l0.2-0.1l19.4,11.1l0.2,0.1v22.1l-19.3,11.1h-0.1l-0.3,0.2l-0.1,0
	l-19.2-11.2L543,626.3z M585,626l18.9-11l0.2-0.1l19.4,11.2l0,22.3l-19.3,11.2l-0.1,0L585,648.7V626z M605.5,662.4l19.6-11.3
	l19.4,11.2l0.2,0.1v22.2l-19.5,11.3l-0.1,0l-19.5-11.2l-0.2-0.1V662.4z M626.5,648.6v-22.5l19.2-11.1l0.1,0L665,626v22.7l-18.9,11
	l-0.2,0.1L626.5,648.6z M668.2,648.6l-0.2-0.1v-22.2l19.2-11.1l0.3-0.2l19.5,11.3l0,0v22.2l-19.5,11.3l-0.1,0L668.2,648.6z
	 M708.3,623.6L689,612.4l0,0v-22.3l19.1-11.1l0.1,0l19.2,11.1v22.6l-18.8,10.9L708.3,623.6z M710,554l19-11l0.1,0l19.3,11.1l0,22.5
	l-19.3,11.1L710,576.6V554z M751.5,648.5l0-22.4l19.2-11.1l0.1,0L790,626v22.6l-18.9,11l-0.3,0.1l0,0L751.5,648.5z M814,612.4
	L814,612.4l0-22.2l19.3-11.2l19.1,11v22.6l-19,10.9L814,612.4z M835,554l18.9-11l0.2-0.1l19.2,11.1l0,22.5l-19.2,11.1l-0.1,0.1
	l-19-11V554z M876.5,648.5L876.5,648.5l0-22.3l19.4-11.2l0.1,0l19.2,11.1v22.6l-19,11l-0.2,0.1L876.5,648.5z M918.2,576.4l-0.2-0.1
	v-22.1l19.5-11.3l19.3,11.2l0.1,0.1v22.2l-19.4,11.2L918.2,576.4z M918.2,504.3l-0.2-0.1V482l19.5-11.3l19.3,11.2l0.1,0.1v22.2
	l-19.4,11.3L918.2,504.3z M918.3,432.1L918,432v-22.2l19.5-11.3l19.3,11.2l0.1,0.1V432l-19.4,11.2L918.3,432.1z M918.2,360l-0.2-0.1
	v-22.2l19.5-11.3l19.3,11.2l0.1,0.1v22.2l-19.4,11.3L918.2,360z M918.2,287.8l-0.2-0.1v-22.1l19.5-11.3l19.3,11.2l0.1,0.1v22.3
	l-19.4,11.2L918.2,287.8z M918.2,215.6l-0.2-0.1v-22.2l19.5-11.3l19.3,11.2l0.1,0.1v22.2l-19.4,11.3L918.2,215.6z M936,157.2l0,22.3
	l-19.2,11.2l-19.3-11.1v-22.5l18.9-11l0.3-0.1L936,157.2z M894.5,179.4l-19.6,11.3l-19.5-11.2l0,0v-22.2l19.5-11.3l19.4,11.2
	l0.2,0.1V179.4z M832,215.6l-19.5,11.2l-19.4-11.2l-0.1-0.1v-22.2l19.5-11.3l19.4,11.3l0.1,0.1V215.6z M811,157.1v22.5l-19.2,11.1
	l-19.1-11v-22.6l19-11l0.1,0L811,157.1z M790,215.7l-18.9,11l-0.3,0.1l-19.3-11.3l0,0v-22.4l19.2-11.1l0.1,0l19.2,11.2V215.7z
	 M769.5,179.4l-19.6,11.3l-19.4-11.2l-0.1-0.1v-22.2l19.5-11.3l19.4,11.2l0.2,0.1V179.4z M748.5,193.3l0,22.3l-19.3,11.2l-19.1-11
	v-22.7l19-11L748.5,193.3z M686,157.2v22.3l-19.3,11.1l-19.2-11.1v-22.5l19-11l0.2-0.1L686,157.2L686,157.2z M644.5,179.4
	l-19.6,11.3l-19.4-11.2l-0.2-0.1v-22.1l19.6-11.3l19.4,11.2l0.2,0.1V179.4z M583.2,146.1L583.2,146.1l19.3,11.1v22.5l-18.9,10.9
	l-0.3,0.1l-19.4-11.2v-22.2L583.2,146.1z M582.1,193.4v22.1l-19.3,11.1h-0.1l-0.3,0.2l-0.1,0L543,215.6l0-22.3l19.3-11.1l0.2-0.1
	l19.4,11.1L582.1,193.4z M561,179.5l-19.2,11.1l-0.2,0.1l-19.1-11v-22.6l18.9-11l0.1-0.1l19.3,11.1l0,0.8h0.1V179.5z M479.2,182
	l19.3,11.2l0,22.3l-19.2,11.1l0,0l-19.1-11.1v-22.6l18.9-11L479.2,182z M456.9,215.6l-19.4,11.2l-19.3-11.2l-0.2-0.1v-22.2
	l19.4-11.2l19.4,11.2l0.1,0.1V215.6z M436,179.5l-19.2,11.2l-0.1,0l-19.2-11.1v-22.6l18.9-11l0.3-0.1l19.3,11.2L436,179.5z
	 M394.5,179.5L375,190.7l-19.5-11.2l0,0v-22.2l19.5-11.3l19.4,11.2l0.1,0.1V179.5z M332,215.6l-19.5,11.2l-19.4-11.2l-0.1-0.1v-22.2
	l19.5-11.3l19.4,11.3l0.1,0.1V215.6z M311,157.1v22.5l-19.2,11.1l-19.1-11v-22.6l19.1-11L311,157.1z M290,215.7l-19.1,11l-19.4-11.2
	l0,0v-22.4l19.2-11.1l19.3,11.1V215.7z M269.5,179.5L250,190.7l-19.4-11.2l-0.1-0.1v-22.2L250,146l19.4,11.2l0.1,0.1V179.5z
	 M248.5,193.3l0,22.3l-19.3,11.2l-19.1-11v-22.7l19-11L248.5,193.3z M83.3,146.1L83.3,146.1l19.2,11v22.6l-18.9,10.9l-0.3,0.1
	l-19.4-11.2v-22.2L83.3,146.1z M82.1,193.4v22.1l-19.3,11.1h-0.1l-0.3,0.2l-0.1-0.1h-0.1L43,215.6l0-22.3l19.3-11.1l0.2-0.1
	l19.4,11.1L82.1,193.4z M64,684.7v-22.3l19.3-11.2l0.1,0l19.2,11.1v22.7l-19,10.8l-0.2,0.1L64,684.7z M126.6,648.6v-22.5l19.2-11.1
	l19.1,11v22.7l-19,11L126.6,648.6z M270.8,659.6L270.8,659.6l-19.3-11.1l0,0v-22.4l19.2-11.1l19.1,11v22.6L270.8,659.6z M293,626.2
	l19.5-11.3l19.4,11.2l0.1,0.1v22.2l-19.5,11.3l-19.4-11.2l-0.1-0.1V626.2z M335,626l18.9-11l0.2-0.1l19.2,11.1l0,22.3l-19.2,11.1
	l0,0L335,648.6V626z M355.5,662.4l19.5-11.3l19.4,11.2l0.1,0.1v22.3l-19.3,11.2l-19.6-11.3l0,0V662.4z M376.5,648.5L376.5,648.5
	l0-22.3l19.3-11.2l19.1,11v22.6l-19,11L376.5,648.5z M460,626l18.9-11l0.2-0.1l19.2,11.2l0,22.3l-19.2,11.1l0,0l-19.1-11V626z
	 M480.5,662.4l19.5-11.3l19.3,11.2l0.2,0.1v22.2l-19.4,11.2l-19.6-11.3l0,0V662.4z M564,684.7v-22.3l19.3-11.2l0.1,0l19.2,11.1v22.7
	l-19,10.8l-0.2,0.1L564,684.7z M647.5,662.2l19-11l0.2-0.1l19.3,11.2l0.1,0v22.4l-19.3,11.1l-19.2-11.1V662.2z M730.5,662.3
	l19.5-11.3l19.4,11.2l0.2,0.1v22.2l-19.5,11.3l-19.5-11.2l-0.1-0.1V662.3z M791.6,695.9l-19.1-11v-22.7l19-11l0.1,0l19.2,11.1v22.6
	L791.6,695.9z M793,626.2l19.5-11.3l19.4,11.2l0.1,0.1v22.2l-19.5,11.3l-19.4-11.2l-0.1-0.1V626.2z M855.5,662.4l19.5-11.2
	l19.4,11.2l0.2,0.1v22.2l-19.4,11.2l-19.6-11.3l0,0V662.4z M916.7,695.9l-19.2-11.1v-22.7l18.9-11l0.3-0.1l19.3,11.2l0,22.4
	L916.7,695.9L916.7,695.9z M918,626.2l19.5-11.3l19.3,11.2l0.1,0.1v22.2l-19.4,11.3l-19.3-11.2l-0.2-0.1V626.2z M854.2,182
	l19.3,11.1l0,22.3l-19.2,11.1l0,0l-19.2-11.1v-22.5l18.9-11L854.2,182z M727.5,179.6l-18.9,10.9l-0.3,0.1L689,179.4l0,0v-22.3
	l19.1-11.1l0.1,0l19.3,11.1V179.6z M500.1,146l19.3,11.1l0.2,0.1v22.1L500,190.7l-19.5-11.2l0,0v-22.2L500.1,146L500.1,146z
	 M477.5,179.6l-19.1,10.9l-19.2-11.1v-22.3l19.2-11.1l19.1,11V179.6z M354.2,182l19.3,11.1l0,22.3l-19.2,11.1l0,0l-19.1-11.1v-22.5
	l18.9-11L354.2,182z M352.5,179.6l-19.1,10.9l-19.3-11.1l0,0v-22.3l19.3-11.1l19.1,11V179.6z M227.5,179.6l-18.9,10.9l-0.3,0.1
	L189,179.4l0,0v-22.3l19.1-11.1l0.1,0l19.3,11.1V179.6z M125,190.7l-19.3-11.2l-0.2-0.1v-22.2l19.6-11.3l19.4,11.2l0,22.3L125,190.7
	z M105.7,684.7l-0.2-0.1v-22.2l19.6-11.3l19.4,11.2l0.1,0.1v22.3l-19.4,11.2l-0.1,0L105.7,684.7z M147.5,684.8v-22.6l19-11l0.2-0.1
	l19.2,11.1v22.6l-19.2,11L147.5,684.8z M208.3,695.8l-19.2-11.1V684H189v-21.8l19.1-11.1l0.1,0l19.2,11.1v22.7l-18.8,10.9
	L208.3,695.8z M210,626l19-11l0.1-0.1l19.3,11.1l0,22.3l-19.3,11.2l-19.1-11V626z M230.6,684.6l-0.1-0.1v-22.2l19.5-11.3l19.4,11.2
	l0.1,0.1v22.3l-19.4,11.2L230.6,684.6z M314.1,684.6L314.1,684.6l0-0.9H314v-21.4l19.3-11.2l19.1,11v22.7l-19,10.9L314.1,684.6z
	 M439.2,684.7v-1H439v-21.4l19.2-11.1l19.1,11v22.7l-18.8,10.8l-0.1,0.1L439.2,684.7z M708.3,695.8l-19.2-11.1V684H689v-21.8
	l19.1-11.1l0.1,0l19.2,11.1v22.7l-18.8,10.9L708.3,695.8z M710,626l19-11l0.1-0.1l19.3,11.1l0,22.3l-19.3,11.2l-19.1-11V626z
	 M814.1,684.6L814.1,684.6l0-0.9H814v-21.4l19.3-11.2l19.1,11v22.7l-19,10.9L814.1,684.6z M835,626l18.9-11l0.2-0.1l19.2,11.1
	l0,22.3l-19.2,11.1l0,0L835,648.6V626z M956.9,143.4l-19.4,11.2l-19.3-11.2l-0.2-0.1v-22.1l19.5-11.3l19.3,11.2l0.1,0.1V143.4z
	 M915,143.6l-18.9,11l-0.3,0.1l-19.3-11.3l0,0v-22.4l19.3-11.2l0.1,0l19.1,11.1V143.6z M832,143.4l-19.5,11.2l-19.4-11.2l-0.1-0.1
	v-22.1l19.5-11.3l19.4,11.2l0.1,0.1V143.4z M790,143.5l-18.9,11l-0.3,0.1l-19.3-11.2l0,0v-22.4l19.3-11.2l0.1,0l19.1,11.1V143.5z
	 M748.5,121.1l0,22.4l-19.3,11.2l-19.1-11V121l19.1-11.1L748.5,121.1z M707,143.2l-19.4,11.3l-0.1,0.1l-19.4-11.2l-0.2-0.1v-22.1
	l19.2-11.1l0.3-0.2l19.5,11.2l0.1,0.1V143.2z M665,143.5l-18.9,11l-0.3,0.1l-19.3-11.1V121l19.2-11.1l0.1,0L665,121V143.5z
	 M623.6,121.1l0,22.3l-19.3,11.2l-0.1,0L585,143.6V121l18.9-11l0.2-0.1L623.6,121.1z M602.5,107.5l-18.9,11l-0.3,0.1l-19.4-11.2
	V85.1l19.3-11.2l0.1,0l0.2,0.1h0.2l18.8,10.8V107.5z M540,143.5l-18.9,11l-0.3,0.1l-19.3-11.1V121l19.2-11.1l0.1,0L540,121V143.5z
	 M498.5,143.6l-19.2,11.2l0,0l-19.1-11.1V121l18.9-11l0.1-0.1l19.3,11.2L498.5,143.6z M456.9,143.5l-19.4,11.1l-19.3-11.2l-0.2-0.1
	v-22.1l19.4-11.2l19.4,11.2l0.1,0.1V143.5z M415,143.6l-19.1,11.1l-19.4-11.2l0,0v-22.4l19.3-11.2l19.2,11V143.6z M332,143.4
	l-19.5,11.2l-19.4-11.2l-0.1-0.1v-22.1l19.5-11.3l19.4,11.2l0.1,0.1V143.4z M290,143.5l-19.1,11.1l-19.4-11.1l0,0v-22.4l19.3-11.2
	l19.2,11V143.5z M248.5,143.5l-19.3,11.2l-19.1-11V121l19.1-11.1l19.3,11.1L248.5,143.5z M207,143.2l-19.5,11.3l-19.3-11.1l-0.2-0.1
	v-22.1l19.3-11.2l0.1-0.1l19.4,11.2l0.1,0.1V143.2z M165,143.5l-19.1,11.1l-19.2-11.1V121l19.2-11.1l19.1,11V143.5z M123.6,121.1
	l0,22.3l-19.3,11.2l-0.1,0L85,143.6V121l18.9-11l0.2-0.1L123.6,121.1z M102.5,107.5l-18.9,11l-0.3,0.1l-19.4-11.2V85.1l19.3-11.2
	l0.1,0l0.2,0.1h0.2l18.8,10.8V107.5z M41.4,146.1l0.3-0.1L61,157.1l0,22.3l-19.2,11.1l-0.2,0.1l-19.1-11v-22.5L41.4,146.1z
	 M41.5,218.3l0.2-0.1L61,229.3l0,22.3l-19.2,11.1l-0.1,0.1l-19-11v-22.7L41.5,218.3z M41.4,290.4l0.2-0.1L61,301.5l0,22.4
	l-19.3,11.1l-0.2,0.1l-19-11v-22.7L41.4,290.4z M41.4,362.6l0.2-0.1L61,373.7l0,22.3l-19.2,11.1l-0.2,0.1l-19.1-11v-22.6L41.4,362.6
	z M22.5,445.7l19-10.9l0.2-0.1L61,445.9l0,22.3l-19.2,11.1l-0.2,0.1l-19.1-11V445.7z M41.4,506.9l0.2-0.1L61,518l0,22.4l-19.2,11.1
	l-0.2,0.1l-19.1-11v-22.6L41.4,506.9z M41.4,579.1l0.3-0.1L61,590.1l0,22.3l-19.2,11.1l-0.2,0.1l-19.1-11V590L41.4,579.1z
	 M41.5,651.3l0.2-0.1L61,662.3l0,22.3l-19.2,11.1l-0.1,0.1l-19-11v-22.7L41.5,651.3z M41.4,723.4l0.2-0.1L61,734.5l0,22.4
	l-19.3,11.1l-0.2,0.1l-19-11v-22.7L41.4,723.4z M43,698.5l19.3-11.1l0.2-0.1l0.3,0.2h0.1l19.1,11l0.2,0.1v22.1l-19.3,11.1h-0.1
	l-0.3,0.2l-0.1-0.1h-0.1l-19.2-11.2l-0.1-0.1V698.5z M85,698.2l18.9-11l0.3-0.2l19.4,11.2l0,22.4l-19.4,11.2l-0.1,0.1L85,720.8
	V698.2z M126.6,698.3l19.2-11.1l19.1,11V721l-19,11l-19.3-11.1V698.3z M168.1,698.4l19.3-11.2l0.1-0.1l19.4,11.2l0,0v22.1
	l-19.5,11.4l-19.3-11.1l-0.2-0.1V698.4z M251.5,720.7v-22.3l19.3-11.2l19.1,11v22.6l-19,11l-0.1,0L251.5,720.7L251.5,720.7z
	 M293,698.4l19.5-11.3l19.4,11.2l0.1,0.1v22.2l-19.5,11.3l-19.4-11.2l-0.1-0.1V698.4z M335,698.2l18.9-11l0.2-0.1l19.2,11.1l0,22.4
	l-19.2,11.1l0,0L335,720.8V698.2z M376.5,720.7v-22.3l19.3-11.2l19.1,11v22.6l-19,11l-0.1,0L376.5,720.7L376.5,720.7z M397.5,734.3
	l18.9-11l0.3-0.1l19.3,11.2l0,22.4L416.6,768L397.5,757V734.3z M418,698.5l19.5-11.3l19.3,11.2l0.1,0.1v22.3l-19.4,11.2l-19.3-11.2
	l-0.2-0.1V698.5z M460,698.2l18.9-11l0.2-0.1l19.2,11.2l0,22.4L479.2,732l0,0L460,720.9V698.2z M501.5,698.3l19.2-11.1l0.1,0
	l19.2,11.1v22.6l-18.9,11l-0.3,0.1l0,0l-19.3-11.1V698.3z M522.5,734.3l18.9-11l0.2-0.1l19.4,11.1l0,22.4l-19.3,11.1l-0.2,0.1
	l-19-11V734.3z M543,720.7v-22.2l19.3-11.1l0.2-0.1l19.4,11.1l0.2,0.1v22.1l-19.3,11.1h-0.1l-0.3,0.2l-0.1,0l-19.2-11.2L543,720.7z
	 M585,698.2l19.2-11.1l19.4,11.2l0,22.4l-19.3,11.2l-0.1,0L585,720.8V698.2z M626.5,720.8v-22.5l19.2-11.1l0.1,0l19.2,11.1V721
	l-18.9,11l-0.2,0.1L626.5,720.8z M668.2,720.8l-0.2-0.1v-22.2l19.5-11.3l19.5,11.3l0,0v22.1l-19.5,11.4l-0.1,0L668.2,720.8z
	 M751.5,698.4l19.3-11.2l0.1,0l19.2,11.1v22.6l-18.9,11l-0.3,0.1l-0.2-0.1l-19.2-11.1L751.5,698.4z M793,698.4l19.5-11.3l19.4,11.2
	l0.1,0.1v22.2l-19.5,11.3l-19.4-11.2l-0.1-0.1V698.4z M855.5,734.6l19.5-11.2l19.4,11.2l0.2,0.1v22L875,768l-19.5-11.2l0,0V734.6z
	 M876.5,720.7l0-22.3l19.3-11.2l0.1,0l19.2,11.1v22.6l-18.9,11l-0.3,0.1l-0.2-0.1L876.5,720.7z M958.5,695.7L958.5,695.7l-19.3-11
	v-22.4l19.2-11.1l19.1,11v22.7L958.5,695.7z M958.5,623.5L958.5,623.5l-19.3-11v-22.3l19.2-11.1l19.1,11v22.6L958.5,623.5z
	 M958.7,551.3h-0.1l-0.2,0.1l-19.2-11.1V518l19.2-11.1l19.1,11v22.7L958.7,551.3z M958.5,479.2L958.5,479.2l-19.4-11v-22.4
	l19.2-11.1l19.1,11v22.6L958.5,479.2z M977.4,396.3l-18.9,10.8l-0.1,0L939.1,396v-22.3l19.2-11.1l19.1,11V396.3z M958.5,334.9
	l-0.1,0.1l-19.3-11.1v-22.4l19.2-11.1l19.1,11V324L958.5,334.9z M958.4,262.8l-19.2-11.1v-22.4l19.2-11.1l19.1,11v22.7L958.4,262.8z
	 M958.4,190.6l-19.2-11.1v-22.3l19.2-11.1l19.1,11v22.6L958.4,190.6z M916.7,73.8L936,85l0,22.3l-19.2,11.2l-0.1,0l-19.2-11.1V84.9
	l18.9-11L916.7,73.8z M894.3,85.1l0.2,0.1v22l-19.6,11.3l-19.5-11.2l0,0V85.1l19.5-11.3L894.3,85.1z M854.2,109.9l19.3,11.1l0,22.4
	l-19.2,11.1l0,0l-19.2-11.1V121l18.9-11L854.2,109.9z M810.8,84.9v0.6h0.2v21.9l-19.2,11.1l-19.1-11V84.8l18.9-11L810.8,84.9z
	 M769.3,85l0.2,0.1v22.1l-19.6,11.3l-19.4-11.2l-0.1-0.1V85l19.5-11.3L769.3,85z M727.5,107.5l-18.9,11l-0.3,0.1L689,107.3l0,0V84.9
	l19.2-11l0.1,0l0.2,0.1h0.2l18.8,10.8V107.5z M685.9,84.9L685.9,84.9l0.1,22.4l-19.3,11.2l-19.2-11.1V84.9l19-11l0.2-0.1L685.9,84.9
	z M644.3,85l0.2,0.1v22.1l-19.6,11.3l-19.4-11.2l-0.2-0.1V85.1l19.6-11.3L644.3,85z M562.5,109.9l19.4,11.1l0.2,0.1v22.1l-19.3,11.1
	h-0.1l-0.3,0.2l-0.1,0L543,143.4l0,0v-22.2l19.3-11.2L562.5,109.9z M561,107.3l-19.2,11.1l-0.2,0.1l-19.1-11V84.9l18.9-11l0.2-0.1
	l19.3,11.1L561,85V107.3z M519.4,85.1l0.2,0.1v22L500,118.5l-19.5-11.2l0,0V85.1L500,73.9L519.4,85.1z M416.7,73.8L436,85l0,22.3
	l-19.2,11.2l-0.1,0l-19.2-11.1V84.9l18.9-11L416.7,73.8z M394.4,85.1l0.1,0.1v22.1L375,118.5l-19.5-11.2l0,0V85.1L375,73.9
	L394.4,85.1z M354.2,109.9l19.3,11.1l0,22.4l-19.2,11.1l0,0l-19.1-11.1V121l18.9-11L354.2,109.9z M310.8,84.9v0.6h0.2v21.9
	l-19.2,11.1l-19.1-11V84.8l18.8-11l0.1,0L310.8,84.9z M269.4,85l0.1,0.1v22.2L250,118.5l-19.4-11.2l-0.1-0.1V85L250,73.8L269.4,85z
	 M227.5,107.5l-18.9,11l-0.3,0.1L189,107.3l0,0V84.9l19.2-11l0.1,0l0.2,0.1h0.2l18.8,10.8V107.5z M186,107.4l-19.3,11.1l-19.2-11.1
	V84.9l19-11l0.2-0.1l19.3,11.2l0.1,0V107.4z M144.5,107.3L125,118.5l-19.4-11.2l-0.2-0.1V85.1L125,73.8L144.4,85l0.1,0.1V107.3z
	 M62.5,109.9l19.4,11.1l0.2,0.1v22.1l-19.3,11.1h-0.1l-0.3,0.2l-0.1-0.1h-0.1L43,143.4l0,0v-22.2L62.3,110L62.5,109.9z M83.3,768
	L64,756.9v-22.3l19.3-11.2l0.1,0l19.2,11.1V757l-19,10.9L83.3,768z M105.6,756.8l-0.1-0.1v-22.2l19.5-11.3l19.4,11.2l0.1,0.1v22.2
	L125,768L105.6,756.8z M147.5,757v-22.6l19-11l0.2-0.1l19.2,11.1v22.5L166.7,768L147.5,757z M208.6,767.9l-0.2,0.1l-19.2-11.1V756
	H189v-21.5l19.2-11.2l0.1,0l19.2,11.1V757L208.6,767.9z M210,698.2l19.1-11l19.3,11.1l0,22.4l-19.3,11.2l-19.1-11V698.2z
	 M230.6,756.8l-0.1-0.1v-22.2l19.5-11.3l19.4,11.2l0.1,0.1v22.2L250,768L230.6,756.8z M314,756.8L314,756.8l0-22.3l19.3-11.2
	l19.1,11V757l-18.9,11l-0.1,0.1L314,756.8z M355.5,756.8L355.5,756.8l0-22.2l19.5-11.3l19.4,11.2l0.1,0.1v22.1L375,768L355.5,756.8z
	 M458.4,768l-19.3-11.1V756H439v-21.5l19.2-11.1l19.1,11V757l-18.8,10.9L458.4,768z M480.5,756.8L480.5,756.8l0-22.2l19.5-11.3
	l19.3,11.2l0.2,0.1v22L500,768L480.5,756.8z M583.3,768L564,756.9v-22.3l19.3-11.2l0.1,0l19.2,11.1V757l-19,10.9L583.3,768z
	 M647.5,757v-22.6l19-11l0.2-0.1l19.3,11.2l0.1,0v22.4L666.7,768L647.5,757z M710,698.2l19.1-11l19.3,11.1l0,22.4l-19.3,11.2
	l-19.1-11V698.2z M730.6,756.8l-0.1-0.1v-22.2l19.5-11.3l19.4,11.2l0.2,0.1v22.1L750,768L730.6,756.8z M814,756.8L814,756.8l0-22.3
	l19.3-11.2l19.1,11V757l-18.9,11l-0.1,0.1L814,756.8z M835,698.2l18.9-11l0.2-0.1l19.2,11.1l0,22.4l-19.3,11.1L835,720.8V698.2z
	 M918.2,720.8l-0.2-0.1v-22.1l19.5-11.3l19.3,11.2l0.1,0.1v22.3l-19.4,11.2L918.2,720.8z M20.7,398.6l19.1,11v22.5l-19.1,11
	l-19.1-11l-0.1-0.1v-22.4L20.7,398.6z M272.5,806.5l19-11l0.1-0.1l19.2,11.1v0.9h0.2v21.6l-19.2,11.1l-0.3-0.1l-18.9-10.9V806.5z
	 M605.5,806.8l19.6-11.3l19.4,11.2l0,22.3L625,840.1L605.7,829l-0.2-0.1V806.8z M772.5,806.5l19-11l0.1-0.1l19.2,11.1v0.9h0.2v21.6
	l-19.2,11.1l-0.3-0.1l-18.9-10.9V806.5z M814,806.7l19.3-11.2l19.2,11.1v22.6l-19,10.9l-0.1,0.1L814,829l0,0V806.7z M897.5,806.5
	l18.9-11l0.2-0.1l19.3,11.2l0,22.3l-19.2,11.1l-0.1,0l-0.2-0.1h-0.2l-18.8-10.8V806.5z M979.1,443.2l-19.2-11.1v-22.6l18.9-11
	l0.1-0.1l19.5,11.3l0,22.2L979.1,443.2z M957,48.9v22.2l-19.5,11.3l-19.3-11.2l-0.2-0.1V49l19.5-11.3l19.4,11.2L957,48.9z M915,71.4
	l-18.9,11l-0.3,0.1l-19.3-11.2l0,0V48.9l19.3-11.2l19.2,11V71.4z M873.5,48.9l0,22.4l-19.2,11.1l0,0l-19.2-11.1V48.8l19.1-11
	L873.5,48.9z M832,48.9v22.2l-19.5,11.3l-19.4-11.2l-0.1-0.1V48.9l19.5-11.2l19.4,11.1L832,48.9z M790,71.5l-18.9,11l-0.3,0.1
	l-19.3-11.3l0,0V48.9l19.3-11.2l19.2,11V71.5z M748.5,48.9l0,22.4l-19.3,11.1l-19.1-11V48.8l19-11L748.5,48.9z M707,48.9l0,22.3
	l-19.4,11.2l-0.1,0.1l-19.4-11.2l-0.2-0.1V48.9l19.2-11.1l0.3-0.1L707,48.9z M665,71.5l-18.9,11l-0.3,0.1l-19.3-11.1V48.8l19.2-11.1
	l19.3,11V71.5z M623.5,48.9l0,22.4l-19.3,11.2l-0.1,0l-19.2-11.1V48.8l18.9-10.9l0.4-0.2L623.5,48.9z M581.9,48.9l0.2,0.1v22.1
	l-19.3,11.1h-0.1l-0.3,0.2l-0.1,0L543,71.2l0,0V49l19.5-11.3L581.9,48.9z M540,71.4l-18.9,11l-0.3,0.1l-19.3-11.1V48.8l19.2-11.1
	l19.3,11V71.4z M519.6,35L500,46.3l-19.5-11.2l0,0V12.9L500,1.7l19.4,11.2l0.2,0.1V35z M498.5,48.9l0,22.4l-19.2,11.1l0,0
	l-19.1-11.1V48.8L479,37.9l0.2-0.1L498.5,48.9z M457,48.9v22.2l-19.5,11.3l-19.3-11.2l-0.2-0.1V49l19.5-11.3l19.4,11.2L457,48.9z
	 M415,71.3l-19.1,11l-19.4-11.1l0,0V48.9l19.2-11.1l19.3,11V71.3z M373.5,48.9l0,22.4l-19.2,11.1l0,0l-19.1-11.1V48.8l19.1-11
	L373.5,48.9z M332,48.9v22.2l-19.5,11.3l-19.4-11.2l-0.1-0.1V48.9l19.5-11.2l19.4,11.1L332,48.9z M290,71.5l-19.1,11l-19.4-11.2l0,0
	V48.9l19.2-11.1l19.3,11V71.5z M248.5,48.9l0,22.4l-19.3,11.1l-19.1-11V48.8l19-11L248.5,48.9z M207,71.2l-19.5,11.2l-19.3-11.1
	l-0.2-0.1V48.9l19.3-11.2l0,0L207,48.9L207,71.2z M165,71.5l-19.1,11l-19.2-11.1V48.8l19.1-11l19.2,11V71.5z M123.5,48.9l0,22.4
	l-19.3,11.2l-0.1,0L85,71.4V48.8l18.9-11l0.3-0.1L123.5,48.9z M81.9,48.9l0.2,0.1v22.1L62.8,82.2h-0.1l-0.3,0.2l-0.1-0.1h-0.1
	L43,71.2l0,0V49l19.5-11.3l0.3,0.2h0.1L81.9,48.9z M1.5,121l19.3-11.1l19.1,11v22.6l-19.1,11.1L1.5,143.5V121z M1.5,193.1L20.7,182
	l19.1,11v22.6l-19,11l-0.1,0.1L1.5,215.6V193.1z M1.5,265.3l19.2-11.1l19.1,11v22.6l-19,11L1.5,287.8V265.3z M1.5,337.5l19.2-11.1
	l19.1,11V360l-19,11l0,0L1.5,360V337.5z M1.5,481.8l19.2-11.1l19.3,11v22.6l-19,11l-0.1,0.1L1.5,504.3V481.8z M1.5,554l19.3-11.1
	l19.1,11v22.6l-19.1,11.1L1.5,576.5V554z M1.5,626.1L20.7,615l19.1,11v22.6l-19,11l-0.1,0.1L1.5,648.6V626.1z M1.5,698.3l19.2-11.1
	l19.1,11v22.6l-19,11l0,0L1.5,720.8V698.3z M41.8,840.1l-0.2,0.1l-19.1-11v-22.6l18.9-11l0.2-0.1L61,806.7l0,22.3L41.8,840.1z
	 M43,793v-22.3l19.3-11.2l0.2-0.1l0.3,0.2h0.1l19.1,11l0.2,0.1v22.2L62.8,804h-0.1l-0.3,0.2l-0.1-0.1h-0.1L43,793L43,793z
	 M102.5,829.2l-18.9,11l-0.3,0.1L63.9,829v-22.3l19.3-11.2l0.1,0l19.2,11.1V829.2z M85,770.5l18.9-11l0.3-0.1l19.4,11.2l0,22.4
	l-19.3,11.2l-0.1,0L85,793.1V770.5z M144.5,829L125,840.1L105.7,829l-0.2-0.1v-22.1l19.5-11.3l19.4,11.2l0.1,0.1V829z M126.7,793
	v-22.5l19.2-11.1l19.1,11V793l-19.1,11.1L126.7,793z M166.6,840.2l-19.1-11v-22.6l19-11l0.2-0.1l19.2,11.1v0.9h0.1v21.6L166.6,840.2
	z M168.3,793l-0.2-0.1v-22.2l19.3-11.2l0.1-0.1l19.4,11.2l0,0v22.2l-19.5,11.3L168.3,793z M208.6,840.1l-0.3,0.1l-19.2-11.1v-22.4
	l19.2-11.2l0.1,0l19.1,11v22.7L208.6,840.1z M210.1,770.5l19.1-11l19.3,11.1l0,22.4l-19.3,11.2l-19.1-11V770.5z M251.7,770.6
	l19.3-11.2l19.1,11V793l-18.9,11l-0.2,0.1L251.7,793V770.6z M293,792.9v-22.2l19.5-11.3l19.4,11.2l0.1,0.1v22.2l-19.5,11.3
	l-19.4-11.2L293,792.9z M333.5,840.1l-0.1,0.1L314,829l0,0v-22.3l19.3-11.2l19.2,11.1v22.6L333.5,840.1z M335.1,770.5l18.9-11
	l0.2-0.1l19.2,11.1l0,22.5L354.3,804l-0.1,0.1l-19-11V770.5z M376.5,792.9L376.5,792.9l0-22.4l19.3-11.2l19.1,11v22.7l-19,11
	L376.5,792.9z M416.8,840.1L416.8,840.1l-0.3-0.1h-0.2l-18.8-10.8v-22.6l18.9-11l0.2-0.1l19.3,11.2l0,22.3L416.8,840.1z M418,792.8
	v-22.2l19.5-11.3l19.3,11.2l0.1,0.1v22.2l-19.4,11.3L418.2,793L418,792.8z M458.5,840.1L458.5,840.1l-19.3-11v-22.4l19.2-11.1
	l19.1,11v22.6L458.5,840.1z M460.1,770.5l18.9-11l0.2-0.1l19.2,11.1l0,22.5l-19.2,11.2l0,0l-19.1-11.1V770.5z M501.5,793v-22.5
	l19.2-11.1l0.1,0l19.2,11.1V793l-18.9,11l-0.3,0.1L501.5,793z M541.8,840.1l-0.2,0.1l-19.1-11v-22.6l18.9-11l0.2-0.1l19.4,11.1
	l0,22.3L541.8,840.1z M543,793L543,793l0-22.3l19.3-11.1l0.2-0.1l19.4,11.1l0.2,0.1v22.1L562.8,804h-0.1l-0.3,0.2l-0.1,0L543,793z
	 M602.5,829.2l-18.9,11l-0.3,0.1L563.9,829v-22.3l19.3-11.2l0.1,0l19.2,11.1V829.2z M585,770.5l18.9-11l0.3-0.1l19.4,11.2l0,22.4
	l-19.3,11.2l-0.1,0L585,793.1V770.5z M626.5,793v-22.5l19.2-11.1l0.1,0l19.2,11.1V793l-18.9,11l-0.3,0.1L626.5,793z M686,829
	l-19.4,11.2l-19.1-11v-22.6l19-11l0.2-0.1l19.3,11.2l0.1,0V829z M668.2,793l-0.2-0.1v-22.2l19.2-11.1l0.3-0.2l19.5,11.3l0,0v22.2
	l-19.5,11.3l-0.1,0L668.2,793z M727.5,829.2l-18.9,11l-0.3,0.1l-19.2-11.1v-22.4l19.2-11.2l0.1,0l19.1,11V829.2z M710.1,770.5l19-11
	l0.1,0l19.3,11.1l0,22.4l-19.3,11.2l-19.1-11V770.5z M751.5,793v-22.4l19.3-11.2l0.1,0l19.2,11.1V793l-18.9,11l-0.4,0.2L751.5,793z
	 M793,792.9v-22.2l19.5-11.3l19.4,11.2l0.1,0.1v22.2l-19.5,11.3l-19.4-11.2L793,792.9z M835.1,770.5l18.9-11l0.2-0.1l19.2,11.1
	l0,22.5L854.3,804l-0.1,0.1l-19-11V770.5z M855.4,806.8l19.5-11.2l19.4,11.2l0.2,0.1v22l-19.6,11.3L855.4,829l0,0V806.8z
	 M876.5,792.9L876.5,792.9l0-22.4l19.3-11.2l0.1,0l19.2,11.1v22.7L896.3,804H896l-0.2,0.1L876.5,792.9z M918,792.8v-22.2l19.5-11.3
	l19.3,11.2l0.1,0.1v22.2l-19.4,11.3L918.2,793L918,792.8z M977.5,829.2l-19,10.9l-0.1,0.1l-19.2-11.1v-22.4l19.2-11.1l19.1,11V829.2
	z M979.3,732.1L979.3,732.1l-19.2-11.1v-22.8l18.9-11l0.1-0.1l19.3,11.2l0,22.4L979.3,732.1z M979.3,659.7L979.3,659.7l-19.2-11.1
	v-22.6l18.9-11l0.1-0.1l19.3,11.2l0,22.3L979.3,659.7z M979.3,587.8L979.3,587.8l-19.2-11.1V554l18.9-11l0.1-0.1l19.3,11.2l0,22.4
	L979.3,587.8z M979.3,515.3L979.3,515.3l-19.2-11.1v-22.5l18.9-11l0.1-0.1l19.3,11.1l0,22.4L979.3,515.3z M979.3,371.2L979.3,371.2
	l-19.2-11.1v-22.7l18.9-11l0.1-0.1l19.3,11.1l0,22.4L979.3,371.2z M979.3,299.1L979.3,299.1l-19.2-11.1v-22.8l18.9-11l0.1-0.1
	l19.3,11.2l0,22.4L979.3,299.1z M979.3,226.7L979.3,226.7l-19.2-11.1v-22.6l18.9-11l0.1-0.1l19.3,11.2l0,22.3L979.3,226.7z
	 M979.3,154.8L979.3,154.8l-19.2-11.1V121l18.9-11l0.1-0.1l19.3,11.2l0,22.4L979.3,154.8z M979.3,82.3L979.3,82.3l-19.2-11.1V48.8
	l18.8-10.9l0.2-0.1l19.3,11.1l0,22.4L979.3,82.3z"/>
</svg>
