<?xml version="1.0" encoding="utf-8"?>
<!-- Generator: Adobe Illustrator 23.0.3, SVG Export Plug-In . SVG Version: 6.00 Build 0)  -->
<svg version="1.1" id="Layer_1" xmlns="http://www.w3.org/2000/svg" xmlns:xlink="http://www.w3.org/1999/xlink" x="0px" y="0px"
	 viewBox="0 0 346.6 286.8" style="enable-background:new 0 0 346.6 286.8;" xml:space="preserve">
<style type="text/css">
	.st0{fill:none;stroke:#EA272A;stroke-width:14;stroke-linecap:round;stroke-linejoin:round;stroke-miterlimit:22.9256;}
</style>
<path class="st0" d="M27.9,7h290.7c11.5,0,20.9,9.4,20.9,20.9v230.9c0,11.5-9.4,20.9-20.9,20.9H27.9c-11.5,0-20.9-9.4-20.9-20.9
	V27.9C7,16.4,16.4,7,27.9,7L27.9,7z"/>
<line class="st0" x1="56.2" y1="65.5" x2="56.2" y2="221.6"/>
<path class="st0" d="M88.7,65.5c0,44.1,0,88.2,0,132.2"/>
<path class="st0" d="M133.1,65.5c0,44.1,0,88.2,0,132.2"/>
<path class="st0" d="M174.5,65.5c0,52.8,0,105.5,0,158.3"/>
<path class="st0" d="M210,65.5c0,44.1,0,88.2,0,132.2"/>
<path class="st0" d="M242.6,65.5c0,44.1,0,88.2,0,132.2"/>
<line class="st0" x1="286.9" y1="65.5" x2="286.9" y2="221.6"/>
</svg>
