<?xml version="1.0" encoding="utf-8"?>
<!-- Generator: Adobe Illustrator 23.0.3, SVG Export Plug-In . SVG Version: 6.00 Build 0)  -->
<svg version="1.1" id="Layer_1" xmlns="http://www.w3.org/2000/svg" xmlns:xlink="http://www.w3.org/1999/xlink" x="0px" y="0px"
	 viewBox="0 0 377 376.4" style="enable-background:new 0 0 377 376.4;" xml:space="preserve">
<style type="text/css">
	.st0{fill:none;stroke:#EA272A;stroke-width:14;stroke-linecap:round;stroke-linejoin:round;stroke-miterlimit:22.9256;}
</style>
<g>
	<path class="st0" d="M168.1,7c0,12.8,0,25,0,37.3c0,39.7-0.1,79.3,0,119c0,3.6-0.8,4.9-4.7,4.8c-51-0.1-102-0.1-152.9-0.1
		c-0.9,0-1.9-0.1-3.4-0.2c0-1.8,0-3.5,0-5.1c0-38,0-76.1,0-114.2C7.1,24.5,24.5,7.1,48.4,7c38,0,76.1,0,114.2,0
		C164.2,7,165.7,7,168.1,7z M137.8,37c-2.1,0-3.7,0-5.3,0c-27.6,0-55,0-82.6,0C40.6,37,37,40.6,37,49.9c0,27.6,0,55,0,82.6
		c0,1.7,0.1,3.3,0.2,5.2c1.3,0.1,2.2,0.3,3.1,0.3c31.3,0,62.6,0,93.9,0.1c3.4,0,3.8-1.5,3.8-4.3c-0.1-30.7,0-61.4,0-92
		C138,40.3,137.8,38.9,137.8,37z"/>
	<path class="st0" d="M208.4,7c12.7,0,24.8,0,36.9,0c27.6,0,55,0,82.6,0c24.1,0,41.4,17.2,41.4,41.3c0.1,38.5,0,77,0,115.7
		c0,1.2-0.2,2.5-0.3,3.9c-1.6,0.1-3,0.3-4.3,0.3c-50,0-100.1,0-150.1,0c-6.2,0-6.2,0-6.2-6.5c0-49.8,0-99.7,0-149.6
		C208.4,10.6,208.4,9.2,208.4,7z M339,138c0.2-1.4,0.4-1.9,0.4-2.3c0-29.3,0.1-58.4,0-87.7c0-7.1-4.1-11-11.3-11
		c-28.6-0.1-57.2,0-85.8,0c-1.2,0-2.4,0.3-3.6,0.5c-0.1,1.1-0.3,1.9-0.3,2.6c0,31.2,0,62.6-0.1,93.8c0,4,1.9,4.2,4.9,4.2
		c30.2-0.1,60.3,0,90.5,0C335.4,138,337.1,138,339,138z"/>
	<path class="st0" d="M7.1,208.3c12.2,0,23.6,0,35.1,0c40.1,0,80.2,0.1,120.4-0.1c4.2,0,5.7,0.8,5.7,5.4
		c-0.2,50.5-0.1,101-0.1,151.5c0,1.2-0.1,2.5-0.3,4.2c-6.3,0-12.4,0-18.5,0c-33.8,0-67.6,0.1-101.5,0c-23.4,0-40.8-17.6-40.8-41
		c0-38.4,0-76.8,0-115.2C7.1,211.8,7.1,210.4,7.1,208.3z M138.1,339.3c0-2.4,0-4.2,0-6c0-29.8-0.1-59.8,0.1-89.6
		c0-4.3-1.2-5.6-5.5-5.6c-30,0.2-60,0.1-90.1,0.1c-1.7,0-3.4,0-5.3,0c-0.1,2-0.3,3.4-0.3,4.7c0,27.7,0,55.3,0,83
		c0,10.1,3.3,13.3,13.2,13.3c27.5,0,55,0,82.5,0C134.4,339.3,136,339.3,138.1,339.3z"/>
	<path class="st0" d="M308.7,208.8c0,9.7,0,19.4,0,29.5c-11.1,0-22.1,0-33,0c-11,0-22,0.1-32.9-0.1c-3.2,0-4.4,1-4.3,4.3
		c0.2,8.4,0.1,16.9,0.1,25.7c-10.2,0-19.8,0-29.6,0c-0.1-1.2-0.3-2.1-0.3-3c0-17.6,0-35.2-0.1-52.8c0-2.9,0.8-4.2,4-4.2
		c31.2,0.1,62.5,0.1,93.8,0.1C306.9,208.4,307.9,208.7,308.7,208.8z"/>
	<path class="st0" d="M269,369.3c0-10.3,0-19.8,0-29.9c1.9,0,3.5,0,5.2,0c17.7,0,35.5,0,53.2,0c8.1,0,11.8-3.7,11.9-11.8
		c0.1-5.9,0-11.9,0-18.1c10,0,19.7,0,30.7,0c-0.8,10.5-0.4,21.2-2.7,31.2c-4.2,17.4-20.2,28.6-38,28.7c-18.5,0.1-37.1,0-55.6,0
		C272.3,369.3,270.9,369.3,269,369.3z"/>
	<path class="st0" d="M369.2,208.8c0,19.8,0,39.4,0,59.4c-9.7,0-19.4,0-29.4,0c0-19.5,0-39.3,0-59.4
		C349.4,208.8,359.1,208.8,369.2,208.8z"/>
	<path class="st0" d="M238.1,369.1c-10.1,0-19.6,0-29.5,0c0-20,0-39.7,0-59.7c9.9,0,19.5,0,29.5,0
		C238.1,329.3,238.1,349,238.1,369.1z"/>
	<path class="st0" d="M308.6,308.7c-13.3,0-26.2,0-39.8,0c0-4.7,0-9.4,0-14.1c0-7.4-0.1-14.7,0.1-22.2c0-1.3,1.7-3.6,2.6-3.6
		c12.2-0.3,24.5-0.2,37-0.2C308.6,282.2,308.6,295.3,308.6,308.7z"/>
	<path class="st0" d="M107.6,67.8c-13.7,0-26.7,0-39.9,0c0,13.3,0,26.3,0,39.8c9.6,0,19,0,28.4,0c11.5,0,11.5,0,11.5-11.5
		C107.6,86.7,107.6,77.2,107.6,67.8z"/>
	<path class="st0" d="M268.8,67.7c0,12.7-0.1,24.9,0.2,37.1c0,0.9,2.4,2.6,3.6,2.6c7.1,0.3,14.2,0.2,21.2,0.2c5,0,9.9,0,14.9,0
		c0-13.7,0-26.7,0-39.9C295.5,67.7,282.5,67.7,268.8,67.7z"/>
	<path class="st0" d="M107.6,308.7c0-12.7,0-24.9,0-37.1c0-2.7-1.6-2.9-3.7-2.9c-7.3,0-14.4,0-21.7,0c-4.8,0-9.6,0-14.4,0
		c0,13.8,0,26.8,0,40C81.1,308.7,94,308.7,107.6,308.7z"/>
	<path class="st0" d="M107.6,67.8c0,9.5,0,18.9,0,28.3c0,11.5,0,11.5-11.5,11.5c-9.3,0-18.8,0-28.4,0c0-13.5,0-26.5,0-39.8
		C80.9,67.8,94,67.8,107.6,67.8z"/>
	<path class="st0" d="M268.8,67.7c13.7,0,26.6,0,39.8,0c0,13.2,0,26.2,0,39.9c-5,0-9.9,0-14.9,0c-7.1,0-14.2,0.1-21.2-0.2
		c-1.3-0.1-3.6-1.7-3.6-2.6C268.8,92.5,268.8,80.4,268.8,67.7z"/>
	<path class="st0" d="M107.6,308.7c-13.6,0-26.5,0-39.7,0c0-13.2,0-26.2,0-40c4.8,0,9.6,0,14.4,0c7.3,0,14.4,0,21.7,0
		c2.1,0,3.7,0.1,3.7,2.9C107.6,283.9,107.6,296.1,107.6,308.7z"/>
</g>
</svg>
