<?xml version="1.0" encoding="utf-8"?>
<!-- Generator: Adobe Illustrator 23.0.3, SVG Export Plug-In . SVG Version: 6.00 Build 0)  -->
<svg version="1.1" id="Layer_1" xmlns="http://www.w3.org/2000/svg" xmlns:xlink="http://www.w3.org/1999/xlink" x="0px" y="0px"
	 viewBox="0 0 343.7 334.1" style="enable-background:new 0 0 343.7 334.1;" xml:space="preserve">
<style type="text/css">
	.st0{fill:none;stroke:#EA272A;stroke-width:14;stroke-linecap:round;stroke-linejoin:round;stroke-miterlimit:22.9256;}
</style>
<g>
	<path class="st0" d="M165.6,16.1L322,172.4c6.7,6.7,6.7,17.9,0,24.6L197,322c-6.7,6.7-17.8,6.8-24.6,0L16.1,165.7
		c-3.3-3.3-9.1-13.6-9.1-18.2V48.7C7,40.5,40.6,7,48.7,7l98.8,0C152,7,162.4,12.8,165.6,16.1L165.6,16.1z"/>
	<path class="st0" d="M60.9,60.9c11.7-11.7,30.7-11.7,42.3,0c11.7,11.7,11.7,30.7,0,42.3c-11.7,11.7-30.7,11.7-42.3,0
		C49.2,91.6,49.2,72.6,60.9,60.9L60.9,60.9z"/>
	<line class="st0" x1="225.5" y1="137.3" x2="137.3" y2="225.5"/>
	<line class="st0" x1="254.9" y1="166.7" x2="166.7" y2="254.9"/>
	<path class="st0" d="M265.7,114c41.9-6.9,71-22.2,71-40c0-24.3-54.2-44-121-44s-121,19.7-121,44c0,4.6,2,9.1,5.6,13.3"/>
</g>
</svg>
