<?xml version="1.0" encoding="utf-8"?>
<!-- Generator: Adobe Illustrator 23.0.3, SVG Export Plug-In . SVG Version: 6.00 Build 0)  -->
<svg version="1.1" id="Layer_1" xmlns="http://www.w3.org/2000/svg" xmlns:xlink="http://www.w3.org/1999/xlink" x="0px" y="0px"
	 viewBox="0 0 349.6 307.2" style="enable-background:new 0 0 349.6 307.2;" xml:space="preserve">
<style type="text/css">
	.st0{fill:none;stroke:#EA272A;stroke-width:14;stroke-linecap:round;stroke-linejoin:round;stroke-miterlimit:22.9256;}
</style>
<path class="st0" d="M342.6,7H7v234.6c184.8,0,241.1,0,335.6,0V7L342.6,7z"/>
<line class="st0" x1="98.9" y1="298.3" x2="256.6" y2="298.3"/>
<line class="st0" x1="138" y1="291.7" x2="138" y2="245"/>
<line class="st0" x1="217.5" y1="291.7" x2="217.5" y2="245"/>
<line class="st0" x1="240.4" y1="44.6" x2="181.2" y2="206.5"/>
<polyline class="st0" points="156.2,136.5 156.2,42.1 110,108.6 174.9,107.7 "/>
<polyline class="st0" points="99,136.5 39.9,136.5 75.4,101 "/>
<path class="st0" d="M75.4,101C100,79,93,56.5,77.7,48.1c-23.6-12.9-41,12.3-38.4,29.2"/>
<path class="st0" d="M249.7,114.7h59.2c-15.6,29.4-45.2,59.7-46.7,88.3"/>
</svg>
