<?xml version="1.0" encoding="utf-8"?>
<!-- Generator: Adobe Illustrator 23.0.3, SVG Export Plug-In . SVG Version: 6.00 Build 0)  -->
<svg version="1.1" id="Layer_1" xmlns="http://www.w3.org/2000/svg" xmlns:xlink="http://www.w3.org/1999/xlink" x="0px" y="0px"
	 viewBox="0 0 343.7 342.1" style="enable-background:new 0 0 343.7 342.1;" xml:space="preserve">
<style type="text/css">
	.st0{fill:none;stroke:#EA272A;stroke-width:14;stroke-linecap:round;stroke-linejoin:round;stroke-miterlimit:22.9256;}
</style>
<g>
	<line class="st0" x1="258.1" y1="299.9" x2="267" y2="202.8"/>
	<path class="st0" d="M215,299.9c1.5-32.4,3-64.7,4.4-97.1"/>
	<path class="st0" d="M171.8,299.9c0-32.4,0-64.7,0-97.1"/>
	<path class="st0" d="M128.7,299.9c-1.5-32.4-3-64.7-4.4-97.1"/>
	<line class="st0" x1="85.6" y1="299.9" x2="76.7" y2="202.8"/>
	<path class="st0" d="M18.8,119.2h306.1c6.5,0,11.8,5.3,11.8,11.8v26.7c0,6.5-5.3,11.8-11.8,11.8H18.8c-6.5,0-11.8-5.3-11.8-11.8
		V131C7,124.5,12.3,119.2,18.8,119.2L18.8,119.2z"/>
	<path class="st0" d="M312.8,169.5L304.1,303c-1.1,17.6-14.5,32.1-32.1,32.1H71.7c-17.6,0-30.9-14.5-32.1-32.1l-8.8-133.6"/>
	<line class="st0" x1="203.3" y1="7" x2="266.9" y2="141.2"/>
	<line class="st0" x1="140.4" y1="7" x2="76.7" y2="141.2"/>
</g>
</svg>
