<?xml version="1.0" encoding="utf-8"?>
<!-- Generator: Adobe Illustrator 23.0.3, SVG Export Plug-In . SVG Version: 6.00 Build 0)  -->
<svg version="1.1" xmlns="http://www.w3.org/2000/svg" xmlns:xlink="http://www.w3.org/1999/xlink" x="0px" y="0px"
	 viewBox="0 0 1000 242.6" style="enable-background:new 0 0 1000 242.6;" xml:space="preserve">
<style type="text/css">
	.st0{fill:#009ADE;}
	.st1{fill:#002F87;}
	.st2{fill:#002169;}
</style>
<g id="Layer_1">
	<g>
		<g>
			<g>
				<g>
					<g>
						<path class="st0" d="M770.1,54.3h-55c-3.8,0-7,2.7-7.5,6.4l-22.2,141c-0.4,2.8,1.7,5.3,4.5,5.3h28.2c2.6,0,4.9-1.9,5.3-4.5
							l6.3-40c0.6-3.7,3.8-6.4,7.5-6.4h17.4c36.2,0,57.1-17.5,62.6-52.3c2.5-15.2,0.1-27.1-7-35.5C802.4,59.1,788.5,54.3,770.1,54.3
							z M776.5,105.8c-3,19.7-18.1,19.7-32.7,19.7h-8.3l5.8-36.9c0.4-2.2,2.3-3.9,4.5-3.9h3.8c9.9,0,19.3,0,24.1,5.7
							C776.7,93.8,777.5,98.8,776.5,105.8z"/>
						<path class="st1" d="M377.9,54.3h-55c-3.8,0-7,2.7-7.5,6.4l-22.2,141c-0.4,2.8,1.7,5.3,4.5,5.3h26.3c3.8,0,7-2.7,7.5-6.4l6-38
							c0.6-3.7,3.8-6.4,7.5-6.4h17.4c36.2,0,57.1-17.5,62.6-52.3c2.5-15.2,0.1-27.1-7-35.5C410.2,59.1,396.3,54.3,377.9,54.3z
							 M384.3,105.8c-3,19.7-18.1,19.7-32.7,19.7h-8.3l5.8-36.9c0.4-2.2,2.3-3.9,4.5-3.9h3.8c9.9,0,19.3,0,24.1,5.7
							C384.5,93.8,385.4,98.8,384.3,105.8z"/>
						<path class="st1" d="M542.3,105.1h-26.3c-2.3,0-4.2,1.6-4.5,3.9l-1.2,7.4l-1.8-2.7c-5.7-8.3-18.4-11-31.1-11
							c-29.1,0-53.9,22-58.8,53c-2.5,15.4,1.1,30.2,9.8,40.5c8,9.5,19.5,13.4,33.2,13.4c23.4,0,36.5-15.1,36.5-15.1l-1.2,7.3
							c-0.4,2.8,1.7,5.3,4.5,5.3H525c3.8,0,7-2.7,7.5-6.4l14.2-90.1C547.2,107.6,545.1,105.1,542.3,105.1z M505.6,156.4
							c-2.5,15-14.5,25.1-29.7,25.1c-7.6,0-13.7-2.5-17.7-7.1c-3.9-4.6-5.4-11.2-4.1-18.5c2.4-14.9,14.5-25.3,29.5-25.3
							c7.5,0,13.5,2.5,17.6,7.2C505.2,142.5,506.7,149.1,505.6,156.4z"/>
						<path class="st0" d="M934.5,105.1h-26.3c-2.3,0-4.2,1.6-4.5,3.9l-1.2,7.4l-1.8-2.7c-5.7-8.3-18.4-11-31.1-11
							c-29.1,0-53.9,22-58.8,53c-2.5,15.4,1.1,30.2,9.8,40.5c8,9.5,19.5,13.4,33.2,13.4c23.4,0,36.5-15.1,36.5-15.1l-1.2,7.3
							c-0.4,2.8,1.7,5.3,4.5,5.3h23.7c3.8,0,7-2.7,7.5-6.4l14.2-90.1C939.4,107.6,937.3,105.1,934.5,105.1z M897.8,156.4
							c-2.5,15-14.5,25.1-29.7,25.1c-7.6,0-13.8-2.5-17.7-7.1c-3.9-4.6-5.4-11.2-4.1-18.5c2.4-14.9,14.5-25.3,29.5-25.3
							c7.5,0,13.5,2.5,17.6,7.2C897.3,142.5,898.9,149.1,897.8,156.4z"/>
						<path class="st1" d="M682.5,105.1H656c-2.5,0-4.9,1.3-6.3,3.4l-36.5,53.8l-15.5-51.7c-1-3.2-3.9-5.5-7.3-5.5h-26
							c-3.1,0-5.4,3.1-4.3,6.1l29.1,85.5l-27.4,38.7c-2.2,3,0,7.2,3.7,7.2H592c2.5,0,4.9-1.2,6.3-3.3l88-127
							C688.4,109.3,686.2,105.1,682.5,105.1z"/>
						<path class="st0" d="M965.5,58.1l-22.6,143.6c-0.4,2.8,1.7,5.3,4.5,5.3h22.7c3.8,0,7-2.7,7.5-6.4l22.3-141
							c0.4-2.8-1.7-5.3-4.5-5.3H970C967.8,54.3,965.8,55.9,965.5,58.1z"/>
					</g>
				</g>
			</g>
		</g>
		<g>
			<path class="st0" d="M185.3,61.6c3-18.9,0-31.7-10.2-43.3C163.8,5.5,143.5,0,117.5,0H42.1c-5.3,0-9.8,3.9-10.7,9.1L0.1,208.2
				c-0.6,3.9,2.4,7.5,6.4,7.5H53l-3.2,20.4c-0.5,3.4,2.1,6.5,5.6,6.5h39.2c4.6,0,8.6-3.4,9.3-8l0.4-2l7.4-46.9l0.5-2.6
				c0.7-4.6,4.7-8,9.3-8h5.9c38,0,67.8-15.4,76.5-60.1c3.6-18.7,1.8-34.2-7.9-45.2C193.1,66.6,189.5,63.9,185.3,61.6L185.3,61.6"/>
			<path class="st2" d="M185.3,61.6c3-18.9,0-31.7-10.2-43.3C163.8,5.5,143.5,0,117.5,0H42.1c-5.3,0-9.8,3.9-10.7,9.1L0.1,208.2
				c-0.6,3.9,2.4,7.5,6.4,7.5H53l11.7-74.2l-0.4,2.3c0.8-5.2,5.3-9.1,10.6-9.1h22.1c43.5,0,77.5-17.7,87.4-68.7
				C184.8,64.5,185.1,63.1,185.3,61.6"/>
			<path class="st1" d="M77.3,61.9c0.5-3.2,2.5-5.7,5.2-7c1.2-0.6,2.6-0.9,4.1-0.9h59.1c7,0,13.5,0.5,19.5,1.4
				c1.7,0.3,3.4,0.6,5,0.9c1.6,0.4,3.2,0.8,4.7,1.2c0.8,0.2,1.5,0.5,2.2,0.7c2.9,1,5.7,2.1,8.2,3.5c3-18.9,0-31.7-10.2-43.3
				C163.8,5.5,143.5,0,117.5,0H42.1c-5.3,0-9.8,3.9-10.7,9.1L0.1,208.2c-0.6,3.9,2.4,7.5,6.4,7.5H53l11.7-74.2L77.3,61.9z"/>
		</g>
	</g>
</g>
<g id="Layer_2">
</g>
</svg>
