<?xml version="1.0" encoding="utf-8"?>
<!-- Generator: Adobe Illustrator 23.0.3, SVG Export Plug-In . SVG Version: 6.00 Build 0)  -->
<svg version="1.1" xmlns="http://www.w3.org/2000/svg" xmlns:xlink="http://www.w3.org/1999/xlink" x="0px" y="0px"
	 viewBox="0 0 1000 249.3" style="enable-background:new 0 0 1000 249.3;" xml:space="preserve">
<style type="text/css">
	.st0{fill-rule:evenodd;clip-rule:evenodd;fill:#00467F;}
	.st1{fill-rule:evenodd;clip-rule:evenodd;fill:#B9C7D4;}
</style>
<g id="Layer_3">
</g>
<g id="Layer_1">
	<g>
		<polygon points="336.8,188.7 314.5,188.7 314.5,84.6 343.6,84.6 377.8,144.4 377.8,84.6 400.1,84.6 400.1,188.7 376.5,188.7 
			336.8,117.8 		"/>
		<path d="M419.7,84.6"/>
		<polygon points="487.7,84.6 419.6,84.6 419.6,188.7 487.7,188.7 487.7,168.7 443.8,168.7 443.8,143.3 484.4,143.3 484.4,122.5 
			443.9,122.5 443.9,105 487.7,105 		"/>
		<path d="M501.8,84.6h82.4V105h-29.1v83.6h-24.1l0-83.6c0,0-25.5,0-29.3,0C501.8,104.1,501.8,84.6,501.8,84.6z"/>
		<path d="M531.1,105.1c0,0-28.1,0-29.3,0"/>
		<g>
			<path d="M599.2,165c5.8,3.4,15.2,12.3,31.1,14c19.1,2,27.1-8.3,28-17.1c1.4-13-10-15.8-26.8-19.1c-18.6-3.7-30.5-7.1-32.3-29.5
				c-1.3-16.8,12.9-31.8,40.4-30.7c10.6,0.4,21.7,3.6,27.3,7.2l-0.1,16.3c-4.1-2.6-14.2-10.6-32.4-11.5c-14.2-0.7-21.9,8.5-22,16.2
				c-0.1,17.7,14.5,15.7,28.6,19.4c19.7,5.1,30.4,10,29.9,29.9c-0.4,18.5-16.6,30.6-41,30.6c-11.4,0-23.6-3.9-31-8.2V165z"/>
		</g>
		<g>
			<path d="M708.7,84.6v62c0,23.2,9.9,33.2,23.1,33.2c14.6,0,24.1-10.2,24.1-33.2v-62h12.9v61c0,32.1-16,45.1-37.5,45.1
				c-20.3,0-35.6-12.1-35.6-44.6V84.6H708.7z"/>
		</g>
		<rect x="806.4" y="84.6" width="12.3" height="104.1"/>
		<polygon points="840.2,84.6 919.7,84.6 919.7,96.8 886.1,96.8 886.1,188.7 873.7,188.7 873.7,96.8 840.2,96.8 		"/>
		<polygon points="1000,84.6 938.9,84.6 938.9,188.7 1000,188.7 1000,176.7 950.8,176.7 950.8,137.9 1000,137.9 1000,125.7 
			950.8,125.7 950.8,96.8 1000,96.8 		"/>
		<g>
			<path class="st0" d="M0,0c53.8,0,108.1,0,161.9,0c0,45.8,0,92.9,0,138.6c-63.1-79.9,0,0-63.1-79.9c-33,0-65.9,0-98.9,0
				C0,39.6,0,1,0,0z"/>
			<path class="st0" d="M98.5,111.4c21,26,41.2,52.9,62,79.1c33.1,0,66.3,0,99.4,0c0,19.6,0,39.2,0,58.8c-53.8,0-107.6,0-161.4,0
				C98.5,203.3,98.5,157.4,98.5,111.4z"/>
			<path class="st1" d="M172.1,58.5c0-15.7,0-30.9,0-46.6c25.5,0,50.9,0,76.4,0c0,56.1,0,112.2,0,168.3c-16.9,0-33.8,0-50.8,0
				c0-40.4,0-81.3,0-121.8C189.3,58.5,172.2,58.5,172.1,58.5z"/>
			<path class="st1" d="M62.8,68.7c0,40.1,0,80.7,0,120.8c8,0,16.8,0,25.1,0c0,15.9,0,31.7,0,47.6c-25.3,0-50.6,0-75.9,0
				c0-56.1,0-112.2,0-168.3C28.9,68.7,45.9,68.7,62.8,68.7z"/>
		</g>
	</g>
</g>
</svg>
