<?xml version="1.0" encoding="utf-8"?>
<!-- Generator: Adobe Illustrator 23.0.3, SVG Export Plug-In . SVG Version: 6.00 Build 0)  -->
<svg version="1.1" id="Layer_1" xmlns="http://www.w3.org/2000/svg" xmlns:xlink="http://www.w3.org/1999/xlink" x="0px" y="0px"
	 viewBox="0 0 1000 190.3" style="enable-background:new 0 0 1000 190.3;" xml:space="preserve">
<style type="text/css">
	.st0{fill:#2CA01C;}
	.st1{fill:#FFFFFF;}
</style>
<g>
	<g>
		<path d="M995.1,144.4c0-2-1.7-2.7-3.5-2.7h-3.3v9.4h1.7v-3.9h1.2l2.2,3.9h2.1l-2.5-4.1C994.3,146.7,995.1,145.8,995.1,144.4
			L995.1,144.4z M990,145.8v-2.7h1.5c0.9,0,1.9,0.3,1.9,1.3c0,1.1-1.1,1.4-2.1,1.4H990L990,145.8z M991.6,138.1
			c-4.7,0-8.4,3.7-8.4,8.3c0,4.6,3.8,8.2,8.4,8.2s8.4-3.6,8.4-8.2C1000,141.8,996.2,138.1,991.6,138.1z M991.6,153.4
			c-3.9,0-7.1-3.1-7.1-7c0-3.9,3.2-7,7.1-7c3.9,0,7.1,3.1,7.1,7C998.7,150.3,995.5,153.4,991.6,153.4z M449,139.5
			c-12.3,0-18.6-10.9-18.6-21.4s6.8-21,18-21c5.3,0,11.9,2.6,14.5,6.3l13.1-12.9C469.6,84,459.5,80,448.4,80
			c-22.7,0-39.2,16.1-39.2,38.3c0,22.5,16.3,38.3,39.6,38.3c11.1,0,21.4-3.2,27.5-9.7l-12.7-13.5C460.6,137,454.5,139.5,449,139.5z
			 M375.9,154.6h20.3V82.1h-20.3V154.6z M339.1,121.8c0,8.5-5.6,17.7-16.1,17.7c-8.1,0-12.4-5.7-12.4-17.4v-40h-20.3v45
			c0,15,7.6,29.5,27.8,29.5c9.5,0,17.5-7.4,21.6-12.9h0.3v10.8h19.4V82.1h-20.3C339.1,82.1,339.1,121.8,339.1,121.8z M253.8,91.3
			h-0.5c-2.9-3.1-10.6-11.2-23.2-11.2c-20.7,0-36.6,16-36.6,38c0,22.3,14.7,38.6,35.6,38.6c9.5,0,18.4-5,23.6-10.8h0.3v44.4h20.3
			V82.1h-19.5L253.8,91.3L253.8,91.3z M234.1,139.5c-12.5,0-19.7-10.8-19.7-21.5c0-10.2,6.5-21.2,19.7-21.2
			c12.1,0,19.5,11.1,19.5,21.5C253.6,128.8,246.3,139.5,234.1,139.5z M695.7,80.1c-23.1,0-39.8,16-39.8,38
			c0,22.8,17.1,38.8,39.8,38.8s39.8-16.1,39.8-38.8C735.5,96,718.7,80.1,695.7,80.1z M695.7,139.5c-13.2,0-19.2-11.1-19.2-21.5
			c0-10.2,6-21.2,19.2-21.2c13.2,0,19.2,11,19.2,21.2C714.9,128.4,708.9,139.5,695.7,139.5z M949,110c-10.4-2.5-14.1-3.8-14.1-8
			c0-5.8,7.4-7,10.7-7c6.3,0,13.4,3.7,16.1,7.2l12-11.3c-5.5-6.9-16.4-10.8-27.9-10.8c-14.7,0-30.1,7.3-30.1,23.6
			c0,14,11.1,18.2,21.9,20.8c11.4,2.6,15.5,4.6,15.5,9.1c0,6.7-7.7,7.8-10.4,7.8c-6.6,0-14.3-3.8-18.5-8.6L912.1,145
			c6.7,7.4,18.2,11.8,30,11.8c19.8,0,31.6-9.3,31.6-24.7C973.7,117.3,959.3,112.4,949,110L949,110z M910.7,82.1h-26.1l-26.2,30.1
			H858v-70h-20.3v112.4H858v-35.8h0.5l27.1,35.8h26.7L880.7,115L910.7,82.1L910.7,82.1z M610.2,80.1c-9.3,0-16.1,4-22.5,10h-0.4
			V42.1H567v112.4h19.4v-10.2h0.3c4.6,7.4,13.6,12.3,23.1,12.3c20.9,0,36.8-16.2,36.8-38.6C646.5,96,630.9,80,610.2,80.1L610.2,80.1
			z M606.2,139.5c-12.2,0-19.5-10.8-19.5-21.2c0-10.3,7.5-21.5,19.5-21.5c13.1,0,19.6,11,19.6,21.2
			C625.9,128.7,618.8,139.5,606.2,139.5z M559.4,82.1h-26.1l-26.2,30.1h-0.5v-70h-20.3v112.4h20.3v-35.8h0.4l27.1,35.8h26.7
			L529.4,115L559.4,82.1L559.4,82.1z M784.7,80.1c-23.1,0-39.8,16-39.8,38c0,22.8,17.1,38.8,39.8,38.8c22.7,0,39.8-16.1,39.8-38.8
			C824.5,96,807.8,80.1,784.7,80.1z M784.7,139.5c-13.2,0-19.2-11.1-19.2-21.5c0-10.2,6-21.2,19.2-21.2c13.2,0,19.2,11,19.2,21.2
			C804,128.4,797.9,139.5,784.7,139.5z"/>
	</g>
	<g transform="translate(.08 .085)">
		<ellipse class="st0" cx="85.3" cy="84.2" rx="85.4" ry="84.3"/>
		<path class="st1" d="M23.6,84.2c0,18.1,14.9,32.8,33.2,32.8h4.7v-12.2h-4.7c-11.5,0-20.9-9.2-20.9-20.6c0-11.4,9.4-20.6,20.9-20.6
			h11.4v63.7c0,6.7,5.5,12.2,12.3,12.2V51.4H56.8C38.5,51.4,23.6,66.1,23.6,84.2z M113.7,51.4H109v12.2h4.7
			c11.5,0,20.9,9.2,20.9,20.6c0,11.4-9.4,20.6-20.9,20.6h-11.4V41.1c0-6.7-5.5-12.2-12.3-12.2V117h23.7c18.3,0,33.2-14.7,33.2-32.8
			C146.9,66.1,132.1,51.4,113.7,51.4z"/>
	</g>
	<path d="M277.1,19.2c3.1,0,5.6-2.5,5.6-5.6c0-3.1-2.5-5.6-5.6-5.6c0,0,0,0,0,0c-3.1,0-5.6,2.5-5.6,5.6c0,0,0,0,0,0
		C271.4,16.7,274,19.2,277.1,19.2L277.1,19.2z M243.4,23c-5.5,0-10,3.3-11.6,7h-0.2V24h-8.9v36.9h9.3V40.6c0-4.9,2.8-10,8.7-10
		c6,0,7,5.5,7,9.8v20.4h9.3V37.9C257.2,30.3,253.2,23,243.4,23L243.4,23z M203.9,60.9h9.3V24h-9.3V60.9z M373.7,19.2
		c3.1,0,5.6-2.5,5.6-5.6c0-3.1-2.5-5.6-5.6-5.6c0,0,0,0,0,0c-3.1,0-5.6,2.5-5.6,5.6c0,0,0,0,0,0C368,16.7,370.5,19.2,373.7,19.2
		L373.7,19.2z M358.5,24v8.2H369v28.7h9.3V32.2h10.5V24H358.5L358.5,24z M342.7,60.9h9.3V24h-9.3V60.9z M261.9,32.2h10.5v28.7h9.3
		V32.2h10.5V24h-30.3V32.2z M323.8,44.3c0,4.9-2.8,10-8.7,10c-6,0-7-5.5-7-9.8V24h-9.3v23c0,7.5,4,14.9,13.8,14.9
		c5.5,0,10-3.3,11.6-7h0.2v5.9h8.9V24h-9.3L323.8,44.3L323.8,44.3z"/>
</g>
</svg>
