<?xml version="1.0" encoding="utf-8"?>
<!-- Generator: Adobe Illustrator 23.0.3, SVG Export Plug-In . SVG Version: 6.00 Build 0)  -->
<svg version="1.1" id="Layer_1" xmlns="http://www.w3.org/2000/svg" xmlns:xlink="http://www.w3.org/1999/xlink" x="0px" y="0px"
	 viewBox="0 0 204 59" style="enable-background:new 0 0 204 59;" xml:space="preserve">
<g>
	<g>
		<path d="M105.9,42.5c0-1.4-0.6-1.9-1.7-1.9c-1,0-1.7,0.4-2.1,1.1l-0.8-0.7c0.6-0.9,1.6-1.4,3-1.4c1.6,0,2.9,0.9,2.9,3v4.4h-1.2
			l0.1-1.1c-0.5,0.7-1.3,1.2-2.4,1.2c-1.6,0-2.7-0.7-2.7-2.2c0-1.5,1.2-2.2,2.8-2.2h2.3L105.9,42.5L105.9,42.5z M103.7,43.6
			c-0.9,0-1.7,0.3-1.7,1.2c0,0.8,0.6,1.3,1.8,1.3c1.1,0,2.1-0.6,2.1-1.6v-0.9H103.7z"/>
		<path d="M109.8,39.7h1.2l0,1.6c0.5-1,1.5-1.7,2.8-1.7c2,0,3.5,1.6,3.5,3.8c0,2.2-1.6,3.8-3.5,3.8c-1.3,0-2.3-0.7-2.8-1.6v5.2h-1.2
			V39.7z M116.1,43.3c0-1.6-1-2.7-2.5-2.7c-1.5,0-2.6,1.1-2.6,2.7c0,1.6,1,2.7,2.6,2.7C115.1,46,116.1,44.9,116.1,43.3z"/>
		<path d="M119.6,39.7h1.2l0,1.6c0.5-1,1.5-1.7,2.8-1.7c2,0,3.5,1.6,3.5,3.8c0,2.2-1.6,3.8-3.5,3.8c-1.3,0-2.3-0.7-2.8-1.6v5.2h-1.2
			V39.7z M125.9,43.3c0-1.6-1-2.7-2.5-2.7c-1.6,0-2.6,1.1-2.6,2.7c0,1.6,1,2.7,2.6,2.7C124.9,46,125.9,44.9,125.9,43.3z"/>
		<path d="M129.5,34.3h1.2v12.6h-1.2V34.3z"/>
		<path d="M133.3,36.7c0-0.5,0.4-0.9,0.9-0.9c0.5,0,0.9,0.4,0.9,0.9c0,0.5-0.4,0.9-0.9,0.9C133.7,37.6,133.3,37.2,133.3,36.7z
			 M133.5,39.7h1.2v7.3h-1.2V39.7z"/>
		<path d="M142,42.5c0-1.4-0.6-1.9-1.7-1.9c-1,0-1.7,0.4-2.1,1.1l-0.8-0.7c0.6-0.9,1.6-1.4,3-1.4c1.6,0,2.9,0.9,2.9,3v4.4H142
			l0.1-1.1c-0.5,0.7-1.3,1.2-2.4,1.2c-1.6,0-2.7-0.7-2.7-2.2c0-1.5,1.2-2.2,2.8-2.2h2.3V42.5z M139.8,43.6c-0.9,0-1.7,0.3-1.7,1.2
			c0,0.8,0.6,1.3,1.8,1.3c1.1,0,2.1-0.6,2.1-1.6v-0.9H139.8z"/>
		<path d="M145.9,39.7h1.2l0,1.5c0.5-1,1.4-1.6,2.6-1.6c1.6,0,2.7,1.1,2.7,3v4.4h-1.2v-4.3c0-1.3-0.6-2-1.8-2
			c-1.4,0-2.3,0.9-2.3,2.3v4h-1.2L145.9,39.7L145.9,39.7z"/>
		<path d="M154.6,43.3c0-2.1,1.6-3.8,3.8-3.8c1.3,0,2.2,0.5,2.9,1.3l-0.9,0.7c-0.4-0.6-1.1-0.9-2-0.9c-1.6,0-2.5,1.2-2.5,2.7
			c0,1.5,1,2.7,2.5,2.7c1,0,1.6-0.4,2.1-0.9l0.8,0.7c-0.7,0.8-1.6,1.3-2.9,1.3C156.2,47.1,154.6,45.4,154.6,43.3z"/>
		<path d="M166.8,46c1.1,0,1.8-0.4,2.3-1l0.8,0.7c-0.7,0.8-1.6,1.3-3.1,1.3c-2.4,0-4-1.6-4-3.8c0-2.1,1.6-3.8,3.8-3.8
			c2.4,0,3.8,1.8,3.7,4.2h-6.2C164.2,45.1,165.2,46,166.8,46z M169,42.8c-0.1-1.2-0.9-2.2-2.4-2.2c-1.4,0-2.3,0.9-2.5,2.2H169z"/>
		<path d="M171.8,45.4l1-0.5c0.4,0.7,1.1,1.2,2.1,1.2c1,0,1.6-0.4,1.6-1.1c0-0.8-0.6-1-1.9-1.3c-1.1-0.3-2.2-0.8-2.2-2.2
			c0-1.3,1.1-2,2.4-2c1.1,0,1.9,0.5,2.4,1.2l-0.8,0.6c-0.4-0.5-0.9-0.8-1.6-0.8c-0.8,0-1.3,0.4-1.3,0.9c0,0.7,0.4,0.9,1.7,1.2
			c1.2,0.3,2.4,0.8,2.4,2.2c0,1.2-0.8,2.2-2.7,2.2C173.3,47.1,172.3,46.3,171.8,45.4z"/>
		<path d="M52.1,0.3C52.1,0.3,52.1,0.3,52.1,0.3c-2.5-0.9-3.8,0.1-4.7,2.5c-1,2.7-1.8,5.5-2.8,8.2c-1.8,4.9-4,9.7-6.8,14.2
			c-1.6,2.7-3.4,5.2-5.6,7.4c-0.8,0.8-1.8,2-3,2.2c-4.4,1-2.6-11.2-2.4-13.4c0.3-2.3,0.7-4.7,1.1-7c0.3-1.7,1-3.5,1-5.3
			c0-1.7-1.4-3-3.1-3.3c-0.5-0.1-2.8,2.9-3.2,3.3C17.9,15,13.9,20.7,9,27.1c-1,1.4-2.6,2.9-4.7,3.6c-0.9,0.3,0.3-3.9,0.8-5.2
			C6,23.1,9.3,15,11.2,9.7c0.5-1.4,0.5-3,0.2-4.4C11.1,4,9.7,3.4,8.5,3.7C6.5,4.1,6.7,5.6,6.7,7.3c0,2.1-0.5,4.1-1.1,6.1
			c-0.9,3.2-2.2,6.3-3.3,9.4C1.5,25.5,0.2,28.1,0,31c-0.1,1.5,0.1,5,2.1,5.2c2,0.2,4.3-1.6,5.6-2.8c1.5-1.3,2.7-3.2,4-4.9
			c2.8-3.7,5.1-7.6,8.1-11.2c1.6-1.9,3.3-3.7,5.3-5.2c0.1,6.9-3.2,15.9-1.8,23.1c0.3,1.6,1.7,4.6,4.5,4.6c2.5,0,5-1.7,6.5-3.5
			c3-3.6,5.1-6.6,7.8-11.1c1.8-3,3.3-6.6,4.8-9.9c1-2.2,1.9-4.4,2.7-6.7C50.4,6,51.3,3.2,52.1,0.3z"/>
		<path d="M56.8,9.5c-1,0.9-1.3,2.1-0.7,2.8c0.6,0.7,1.9,0.5,2.8-0.4c1-0.9,1.3-2.1,0.7-2.8C59.1,8.4,57.8,8.6,56.8,9.5z"/>
		<path d="M131,11.4c-1,0.9-1.3,2.1-0.7,2.8c0.6,0.7,1.9,0.5,2.8-0.4c1-0.9,1.3-2.1,0.7-2.8C133.3,10.4,132,10.5,131,11.4z"/>
		<path d="M199.4,14.7c-3.1-0.1-5.8,0.2-9.4,1.6c-3.5,1.4-6.2,4.7-8.7,7.6c-2.4,2.8-5.7,1.3-8.2-0.9c-2.4-2.2-7-7.3-9.1-7.3
			c-2.3-0.1-5.7,2.6-8.8,5.4c-3.1,2.8-1.4,1-2.6-3c-1.2-4-4.2,1.5-5.7,3.1c-4,4.2-5.8,5-8.1,5.3c-1.3,0.2-4.3-2.1-5.6-6.2
			c-1.4-4.7-2.9-3.1-3.2-2.8c-2.3,2.4-3,4.8-5.3,7.4c-2.3,2.6-5.1,1-6.2-0.2c-1.1-1.2-1.8-3.3-4.3-7c-2.7-3.9-6.1,2.5-8,4.8
			c-1.3,1.5-1.3,0.2-1-2.2c0.3-2.4-2.1-2.7-3.4-2.1c-1.2,0.6-4.2,3-5.8,4.2c-1.7,1.2-6.5,5.4-8.3,3.2c-1.2-1.4-1.5-6-4-7.5
			c-2.5-1.5-5.5,0.8-6.7,1.7c-1.3,1-2.8,2.3-4.3,3.2c-0.9,0.6-1.4,0.3-0.8-1.8c0.6-2.1-2-1.6-2.7-1.1c-0.7,0.5-1.9,1.5-3.5,2.8
			c-1.8,1.4-3.2,2.4-4.1,2.7c-0.9,0.3-2.5,0.4-3-0.5c-1.4-3-1-6.5-0.9-7.8c0.1-1.3-1.1-3-3.3-0.6c-2.2,2.4-5,7-5,7s-1.9,3.1-0.8,3.1
			c1.1,0,2.9-3.1,4.1-4.4c1.2-1.3,1.2-0.2,1.4,2.1c0.2,2.3,1.9,4,5.1,3.4c2.1-0.4,5.8-3.1,7.9-5c2.1-1.9,2.1-0.6,1.5,0.6
			c-0.2,0.4-0.7,2.4,0.1,3.2c1.4,1.3,3.5,0.6,5.7-0.3c2.2-0.9,4.6-3.4,6.4-5.1c1.9-1.7,1.6,0.1,1.6,1c0,0.9,0.3,2.9,1.5,4.4
			c1.3,1.5,5.3,1.7,8.6-0.5c3.4-2.3,5.6-4.5,7.1-5.2c1.5-0.7,1,1.4,0.8,2c-0.5,1.2-1.5,2.6-1.1,3.7c0.5,1.2,2.5,1.7,3.7,1.5
			c1.2-0.1,2.4-0.9,3.4-1.7c1.8-1.5,2.4-2.7,4.1-4.6c1.5-1.5,2.3-0.9,3.9,2.5c1.6,3.5,3,3.8,6.2,3.7c3.2-0.1,4.2-2.2,6.6-4.7
			c2.3-2.6,2.7,0.3,4.7,3.4c2,3.1,5.2,2.1,8.4,0.7c3.3-1.4,5.1-3.3,7.3-5.4c2.1-1.9,0.5,1.3-0.5,4.9c-1,3.5,3.8,1.6,6.4-0.4
			c2.5-2,3.6-3.7,6.3-6c2.6-2.3,4.1-2.7,6.6,0.3c2.8,3.5,7,7.1,9.3,7c1.9-0.1,3-0.4,4.2-2c1.1-1.4,1.6-2,1.8-0.9
			c0.2,1.1,1.3,3.2,3.8,3.5c2.5,0.4,4.6,0.1,7.2-1.9c2.6-1.9,4.3-3.2,4.3-3.2s0.5,4.4,0.2,11c-0.3,6.6-0.4,8.3-2.1,14.3
			c-1.4,5-4,9.3-6.8,8.7c-2.8-0.6-3.9-3.9-2.5-7.6c1.1-3.1,2.8-6,4.3-9.1c1.1-2.3,3.3-6.3,1.6-6.9c-1.2-0.4-3.4,4-4.8,6.8
			c-1.3,2.9-2.3,4.7-3.8,9.2c-1.7,5.2,2.4,9.8,6.5,8.6c3.8-1.1,7-5.5,8.9-11.7c2.1-6.7,1.9-13.6,1.7-18.2c-0.1-4.5-0.3-7.3,1-10
			c1.3-2.8,2.1-1.6,2.5-2.2C204.3,16,202.6,14.8,199.4,14.7z M194,22.8c-1.3,0.9-3.1,2.4-5.3,3c-2.2,0.6-3.8-0.4-3-2.2
			c0.9-1.8,2.2-3.2,3.7-4.2c2.4-1.6,4.7-1.9,5.7-1.9c1,0,2.5,0,2.6,1C197.8,19.7,195.5,21.8,194,22.8z"/>
	</g>
</g>
</svg>
