<?xml version="1.0" encoding="utf-8"?>
<!-- Generator: Adobe Illustrator 23.0.3, SVG Export Plug-In . SVG Version: 6.00 Build 0)  -->
<svg version="1.1" id="图层_1" xmlns="http://www.w3.org/2000/svg" xmlns:xlink="http://www.w3.org/1999/xlink" x="0px" y="0px"
	 viewBox="0 0 508.1 158.9" style="enable-background:new 0 0 508.1 158.9;" xml:space="preserve">
<g>
	<path d="M434.2,3.4h27.1c8.5,0,13.3-0.1,17.4,0.7c6.1,1.2,10.4,3.6,13.4,7.1c2.6,3.1,3.8,6.6,4.3,10.9c0.4,3.5,0,10.5-2.4,14.7
		c-2.6,4.4-9.3,8.2-19.8,8.9l28.2,25.6h-11.9l-27.7-25.2h-17.2v25.2h-11.2V3.4 M445.5,11.5v26.7l21.5,0.1c5.1,0,8.9-0.4,11.4-1.2
		c2.5-0.8,5.8-2.1,7.2-5.4c0.9-2.1,0.7-6.5,0.7-9c-0.1-2.2-0.7-4.2-2.1-6c-1.4-1.8-3.2-3.1-5.5-3.9c-2.3-0.8-6-1.2-11.3-1.2H445.5"
		/>
	<path d="M406.3,10.8C399.2,3.6,390.3,0,379.6,0c-6.6,0-12.7,1.7-18.3,5c-5.6,3.3-10.1,7.9-13.4,13.7c-3.3,5.8-4.9,12.2-4.9,19
		c0,10.3,3.6,19,10.8,26.2c7.2,7.2,16,10.8,26.4,10.8c10.3,0,19-3.6,26.2-10.9c7.1-7.3,10.7-16.1,10.7-26.5
		C417.1,26.8,413.5,18,406.3,10.8 M403.3,51.3c-2.3,4.2-5.6,7.5-9.8,9.9c-4.2,2.4-8.7,3.6-13.6,3.6c-7.3,0-13.6-2.6-18.8-7.8
		c-5.2-5.2-7.8-11.7-7.8-19.3c0-5.1,1.2-9.8,3.5-14c2.3-4.2,5.6-7.5,9.8-10c4.2-2.5,8.6-3.7,13.3-3.7c4.8,0,9.3,1.2,13.5,3.7
		c4.2,2.5,7.5,5.8,9.9,9.9c2.3,4.1,3.5,8.7,3.5,13.8C406.8,42.5,405.6,47.1,403.3,51.3"/>
	<polyline points="0.6,3.5 65.9,3.5 59.3,12.6 12.5,12.6 12.5,32.7 53,32.7 53,41.2 12.5,41.2 12.5,61.9 58.5,61.9 65.5,71.2 
		0.6,71.2 0.6,3.5 	"/>
	<polyline points="281.1,3.9 292.7,3.9 292.7,62.9 329.9,63 335.8,71 281.1,71 281.1,3.9 	"/>
	<rect x="243.3" y="3.9" width="11.2" height="67.5"/>
	<path d="M194.5,32.6c-12.7-3.8-18.4-6.6-18.4-13.1c0-5.3,5.1-10.6,16.5-10.6c8.5,0,15.3,2.4,18.8,4l3.4-7.8c-5.5-2.5-13.6-4-21.8-4
		c-18.3,0-31.6,8.4-31.6,20.1c0,8.4,8.2,14.9,24.4,19.4c13.3,3.8,18,7.4,18,13.8c0,7.2-7.1,11.5-19,11.5c-8.2,0-16.8-2.4-22.3-4.7
		l-3.4,8.1c7,2.9,16.1,4.6,25.3,4.6c20.7,0,34.1-8.1,34.1-20.6C218.6,43.5,211.4,37.4,194.5,32.6"/>
	<path d="M119.4,32.6C106.7,28.8,101,26,101,19.5c0-5.3,5.1-10.6,16.5-10.6c8.5,0,15.3,2.4,18.8,4l3.4-7.8c-5.5-2.5-13.6-4-21.8-4
		c-18.3,0-31.6,8.4-31.6,20.1c0,8.4,8.2,14.9,24.4,19.4c13.3,3.8,18,7.4,18,13.8c0,7.2-7.1,11.5-19,11.5c-8.2,0-16.8-2.4-22.3-4.7
		L84,69.2c7,2.9,16.1,4.6,25.3,4.6c20.7,0,34.1-8.1,34.1-20.6C143.5,43.5,136.3,37.4,119.4,32.6"/>
	<path d="M507.7,100.5l0.5,0h-1c-293.8-7.8-493.7-0.5-506.5,0H0l0.3,0l-0.3,0h0.6c12.1,0.5,212.2,8.9,506.7,0h0.9L507.7,100.5"/>
	<g>
		<path d="M47.6,139.3l-1.4,2.3c-1.8-1.1-3.7-1.7-5.6-1.7c-2.6,0-4.4,1.1-4.4,3c0,1,0.6,1.8,1.9,2.3c0.5,0.2,0.7,0.4,1.7,0.6
			l2.8,0.8c1.6,0.4,3.2,1.2,4.1,2.1c0.9,0.9,1.5,2.3,1.5,3.7c0,2.1-1.3,4.2-3.4,5.3c-1.4,0.8-3.2,1.2-5.2,1.2
			c-2.7,0-5.4-0.7-7.6-1.9l1.3-2.5c2.2,1.2,4.2,1.7,6.5,1.7c1.5,0,2.4-0.2,3.3-0.8c1-0.6,1.6-1.5,1.6-2.6c0-1.6-1.1-2.7-4-3.4
			l-3-0.8c-3-0.7-4.9-2.8-4.9-5.3c0-3.6,3.2-6,7.6-6C43,137.3,45.8,138.1,47.6,139.3"/>
	</g>
	<polyline points="54.3,137.9 67.2,137.9 66.7,140.5 57.5,140.5 57.5,146.4 65.2,146.4 65.2,149 57.5,149 57.5,155.7 67.5,155.7 
		67.5,158.4 54.3,158.4 	"/>
	<polyline points="73.3,137.9 86.2,137.9 85.7,140.5 76.5,140.5 76.5,146.4 84.2,146.4 84.2,149 76.5,149 76.5,155.7 86.5,155.7 
		86.5,158.4 73.3,158.4 	"/>
	<rect x="92.4" y="137.8" width="3.2" height="20.6"/>
	<path d="M102.9,137.8h3.6l6.7,11.2c1.3,2.2,2.5,4.7,2.6,4.8c0,0-0.3-2.9-0.4-5.6l-0.1-10.4h3.1v20.6h-3.3l-6.6-10.9
		c-1.3-2.1-2.9-5.4-2.9-5.4c0.1,0.8,0.2,2.7,0.2,5.7l0.2,10.6h-3.2"/>
	<path d="M140.9,139.8l-1.5,2c-1.6-1-2.8-1.6-5-1.6c-2.7,0-4.7,1.1-5.5,3c-0.6,1.4-0.9,3.2-0.9,5.2c0,3.6,1,5.8,3,6.9
		c1.1,0.6,2.6,1,4.1,1c1.3,0,2.5-0.2,3.4-0.7V150h-4.5l-0.5-2.6h8.1v9.8c-1.8,1.1-4.1,1.7-6.6,1.7c-3.2,0-5.7-1-7.5-2.8
		c-1.9-1.9-2.8-4.4-2.8-7.9c0-4.1,1.3-6.9,3.9-8.7c1.7-1.2,3.6-1.7,6-1.7C136.8,137.6,138.8,138.2,140.9,139.8"/>
	<polyline points="159.2,137.8 174.9,137.8 174.6,140.5 168.4,140.5 168.4,158.4 165.3,158.4 165.3,140.5 159.2,140.5 	"/>
	<polyline points="179.8,137.8 182.9,137.8 182.9,146.2 192.1,146.2 192.1,137.8 195.2,137.8 195.2,158.4 192.1,158.4 192.1,148.8 
		182.9,148.8 182.9,158.4 179.8,158.4 	"/>
	<polyline points="202.7,137.9 215.5,137.9 215.1,140.5 205.8,140.5 205.8,146.4 213.6,146.4 213.6,149 205.9,149 205.9,155.7 
		215.8,155.7 215.8,158.4 202.7,158.4 	"/>
	<path d="M232.9,137.8h3.4l2.6,9.9c0.9,3.2,1.2,5.7,1.4,6.9c0,0,0.7-3.7,1.5-6.8l2.6-10.1h3.6l2.8,10.5c0.7,2.8,1.4,6,1.4,6.2
		c0,0,0.6-3.4,1.4-6.6l2.6-10.2h3.2l-5.4,20.7h-3.9l-2.5-9.6c-0.8-3.1-1.4-6.7-1.4-6.7s-0.7,3.6-1.4,6.4l-2.4,9.8h-3.9"/>
	<path d="M273,137.5c3.3,0,5.7,1.3,7.4,3.3c1.5,1.8,2.2,4.1,2.2,7.5c0,3.5-0.6,5.6-2.1,7.4c-1.8,2.2-3.9,3.1-7.3,3.1
		c-3.1,0-5.1-0.8-6.8-2.7c-1.9-2.1-2.8-4.6-2.8-8C263.6,141.5,267.2,137.5,273,137.5 M272.9,140c-1.9,0-3.7,0.8-4.5,2.1
		c-0.8,1.2-1.2,3-1.2,5.5c0,2.9,0.5,5.1,1.4,6.6c0.8,1.3,2.5,2.1,4.7,2.1c2.5,0,4.2-1,5-2.9c0.6-1.3,0.8-2.6,0.8-4.8
		c0-2.8-0.3-4.5-1-5.9C277,140.8,275.2,140,272.9,140"/>
	<path d="M288.6,137.8h5.5c3.4,0,4.7,0.3,5.9,1.1c1.5,0.9,2.5,2.7,2.5,4.7c0,3.6-2.3,5.8-6.2,5.8c0.5,0.3,0.8,0.5,1.1,0.9
		c0.6,0.8,1.9,2.4,3.1,3.9c1.2,1.6,3.3,4.3,3.3,4.3h-3.9c-0.6-1.2-0.9-1.7-1.9-3.1c-1.5-2.3-2.8-3.9-3.9-4.9c-0.8-0.7-1.4-0.9-2.3-1
		v9h-3.2 M291.7,140.4v6.8h2.1c2.2,0,3.4-0.2,4.3-0.9c0.7-0.6,1.1-1.5,1.1-2.6c0-1.4-0.8-2.4-2.2-2.9c-0.7-0.2-1.7-0.4-2.9-0.4
		H291.7z"/>
	<polyline points="309.5,137.8 312.7,137.8 312.7,155.8 321.7,155.8 321.3,158.4 309.5,158.4 	"/>
	<path d="M326.9,137.9h4.7c1.4,0,2.8,0.1,3.7,0.2c1.7,0.2,3.3,0.9,4.7,2.1c2.2,1.9,3.1,4.2,3.1,8c0,6.9-4.5,9.9-7.4,10.1
		c-0.7,0.1-1.7,0.1-2.8,0.1h-6 M330,140.5v15.3h2.5c1.3,0,1.8,0,2.6-0.2c2.5-0.6,4.5-2.5,4.5-7.2c0-2.9-0.6-4.7-1.9-6
		c-1.4-1.5-2.9-1.8-5.2-1.8H330z"/>
	<path d="M363.1,137.8h5.3c3.6,0,4.2,0.1,5.3,0.4c2.3,0.8,3.9,2.6,3.9,4.7c0,1.3-0.6,2.5-1.7,3.4c-0.7,0.6-1.2,0.8-2.4,1.1
		c1.6,0.3,2.2,0.5,3,1.1c1.3,0.9,2.1,2.5,2.1,4.1c0,2.2-1.6,4.3-3.9,5.2c-1.3,0.5-1.9,0.6-5.6,0.6h-6 M366.1,140.5v5.9h3.8
		c2.3,0,3.1-0.4,3.8-1.5c0.2-0.4,0.4-0.9,0.4-1.4c0-1.4-0.9-2.4-2.4-2.8c-0.8-0.2-1.2-0.2-2.4-0.2H366.1z M366.1,149v6.8h3.9
		c1.5,0,2.6-0.2,3.3-0.4c1.1-0.4,1.8-1.7,1.8-2.9c0-1.6-1.1-2.9-2.6-3.2c-0.6-0.2-1.4-0.2-2.4-0.2H366.1z"/>
	<polyline points="384.6,137.9 397.5,137.9 397,140.5 387.8,140.5 387.8,146.4 395.5,146.4 395.5,149 387.8,149 387.8,155.7 
		397.8,155.7 397.8,158.4 384.6,158.4 	"/>
	<polyline points="401.3,137.8 417.1,137.8 416.7,140.5 410.5,140.5 410.5,158.4 407.4,158.4 407.4,140.5 401.3,140.5 	"/>
	<polyline points="419.8,137.8 435.6,137.8 435.2,140.5 429,140.5 429,158.4 425.9,158.4 425.9,140.5 419.8,140.5 	"/>
	<polyline points="440.6,137.9 453.4,137.9 453,140.5 443.7,140.5 443.7,146.4 451.5,146.4 451.5,149 443.8,149 443.8,155.7 
		453.8,155.7 453.8,158.4 440.6,158.4 	"/>
	<path d="M459.5,137.8h5.5c3.4,0,4.7,0.3,5.9,1.1c1.5,0.9,2.5,2.7,2.5,4.7c0,3.6-2.3,5.8-6.2,5.8c0.6,0.3,0.8,0.5,1.1,0.9
		c0.6,0.8,1.9,2.4,3.1,3.9c1.2,1.6,3.3,4.3,3.3,4.3h-3.9c-0.6-1.2-0.9-1.7-1.9-3.1c-1.5-2.3-2.8-3.9-3.9-4.9c-0.8-0.7-1.4-0.9-2.3-1
		v9h-3.2 M462.6,140.4v6.8h2.1c2.2,0,3.4-0.2,4.3-0.9c0.7-0.6,1.1-1.5,1.1-2.6c0-1.4-0.8-2.4-2.2-2.9c-0.7-0.2-1.7-0.4-2.9-0.4
		H462.6z"/>
</g>
</svg>
