<?xml version="1.0" encoding="utf-8"?>
<!-- Generator: Adobe Illustrator 23.0.3, SVG Export Plug-In . SVG Version: 6.00 Build 0)  -->
<svg version="1.1" id="Layer_1" xmlns="http://www.w3.org/2000/svg" xmlns:xlink="http://www.w3.org/1999/xlink" x="0px" y="0px"
	 viewBox="0 0 900 840.5" style="enable-background:new 0 0 900 840.5;" xml:space="preserve">
<g id="oFJ2y3_1_">
	<g>
		<path d="M900,505.2c0,2.7,0,5.3,0,8c-15.5,0-31,0.1-46.5,0c-3.2,0-4.5,0.9-5.5,4c-5.1,16.3-10,32.7-15.9,48.7
			c-11.8,31.9-28.3,61.6-47.7,89.5c-21.6,31-47,58.7-75.8,83.1c-23.7,20.1-49.3,37.3-76.7,51.8c-31.7,16.7-65,29.2-99.8,37.8
			c-27.1,6.7-54.7,10.6-82.6,12c-32.8,1.6-65.4-0.8-97.7-6.8c-28-5.1-55.2-12.9-81.6-23.4c-39.7-15.9-76.4-37.3-109.9-64
			c-31.1-24.9-58.4-53.5-81.6-85.8c-21.8-30.4-39.5-63-52.8-98c-9.9-25.9-17.2-52.6-22-79.9c-1.3-7.6-2.6-15.3-3.9-22.9
			c0-62.7,0-125.3,0-188c0.3-0.7,0.8-1.4,0.9-2.2c9.9-45.9,36.1-76.4,82.8-87.3c3.4-0.8,5.5-2.2,7.4-4.9
			c27-38.7,59.5-71.9,97.9-99.5C230.7,47.3,276.4,26,326.1,13C353,6,380.4,1.9,408,0.5c22.4-1.2,44.8-0.2,67.2,2.3
			c33,3.8,65.1,11.2,96.1,22.7c49.5,18.3,94,45.3,133,80.8c45.1,41.1,79.9,89.7,103.3,146.3c1.3,3.2,3.2,4.8,6.6,5.6
			c22.2,5.5,39.5,18.3,51.4,37.5c23.2,37.6,14.5,87.8-22.9,114.6c-1.9,1.4-3.4,4.4-3.6,6.9c-0.7,6.9-0.9,13.9-0.9,20.9
			c0,1.6,1,3.4,2.1,4.7c5.3,5.8,10.7,11.4,16.1,17.1C871,475,885.5,490.1,900,505.2z M174.7,239.8c-7.5-7-14.5-14.3-22.3-20.7
			c-17.8-14.5-38.1-22.1-61.2-18.5c-34.1,5.2-55.3,26.3-67.1,57.7c-6.4,16.9-6.6,34.9-7,52.6c-0.6,32.8-0.4,65.7-0.1,98.5
			c0.1,12.8,1,25.6,2.1,38.3c2.3,26,7.4,51.5,14.7,76.5c10.9,37.4,26.9,72.4,47.8,105.2c22.2,34.7,49,65.4,80.3,92.2
			c35.8,30.6,75.7,54.4,119.7,71.4c37.5,14.5,76.4,23.3,116.5,26.1c36.2,2.5,72.1,1,107.8-5.8c35.2-6.7,69-17.7,101.3-33.2
			c32.6-15.6,62.6-35.1,90-58.5c28.1-24,52.6-51.3,73.4-81.9c24.5-36.1,43.1-75.1,55.1-117.1c2.7-9.5,5.1-19.1,7.7-29.1
			c8.8,0,17.5,0,27.6,0c-23.5-24.7-46-48.4-68.9-72.4c-22.5,24-44.9,47.8-68.2,72.7c7.7,0,14,0,20.6,0c-1.7,5.8-3.1,11-4.7,16
			c-11.3,33.8-27.5,65.1-48.9,93.7c-22.7,30.3-49.8,55.8-81.3,76.7c-24.6,16.3-51,29-79.1,38.1c-29.2,9.5-59.2,14.8-89.8,15.6
			c-12,0.3-24,0.3-35.9-1c-18.3-2-36.7-4-54.5-8.4c-41.7-10.2-80-28.4-114.6-54c-25.6-18.9-48-41.1-67.2-66.5
			c-23.9-31.8-41.4-66.8-52.5-105c-6.5-22-11.3-44.6-12-67.4c-1.2-38.5-0.6-77-0.6-115.4c0-6.5-0.7-13.3,3.1-19.4
			c2.9-4.7,6.6-8.1,12.4-7.8c5.4,0.2,8.6,3.8,11.1,8.1c4.2,7.2,5,15,5.1,23.1c0.2,29.8,0.5,59.6,0.7,89.4c0,1.8,0,3.5,0,5.2
			c27,0,53.3,0,79.9,0c0-15.5,0.1-30.6,0-45.7c-0.1-14.5-0.6-28.9-0.9-43.4c-0.2-9.6-0.6-19.3,3.6-28.4c4.2-9.1,13.7-10.9,19.8-3.1
			c3,3.9,5.7,9,6.3,13.8c1.7,12.7,2.8,25.5,3.1,38.2c0.5,21.2,0.2,42.3,0.1,63.5c0,4.1,1.2,5.4,5.4,5.4c25.3-0.2,50.7-0.1,76-0.1
			c1.5,0,2.9-0.2,4.9-0.3c0-6.2,0-12.1,0-18.1c-0.2-36.5-0.1-73-0.7-109.5c-0.3-20.8-6.9-39.7-19.4-56.5
			c-23.6-31.8-71.1-41.7-104.5-21.1C196.2,217.9,184.6,228.1,174.7,239.8z M446.3,155.8c76.5-7.2,144.3,13.1,204.5,58.2
			c7.4-16.9,14.7-33.6,22.3-51c0.3,0.4,0-0.1-0.5-0.6c-20-20.4-41.9-38.4-66.6-52.8c-31-18.1-64-30.2-99.8-34.6
			c-4.8-0.6-7,1.1-9.6,3.9c-15.7,16.9-28.4,35.9-39.5,56.1C453.4,141.5,450.1,148.3,446.3,155.8z M445.9,287.3
			c-8.6-13.3-48.4-15.2-71.7,4.7c-26.5,22.7-32,62-11.2,90.3c10.7,14.6,25.1,24.1,43.1,26.2c13.3,1.5,27.2,1.9,39.3-6.9
			c0.2,2.1,0.5,4,0.7,6c13,0,25.9,0,38.7,0c0-42.7,0-84.9,0-127.2c-13.1,0-25.9,0-38.8,0C445.9,282.6,445.9,284.6,445.9,287.3z
			 M793.1,406.2c36.3,0.2,65.7-29.1,65.6-65.6c-0.1-37.2-30.1-65.3-65.4-65.4c-36-0.1-66,28.3-65.9,65.9
			C727.5,377.7,757.1,406.3,793.1,406.2z M713.4,325.2c-2.4-6.8-3.7-13.1-6.7-18.4c-8.1-14.8-21.2-23.6-37.2-27.9
			c-17.8-4.8-35.7-4.7-51.6,5c-25.8,15.7-37.2,39.4-33.9,69.6c2.8,26,18.9,41.9,41.8,51.3c17.3,7.1,35.2,5.9,52.5-1
			c19.1-7.7,31.8-21.1,35.5-42.1c-0.7-0.2-1.1-0.6-1.6-0.6c-12.5-0.1-25-0.1-37.5,0c-1.4,0-3,1.1-4.1,2.2
			c-8.4,8.2-22.5,10.4-32.8,4.9c-12-6.3-17.1-16.5-14.9-29.6c1.8-11.2,8.3-18,18.9-21.6c10.4-3.5,19.5-1.8,27.6,5.7
			c1.2,1.1,3,2.4,4.6,2.4C686.4,325.3,698.8,325.2,713.4,325.2z M577,313.8c0-9-0.1-18.7,0.1-28.3c0.1-4.1-2.1-5.8-5.5-5.2
			c-4.4,0.7-8.7,2-12.8,3.7c-5.3,2.3-10.2,5.3-16,8.4c0-4.4,0-8.1,0-11.8c-13.1,0-25.6,0-38.1,0c0,42.6,0,84.9,0,127.1
			c13.9,0,27.5,0,41.3,0c0-23.4,0.1-46.4-0.1-69.4c-0.1-9.9,4.6-16.6,13.4-20.1C564.6,316.1,570.4,315.4,577,313.8z"/>
		<path d="M417.8,314.7c15-0.1,27.7,13,27.7,28.6c0,14.8-12.3,27.3-27.2,27.3c-14.8,0.1-26.9-12.1-27.4-26.5
			C390.4,327.9,404.5,314.4,417.8,314.7z"/>
		<path d="M819,340.7c0,14.1-11,25.2-25.2,25.2c-14.3,0.1-25.5-11.3-25.5-25.7c0-14.4,11.2-25.3,25.7-25.5
			C806.6,314.6,820,325.8,819,340.7z"/>
	</g>
</g>
</svg>
