<?xml version="1.0" encoding="utf-8"?>
<!-- Generator: Adobe Illustrator 23.0.3, SVG Export Plug-In . SVG Version: 6.00 Build 0)  -->
<svg version="1.1" id="Layer_1" xmlns="http://www.w3.org/2000/svg" xmlns:xlink="http://www.w3.org/1999/xlink" x="0px" y="0px"
	 viewBox="0 0 147.6 87.4" style="enable-background:new 0 0 147.6 87.4;" xml:space="preserve">
<title>Ventures-Logos/Ware2Go</title>
<desc>Created with Sketch.</desc>
<g>
	<g id="Asset-1" transform="translate(50.597033, 81.000000)">
		<polygon id="Shape" points="3.6,-41.9 -3.8,-67.4 -10.3,-67.4 -17.8,-41.9 -23.4,-67.4 -32.2,-67.4 -21.9,-26.3 -13.8,-26.3 
			-7.1,-53.4 -0.3,-26.3 7.5,-26.3 17.7,-67.4 9.2,-67.4 		"/>
		<path d="M83.9-81H-50.6L-34-12.7H83.9c7.2,0,13.1-5.9,13.1-13.1v-42.2C97-75.1,91.2-81,83.9-81z M88.9-25.8c0,2.7-2.2,5-5,5H-27.6
			l-12.7-52.1H83.9c2.7,0,5,2.2,5,5V-25.8z"/>
		<path d="M73.7-67.4H60.2c-4.8,0-8.1,3.3-8.1,8v25.1c0,4.8,3.3,8,8.1,8h13.5c4.8,0,8.1-3.3,8.1-8v-15H66v7.3h7.5v6
			c0,1.2-0.7,1.9-1.9,1.9h-9.4c-1.3,0-1.9-0.7-1.9-1.9v-21.9c0-1.2,0.7-1.9,1.9-1.9h9.4c1.3,0,1.9,0.7,1.9,1.9v3.7h8.2v-5.3
			C81.8-64.1,78.5-67.4,73.7-67.4z"/>
		<path d="M38.6-67.4H23.1l-1.9,7.7h15.2c1.5,0,2.3,0.8,2.3,2.3v3.5c0,1.5-0.8,1.8-2.3,2.3l-9.8,3.4c-4.3,1.5-8.2,3.6-8.2,8.2v13.8
			h28.6l0-12.7h-7.7v4.9H26.5v-4.2c0-1.5,0.8-1.8,2.3-2.3l9.8-3.4c4.3-1.5,8.2-3.6,8.2-8.2v-7.1c0-2.2-0.9-4.3-2.4-5.8
			C42.9-66.6,40.8-67.4,38.6-67.4z"/>
		<path d="M-19.2-5.7l-3.6,9.3h1.3l1-2.8h3.9l1.1,2.8h1.4l-3.8-9.3H-19.2z M-20.1-0.2l1-2.7c0.2-0.6,0.4-1.2,0.5-1.8
			c0.1,0.5,0.4,1.1,0.7,1.9l1,2.6H-20.1z"/>
		<path d="M-3.3-0.3c0,1.2-0.2,2-0.6,2.4c-0.4,0.4-1,0.6-1.9,0.6c-0.5,0-0.9-0.1-1.3-0.3c-0.4-0.2-0.6-0.5-0.8-0.9
			c-0.2-0.6-0.3-1.2-0.2-1.8v-5.4h-1.2v5.4C-9.4,0.5-9.3,1.3-9,2c0.2,0.6,0.7,1,1.2,1.3c0.7,0.3,1.4,0.5,2.1,0.5
			c0.8,0,1.5-0.1,2.2-0.5C-3,3-2.6,2.5-2.4,1.9C-2.1,1.2-2,0.5-2.1-0.3v-5.4h-1.2L-3.3-0.3z"/>
		<path d="M6.5-5.2C6.1-5.4,5.8-5.5,5.3-5.6C4.9-5.7,4.4-5.7,3.9-5.7H0.4v9.3h1.2v-3.8H4c1.3,0,2.2-0.3,2.7-0.8
			c0.5-0.5,0.8-1.3,0.8-2c0-0.4-0.1-0.9-0.3-1.3C7.1-4.6,6.8-4.9,6.5-5.2z M5.7-1.7C5.4-1.4,4.8-1.2,4-1.2H1.6v-3.3H4
			c0.4,0,0.8,0,1.2,0.1c0.3,0.1,0.6,0.3,0.8,0.5c0.2,0.3,0.3,0.6,0.3,1C6.3-2.5,6.1-2,5.7-1.7L5.7-1.7z"/>
		<path d="M14.9-1.3c-0.7-0.3-1.4-0.5-2.1-0.6c-1-0.2-1.6-0.4-1.9-0.7c-0.2-0.2-0.4-0.5-0.4-0.8c0-0.4,0.2-0.8,0.5-1
			c0.5-0.3,1.1-0.5,1.6-0.4c0.6,0,1.1,0.1,1.6,0.5C14.7-3.9,15-3.5,15-3L16.2-3c0-0.5-0.2-1-0.5-1.5c-0.3-0.4-0.7-0.8-1.2-1
			c-0.6-0.2-1.2-0.3-1.8-0.3c-0.6,0-1.2,0.1-1.7,0.3C10.5-5.3,10.1-5,9.8-4.6C9.6-4.2,9.4-3.7,9.4-3.3c0,0.4,0.1,0.8,0.3,1.2
			c0.2,0.4,0.6,0.7,1,0.9c0.6,0.3,1.2,0.5,1.8,0.6c0.6,0.1,1.1,0.3,1.7,0.5c0.3,0.1,0.6,0.3,0.8,0.5c0.2,0.2,0.3,0.5,0.3,0.8
			c0,0.3-0.1,0.6-0.3,0.8c-0.2,0.3-0.5,0.5-0.8,0.6c-0.4,0.1-0.8,0.2-1.2,0.2c-0.5,0-1-0.1-1.4-0.3c-0.4-0.1-0.7-0.4-0.9-0.7
			c-0.2-0.3-0.3-0.7-0.4-1.1L9.1,0.6c0,0.6,0.2,1.2,0.5,1.7c0.3,0.5,0.8,0.9,1.3,1.1c0.7,0.3,1.4,0.4,2.1,0.4c0.6,0,1.2-0.1,1.8-0.4
			c0.5-0.2,0.9-0.6,1.2-1C16.3,2,16.5,1.5,16.5,1c0-0.5-0.1-0.9-0.4-1.3C15.8-0.7,15.4-1.1,14.9-1.3z"/>
		<path d="M28.3,2.1c-0.5,0.4-1.1,0.6-1.8,0.6c-0.6,0-1.1-0.1-1.6-0.4C24.4,2,24,1.5,23.8,1c-0.2-0.7-0.4-1.4-0.3-2.1
			c0-0.6,0.1-1.2,0.3-1.8c0.2-0.6,0.5-1,1-1.4c0.5-0.4,1.2-0.5,1.8-0.5c0.6,0,1.1,0.1,1.5,0.5c0.5,0.4,0.8,0.9,0.9,1.5l1.2-0.3
			c-0.2-0.8-0.7-1.5-1.3-2c-0.7-0.5-1.5-0.7-2.3-0.7c-0.8,0-1.6,0.2-2.3,0.6c-0.7,0.4-1.2,0.9-1.6,1.6c-0.4,0.8-0.6,1.7-0.6,2.5
			c0,0.9,0.2,1.7,0.5,2.5c0.3,0.7,0.8,1.3,1.4,1.8c0.7,0.4,1.6,0.7,2.4,0.6c0.9,0,1.8-0.3,2.5-0.8c0.7-0.6,1.2-1.4,1.4-2.3l-1.2-0.3
			C29.1,1,28.8,1.7,28.3,2.1z"/>
		<path d="M35-3.3c-0.8,0-1.5,0.2-2.1,0.8c-0.7,0.6-1,1.5-1,2.8c0,1.1,0.3,2,0.9,2.6c0.6,0.6,1.4,0.9,2.3,0.9c0.6,0,1.1-0.1,1.6-0.4
			c0.5-0.3,0.9-0.7,1.1-1.2c0.3-0.6,0.4-1.3,0.4-2.1c0.1-0.9-0.3-1.8-0.9-2.5C36.6-2.9,35.8-3.3,35-3.3z M36.4,2.2
			C36,2.6,35.5,2.8,35,2.8s-1.1-0.2-1.4-0.6c-0.8-1.2-0.8-2.7,0-3.9c0.4-0.4,0.9-0.6,1.4-0.6s1.1,0.2,1.4,0.6
			C36.8-1.1,37-0.5,37,0.2C37,1.1,36.8,1.8,36.4,2.2z"/>
		<path d="M46.9-3.3c-0.9,0-1.6,0.4-2.1,1.2c-0.1-0.4-0.4-0.7-0.7-0.9c-0.4-0.2-0.8-0.3-1.2-0.3c-0.4,0-0.8,0.1-1.2,0.3
			c-0.3,0.2-0.6,0.5-0.8,0.8v-0.9h-1v6.7H41V0.1c0-0.5,0-0.9,0.2-1.4c0.1-0.3,0.3-0.6,0.6-0.8c0.3-0.2,0.6-0.3,0.9-0.3
			c0.3,0,0.7,0.1,0.9,0.4c0.2,0.3,0.3,0.7,0.3,1.1v4.4H45v-3.9c0-0.5,0.1-1.1,0.5-1.5c0.3-0.3,0.7-0.5,1.2-0.5
			c0.2,0,0.5,0.1,0.7,0.2c0.2,0.1,0.3,0.3,0.4,0.5c0.1,0.3,0.1,0.7,0.1,1v4.2H49V-1c0-0.6-0.1-1.2-0.5-1.7C48-3.1,47.5-3.3,46.9-3.3
			z"/>
		<path d="M55.6-2.8c-0.5-0.3-1-0.5-1.5-0.4c-0.4,0-0.8,0.1-1.1,0.3c-0.3,0.2-0.6,0.5-0.8,0.8v-0.9h-1v9.3h1.1V2.9
			c0.2,0.3,0.5,0.5,0.8,0.6c0.3,0.2,0.7,0.2,1,0.2c0.5,0,1.1-0.2,1.5-0.4C56,3,56.4,2.6,56.6,2.1C56.9,1.5,57,0.8,57,0.2
			c0-0.6-0.1-1.2-0.3-1.8C56.4-2.1,56.1-2.5,55.6-2.8z M55.3,2.2c-0.3,0.4-0.8,0.6-1.3,0.6c-0.5,0-1-0.2-1.3-0.6
			c-0.4-0.6-0.6-1.2-0.5-1.9c0-0.7,0.2-1.4,0.6-2C53-2.1,53.5-2.4,54-2.4c0.5,0,1,0.2,1.3,0.6c0.4,0.6,0.6,1.2,0.5,1.9
			C55.8,1.1,55.6,1.8,55.3,2.2z"/>
		<path d="M64.2,0.8v-1.5c0-0.4,0-0.7-0.1-1.1c-0.1-0.3-0.2-0.6-0.4-0.8C63.6-2.8,63.3-3,63-3.1c-0.5-0.1-0.9-0.2-1.4-0.2
			c-0.5,0-1,0.1-1.5,0.2c-0.4,0.1-0.7,0.4-1,0.7c-0.3,0.3-0.4,0.7-0.5,1.2L59.7-1c0.1-0.4,0.3-0.7,0.6-1c0.4-0.2,0.8-0.3,1.2-0.3
			c0.5,0,0.9,0.1,1.3,0.4c0.2,0.3,0.4,0.6,0.3,1c0,0,0,0.1,0,0.3c-0.7,0.2-1.3,0.3-2,0.4c-0.3,0-0.7,0.1-1,0.2
			c-0.3,0.1-0.6,0.2-0.8,0.4c-0.2,0.2-0.4,0.4-0.6,0.7c-0.2,0.3-0.2,0.6-0.2,0.9c0,0.5,0.2,1,0.6,1.4c0.5,0.4,1.1,0.6,1.7,0.5
			c0.4,0,0.9-0.1,1.3-0.2c0.4-0.2,0.9-0.4,1.2-0.8c0,0.3,0.1,0.6,0.2,0.9h1.2c-0.1-0.3-0.2-0.5-0.3-0.8C64.2,2.2,64.2,1.5,64.2,0.8z
			 M63.1,0.7c0,0.4,0,0.8-0.2,1.1c-0.2,0.3-0.4,0.6-0.8,0.8c-0.4,0.2-0.8,0.3-1.2,0.3c-0.4,0-0.7-0.1-1-0.3
			c-0.3-0.2-0.4-0.6-0.3-0.9c0.1-0.3,0.3-0.6,0.6-0.8c0.3-0.1,0.7-0.2,1-0.2c0.6-0.1,1.3-0.2,1.9-0.4L63.1,0.7z"/>
		<path d="M71.4-2.5C71.3-2.7,71-2.9,70.7-3c-0.4-0.2-0.7-0.2-1.1-0.2c-0.9,0-1.7,0.4-2.1,1.1v-1h-1v6.7h1.1V0
			c0-0.9,0.2-1.5,0.5-1.8c0.3-0.3,0.8-0.5,1.3-0.5c0.3,0,0.6,0.1,0.8,0.2c0.2,0.1,0.4,0.3,0.5,0.6c0.1,0.3,0.1,0.7,0.1,1v4.1h1.1
			v-4.1c0-0.4,0-0.8-0.1-1.1C71.7-1.9,71.6-2.2,71.4-2.5z"/>
		<path d="M77,0.8c-0.2,0.5-0.3,1-0.5,1.5c-0.1-0.5-0.3-1.1-0.5-1.6l-1.4-3.9h-1.2l2.6,6.8c0,0.1-0.1,0.2-0.1,0.3
			c-0.1,0.3-0.2,0.6-0.3,0.9c-0.1,0.1-0.2,0.3-0.4,0.4c-0.2,0.1-0.4,0.1-0.6,0.1c-0.2,0-0.4,0-0.7-0.1L74,6.2
			c0.2,0.1,0.5,0.1,0.8,0.1c0.3,0,0.7-0.1,0.9-0.3c0.3-0.2,0.5-0.5,0.7-0.8c0.2-0.5,0.5-1,0.6-1.5l2.6-6.9h-1.1L77,0.8z"/>
		<polygon points="79.9,-4.7 81.1,-4.7 81.1,-1.6 81.9,-1.6 81.9,-4.7 83.1,-4.7 83.1,-5.4 79.9,-5.4 		"/>
		<polygon points="85.8,-4 85.5,-3.1 85.4,-3.1 85.1,-4 84.6,-5.4 83.6,-5.4 83.6,-1.6 84.4,-1.6 84.4,-3.3 84.3,-4.6 84.3,-4.6 
			85.2,-2.2 85.7,-2.2 86.6,-4.6 86.6,-4.6 86.6,-3.3 86.6,-1.6 87.3,-1.6 87.3,-5.4 86.4,-5.4 		"/>
	</g>
</g>
</svg>
