<?xml version="1.0" encoding="utf-8"?>
<!-- Generator: Adobe Illustrator 23.0.3, SVG Export Plug-In . SVG Version: 6.00 Build 0)  -->
<svg version="1.1" id="Layer_1" xmlns="http://www.w3.org/2000/svg" xmlns:xlink="http://www.w3.org/1999/xlink" x="0px" y="0px"
	 viewBox="0 0 1000 201.7" style="enable-background:new 0 0 1000 201.7;" xml:space="preserve">
<style type="text/css">
	.st0{fill-rule:evenodd;clip-rule:evenodd;fill:#9C5C8F;}
	.st1{fill-rule:evenodd;clip-rule:evenodd;fill:#FFFFFF;}
	.st2{fill-rule:evenodd;clip-rule:evenodd;}
</style>
<g>
	<path class="st0" d="M2.5,19.2C7.2,8,18.8,0,31,0c91.9,0,183.7,0,275.6,0c8-0.2,15.9,2.8,21.8,8.2c6.7,6,10.6,15,10.4,24
		c0,35.2,0.1,70.4,0,105.6c-0.1,15.9-14,30.1-29.9,30.5c-33.5,0.1-67,0-100.5,0.1c4.5,11.1,9.1,22.2,13.6,33.3
		c-20-11-39.7-22.4-59.8-33.1c-44.1-0.4-88.2,0-132.3-0.2C14,168,0.2,153.8,0.1,137.9C0,103.4,0.1,68.9,0,34.5
		C-0.1,29.3,0.4,24,2.5,19.2L2.5,19.2z"/>
	<path class="st1" d="M137.2,21.8c5.1-5.4,14.7-3.7,18.5,2.5c2,3.2,2.2,7.5,0.6,10.9c-7.1,13.9-10,29.4-12.8,44.7
		c-3.2,19.9-5.9,40-4.9,60.2c0.3,5.1-2.2,11.4-7.7,12.6c-5.2,1.2-10-2.3-13.3-5.9c-15-16.1-23.5-37-29.6-57.9
		c-6.2,12.2-12.4,24.4-18.4,36.7c-4.2,8.3-8.6,16.8-15.3,23.4c-2.8,2.8-7.6,5.4-11.3,2.5c-5.5-4.8-6.9-12.5-9.2-19.1
		c-8.9-30.5-13.9-62-19-93.4c-1.2-5.2,1-11.5,6.2-13.6c4.2-1.6,9.6-1.8,13.2,1.3c2.5,2.2,3.2,5.7,3.7,8.8
		c3.6,24.3,7.9,48.4,13.8,72.3c10-19,20-38.1,30-57.1c1.5-2.8,3.3-5.6,6-7.3c3.7-2.3,9.1-2.2,12.1,1.1c2.6,2.7,3.4,6.4,4.1,10
		c3,15.7,7,31.3,12.9,46.3c2.5-22.5,5.6-45.3,13.8-66.5C132.6,29.9,134.2,25.4,137.2,21.8L137.2,21.8z M193.7,33.8
		c10.8-1.3,22.5,2.3,29.8,10.5c6,6.8,9.4,15.6,10.5,24.5c1.8,15.2-0.9,31.1-8.2,44.6c-4.1,7.7-9.6,15.1-17.2,19.6
		c-11.2,6.8-26.2,6-37-1.2c-8.6-5.9-13.5-16-15.5-26.1c-4-22.8,2.8-48.1,20.1-64C181,37.5,187.2,34.6,193.7,33.8L193.7,33.8z
		 M195.9,57.2c-5.2,1.7-8.5,6.5-11.3,10.9c-7,11.3-9,26.1-3.4,38.3c1.5,3.2,3.9,6.6,7.6,7.3c4,0.7,7.7-1.6,10.6-4.1
		c6.4-5.5,9.6-13.7,11.1-21.8c1.7-9.2,0.8-19.4-4.6-27.3C203.8,57.4,199.6,55.9,195.9,57.2L195.9,57.2z M280.3,33.8
		c10.6-1.3,22,1.9,29.4,9.8c6.6,7.1,10.2,16.7,11.2,26.3c1.6,14.7-1.2,30-8.1,43.1c-4.2,7.9-9.7,15.5-17.6,20.2
		c-10.8,6.4-25,5.9-35.6-0.5c-7.2-4.3-12-11.7-14.7-19.5c-7.6-23.8-1.2-51.8,16.2-69.7C266.3,38.3,273,34.7,280.3,33.8L280.3,33.8z
		 M282.6,57.3c-5.7,2-9.1,7.4-12,12.3c-6.4,11.2-7.9,25.7-2.2,37.5c1.6,3.3,4.3,6.6,8.2,6.7c4.2,0.2,7.9-2.5,10.8-5.3
		c6.4-6.3,9.3-15.4,10.4-24.1c1.1-8.2-0.3-17-5.1-23.9C290.6,57.3,286.3,55.9,282.6,57.3L282.6,57.3z"/>
	<path class="st2" d="M395.9,37c9.2-2,18.9-1.8,28.1,0.4c0,7.5,0,15,0,22.5c-7.5-1.8-15.9-3.5-23.2,0c-8.7,4.3-13.5,14.1-13.6,23.5
		c-0.5,9.4,2.6,19.9,11,25.2c7.7,5.1,17.4,4,25.8,1.6c0,7.5,0,15,0,22.5c-11.1,3.2-23.3,2.8-34.1-1.2c-13-4.9-23.4-16.1-27.4-29.5
		c-3-10.1-3.4-21.1-1-31.3C365.4,54.1,379.4,40.6,395.9,37L395.9,37z M463.6,35.8c11.3-1.3,23.7,0.5,32.8,7.7
		c8.8,6.9,13.2,17.9,14.8,28.7c1.6,11.8,1.2,24.1-2.4,35.5c-3.1,9.7-9.6,18.7-19,23.1c-9.5,4.5-20.6,4.8-30.8,2.5
		c-9.4-2.1-17.7-8.3-22.3-16.8c-6.5-11.3-7.6-24.8-7.1-37.6c0.5-11,3.3-22.6,10.7-31.1C446,41.1,454.6,36.9,463.6,35.8L463.6,35.8z
		 M467.1,57.4c-4.9,1.2-7.6,6-8.8,10.6c-2.4,8.9-2,18.4-1.4,27.5c0.6,4.9,1.1,10.4,4.6,14.3c4.7,5.3,14.1,4.6,18.4-0.8
		c2.8-3.5,3.6-8.1,4.2-12.4c0.9-7.7,1.1-15.6,0-23.2c-0.8-4.6-2.1-9.5-5.5-12.9C475.6,57.3,471,56.3,467.1,57.4L467.1,57.4z
		 M911.6,37.3c9.6-2.5,19.8-2.2,29.5-0.1c0.2,7.5,0,15.1,0.1,22.6c-7.4-1.8-15.5-3.4-22.7-0.2c-8.3,3.8-13.3,12.7-14,21.5
		c-1,10,1.7,21.4,10.5,27.2c7.7,5.3,17.7,4.3,26.2,1.8c-0.1,7.6,0.2,15.1-0.2,22.7c-11.8,3.1-24.7,2.7-36-2.2
		c-12.4-5.4-22-16.6-25.6-29.6c-2.7-10-3-20.8-0.5-30.8C882.8,54.4,895.9,41.4,911.6,37.3L911.6,37.3z M526.1,38.1
		c10.7,0,21.4,0,32.2,0c3.9,17.4,7.6,34.8,10.8,52.3c3.1-17.6,7.2-35,11.3-52.3c11,0,22,0,33,0c4.3,31.5,8.5,62.9,12.7,94.4
		c-8.4,0-16.8,0-25.2,0c-2.3-21.5-4.4-43.1-6.9-64.6c-5.1,21.6-10.5,43.1-15.7,64.6c-5.7,0-11.5,0-17.2,0
		c-5.5-21.6-10.9-43.2-16.5-64.8c-2.2,21.6-4.3,43.2-6.5,64.8c-8,0-16.1,0-24.1,0C518.1,101,522.1,69.5,526.1,38.1L526.1,38.1z
		 M641.5,38.1c10.7,0,21.4,0,32.2,0c3.9,17.4,7.5,34.8,10.8,52.2c3.1-17.6,7.2-34.9,11.3-52.3c10.9,0,21.9,0,32.8,0
		c4.3,31.5,8.5,62.9,12.7,94.4c-8.4,0-16.8,0-25.2,0c-2.3-21.6-4.5-43.1-6.8-64.7c-5.2,21.5-10.4,43.1-15.6,64.7
		c-5.7,0-11.5,0-17.2,0c-5.5-21.6-11-43.2-16.5-64.8c-2.2,21.6-4.3,43.2-6.5,64.8c-8,0-16.1,0-24.1,0
		C633.4,101,637.5,69.5,641.5,38.1L641.5,38.1z M748.5,38.4c17.2-0.4,34.4-0.1,51.7-0.2c0,6.7,0,13.4,0,20.1
		c-8.7,0.1-17.4,0-26.1,0.1c0,5.8,0,11.5,0,17.3c7.5,0,15,0,22.6,0c0,6.5,0,13,0,19.5c-7.5,0-15,0-22.6,0c0,5.8,0,11.5,0,17.3
		c8.7,0,17.5,0,26.2,0c0,6.7,0,13.4,0,20.1c-17.2,0-34.4,0-51.7,0C748.6,101.2,748.9,69.8,748.5,38.4L748.5,38.4z M807.6,38.1
		c10.8,0,21.6-0.1,32.3,0.1c10.2,0.3,20.9,2.9,28.5,10c6.8,6.4,9.2,16.8,6.6,25.6c-2.1,7.2-7.5,13-14.2,16.2
		c6.7,14.2,13.6,28.3,20.3,42.4c-9,0-17.9,0-26.9,0c-7-14.4-13.8-29-21-43.4c-0.2,14.5,0,28.9-0.1,43.4c-8.5,0-17,0-25.5,0
		C807.6,101,807.6,69.5,807.6,38.1L807.6,38.1z M833,56.2c0,7.5,0,15,0,22.5c4.6-0.3,9.6-0.5,13.5-3.3c4.5-3.3,4-10.2,1.2-14.4
		C844.2,56.7,838.1,56.6,833,56.2L833,56.2z M948.3,38.1c17.2,0,34.4,0,51.6,0c0,6.7,0,13.4,0,20.1c-8.7,0-17.4,0-26.2,0
		c0,5.7,0,11.5,0,17.2c7.5,0,15,0,22.6,0c0,6.5,0,13.1,0,19.6c-7.5,0-15,0-22.5,0c0,5.8,0,11.5,0,17.3c8.8,0,17.5,0,26.3,0
		c0,6.7,0,13.4,0,20.1c-17.2,0-34.4,0-51.6,0C948.3,101,948.3,69.5,948.3,38.1L948.3,38.1z"/>
</g>
</svg>
