<?xml version="1.0" encoding="utf-8"?>
<!-- Generator: Adobe Illustrator 23.0.3, SVG Export Plug-In . SVG Version: 6.00 Build 0)  -->
<svg version="1.1" id="Layer_1" xmlns="http://www.w3.org/2000/svg" xmlns:xlink="http://www.w3.org/1999/xlink" x="0px" y="0px"
	 viewBox="-352.746 -33.098 1000 175.213" enable-background="new -352.746 -33.098 1000 175.213" xml:space="preserve">
<g>
	<path fill="#00477E" d="M-252.518,103.857l28.311-136.955h29.84l-11.479,53.556h0.766c7.653-8.416,18.364-14.537,31.369-14.537
		c15.303,0,24.485,9.182,24.485,24.485c0,4.592-0.766,11.474-2.295,17.6l-11.477,55.086h-29.84l11.476-53.559
		c0.766-3.824,1.532-8.418,1.532-12.238c0-6.123-2.297-9.95-9.182-9.95c-9.182,0-19.129,10.711-22.953,28.308l-9.947,46.672h-30.606
		V103.857z M-93.373,142.115l20.658-97.938c2.295-10.711,4.59-26.014,6.121-35.959h26.014l-1.531,14.537h0.765
		c7.65-9.948,19.127-16.069,31.369-16.069c21.424,0,30.606,16.069,30.606,34.428c0,32.903-22.953,65.04-57.385,65.04
		c-7.65,0-13.771-1.531-17.595-3.828h-0.765l-8.416,39.79H-93.373z M-51.293,81.669c3.061,2.297,6.887,3.824,12.242,3.824
		c16.832,0,27.545-24.48,27.545-42.082c0-6.883-3.061-14.535-11.477-14.535c-9.947,0-19.892,10.711-22.953,27.543L-51.293,81.669z
		 M176.711-16.266l-5.355,25.248h21.421l-4.59,19.895h-20.66l-7.648,35.956c-0.766,3.828-1.531,7.657-1.531,10.715
		c0,5.356,2.297,7.652,8.418,7.652c2.293,0,5.355,0,7.652-0.765l-3.063,20.656c-3.829,2.297-11.477,3.063-17.598,3.063
		c-17.598,0-26.014-8.418-26.014-20.66c0-4.59,0.766-9.945,2.295-16.832l8.416-39.785h-13.006l4.59-19.895h13.008l3.827-17.598
		L176.711-16.266z M251.692,103.857c0-5.355,0.765-11.477,1.531-17.598h-0.766c-9.179,14.535-21.421,19.895-32.898,19.895
		c-17.598,0-29.074-13.008-29.074-31.371c0-35.961,16.832-65.801,70.386-65.801c11.476,0,24.485,2.297,32.137,4.592l-10.711,49.733
		c-2.293,12.242-4.59,30.606-4.59,42.082h-26.016V103.857z M260.871,29.64c-2.293-0.764-4.586-0.764-7.648-0.764
		c-22.187,0-32.133,21.421-32.133,40.551c0,9.179,3.058,15.3,11.477,15.3c8.414,0,19.125-9.945,22.953-31.371L260.871,29.64z
		 M355.746-16.266l-5.351,25.248h21.421l-4.594,19.895h-21.422l-7.648,35.956c-0.766,3.828-1.532,7.657-1.532,10.715
		c0,5.356,2.297,7.652,8.414,7.652c2.297,0,5.36,0,7.652-0.765l-3.058,20.656c-4.594,1.531-11.476,2.297-17.602,2.297
		c-17.593,0-26.012-8.419-26.012-20.661c0-4.59,0.766-9.945,2.293-16.832l8.418-39.785h-13.003l4.585-19.892h13.008l3.828-17.598
		L355.746-16.266z M543.965,103.857l13.774-64.27c2.297-11.477,3.824-22.187,5.355-30.606h26.012l-1.531,14.537h0.765
		C597.524,12.043,609,6.687,622.008,6.687c16.832,0,25.246,9.182,25.246,24.485c0,4.59-0.766,11.474-2.293,16.834l-11.477,55.851
		h-29.84l11.477-54.324c0.766-3.058,0.766-6.887,0.766-10.711c0-6.121-2.297-9.945-9.179-9.945
		c-9.184,0-19.895,10.711-23.719,30.606l-9.184,44.375H543.965L543.965,103.857z M-105.615-3.258
		c9.182,0,17.598-5.357,17.598-15.303c0-7.652-5.355-13.008-14.537-13.008s-16.832,6.887-16.832,15.303
		C-119.387-8.616-114.031-3.258-105.615-3.258L-105.615-3.258z M-94.904,8.218h-29.074l-12.24,58.912
		c-1.531,6.887-2.297,11.477-2.297,16.836c0,12.238,8.418,20.656,26.013,20.656c6.121,0,13.008-0.766,17.598-2.297l3.06-20.656
		c-2.295,0.766-5.355,0.766-7.65,0.766c-6.121,0-8.416-3.063-8.416-7.653c0-3.058,0.766-6.886,1.529-10.711L-94.904,8.218
		L-94.904,8.218z M407.012-3.258c9.179,0,17.593-5.357,17.593-15.303c0-7.652-5.351-13.008-14.535-13.008
		c-9.184,0-16.832,6.887-16.832,15.303C393.239-8.616,398.594-3.258,407.012-3.258z M416.957,8.218h-29.074L375.641,67.13
		c-1.527,6.887-2.293,11.477-2.293,16.836c0,12.238,8.414,20.656,26.011,20.656c6.121,0,13.003-0.766,17.598-2.297l3.063-20.656
		c-2.297,0.766-5.36,0.766-7.653,0.766c-6.121,0-8.418-3.063-8.418-7.653c0-3.058,0.766-6.886,1.531-10.711L416.957,8.218z
		 M-287.711,29.64c-12.242-6.885-19.129-13.006-19.129-20.658c0-7.65,7.65-14.537,21.424-14.537c9.945,0,19.892,3.826,26.779,7.652
		l5.356-22.953v-0.765c-5.356-3.061-15.303-7.65-30.606-7.65c-33.664,0-53.556,15.3-53.556,42.08
		c0,15.303,12.24,26.779,26.013,35.198c12.24,6.882,17.598,10.711,17.598,18.359c0,9.945-9.948,16.071-22.19,16.071
		c-11.477,0-23.719-6.126-30.603-10.711l-6.121,24.48c6.121,3.824,18.364,9.184,34.43,9.184c32.135,0,55.088-12.243,55.088-43.614
		C-262.463,48.006-272.41,38.056-287.711,29.64z M85.664,29.64C73.422,22.756,66.535,16.635,66.535,8.982
		c0-7.65,7.65-14.537,21.424-14.537c9.945,0,19.892,3.826,26.779,7.652l5.356-22.953v-0.765c-5.356-3.061-15.303-7.65-30.606-7.65
		c-33.664,0-53.556,15.3-53.556,42.08c0,15.303,12.24,26.779,26.014,35.198c12.24,6.882,17.598,10.711,17.598,18.359
		c0,9.945-9.948,16.071-22.19,16.071c-11.477,0-23.719-6.126-30.603-10.711l-6.121,24.48c6.121,3.824,18.364,9.184,34.43,9.184
		c32.135,0,55.088-12.243,55.088-43.614C110.912,48.006,101.731,38.056,85.664,29.64z"/>
	<path id="Gear" fill="#5FBF47" d="M493.469,115.333h-18.363l-2.297-16.071c-3.824-0.761-7.648-3.058-11.477-4.586l-13.008,9.945
		l-13.003-13.008l9.945-13.008c-2.293-3.824-3.824-7.648-4.59-11.477l-16.071-2.297v-19.89l16.071-2.297
		c0.766-3.824,3.063-8.414,4.59-11.474l-9.945-13.008l13.003-13.006l13.008,9.945c3.828-2.295,7.653-3.824,11.477-4.59l2.297-16.068
		h18.363l2.293,16.068c3.828,0.766,7.652,3.061,11.477,4.59l13.008-9.945l13.008,13.006l-9.945,13.008
		c2.297,3.826,3.824,7.65,4.59,11.474l16.066,2.297v18.364l-16.066,2.293c-0.765,3.828-3.058,8.418-4.59,11.476l9.945,13.008
		l-13.008,13.008l-13.008-9.945c-3.824,2.297-7.648,3.824-11.477,4.59L493.469,115.333z M484.285,33.466
		c-11.477,0-20.656,9.179-20.656,20.656s9.179,20.66,20.656,20.66c11.477,0,20.661-9.184,20.661-20.66
		C504.18,42.646,494.996,33.466,484.285,33.466z"/>
</g>
</svg>
