<?xml version="1.0" encoding="utf-8"?>
<!-- Generator: Adobe Illustrator 23.0.3, SVG Export Plug-In . SVG Version: 6.00 Build 0)  -->
<svg version="1.1" id="Express" xmlns="http://www.w3.org/2000/svg" xmlns:xlink="http://www.w3.org/1999/xlink" x="0px" y="0px"
	 viewBox="0 0 1000 426.1" style="enable-background:new 0 0 1000 426.1;" xml:space="preserve">
<style type="text/css">
	.st0{fill:#F47920;}
	.st1{fill:#472F92;}
</style>
<g>
	<g>
		<g>
			<path class="st0" d="M993.8,241.1c0-15.4-10.9-26.7-26-26.7c-15,0-26,11.3-26,26.7s10.9,26.7,26,26.7
				C982.9,267.7,993.8,256.5,993.8,241.1L993.8,241.1L993.8,241.1z M961,242.4v17.4h-5.6v-38.5h14c8.2,0,12,3.6,12,10.6
				c0,4.3-2.9,7.7-6.7,8.2v0.2c3.2,0.5,4.4,3.4,5.1,8.7c0.5,3.4,1.2,9.4,2.4,10.8h-6.7c-1.5-3.6-1.4-8.7-2.6-13
				c-1-3.3-2.7-4.5-6.5-4.5H961L961,242.4z M968,237.5c5.5,0,7-2.9,7-5.5c0-3.1-1.5-5.5-7-5.5h-7v10.9H968L968,237.5z M935.7,241.1
				c0-19,15.1-31.8,32.1-31.8c17.1,0,32.1,12.8,32.1,31.8c0,19-15,31.8-32.1,31.8C950.8,272.9,935.7,260,935.7,241.1L935.7,241.1z"
				/>
		</g>
		<g>
			<g>
				<g>
					<polygon class="st0" points="824.4,267.3 787.3,225.8 750.6,267.3 673.4,267.3 748.9,182.5 673.4,97.6 753,97.6 790.4,138.8 
						826.4,97.6 903.3,97.6 828.2,182.1 904.4,267.3 					"/>
					<polygon class="st0" points="525,267.3 525,0 673.4,0 673.4,59.6 587.8,59.6 587.8,97.6 673.4,97.6 673.4,155 587.8,155 
						587.8,207.6 673.4,207.6 673.4,267.3 					"/>
				</g>
				<path class="st1" d="M462.4,0v109.4h-0.7c-13.9-15.9-31.2-21.5-51.3-21.5c-41.2,0-72.2,28-83,65C315,112.2,283,87.2,235.5,87.2
					c-38.5,0-69,17.3-84.9,45.5v-35H71v-38h86.9V0H0v267.3h71V155h70.8c-2.1,8.3-3.2,17.1-3.2,26.4c0,55.8,42.6,94.9,97,94.9
					c45.7,0,75.8-21.5,91.8-60.6h-60.9c-8.2,11.8-14.5,15.2-30.9,15.2c-19.1,0-35.5-16.6-35.5-36.4h123.9
					c5.4,44.3,39.9,82.5,87.2,82.5c20.4,0,39.1-10,50.6-27h0.7v17.3H525V0H462.4z M202,155.8c3.9-17,17.1-28.1,33.6-28.1
					c18.1,0,30.6,10.8,33.9,28.1C270.8,155.8,202,155.8,202,155.8z M424.4,226.6c-23.1,0-37.4-21.5-37.4-44
					c0-24,12.5-47.1,37.4-47.1c25.9,0,36.2,23.1,36.2,47.1C460.5,205.4,449.6,226.6,424.4,226.6z"/>
			</g>
		</g>
	</g>
	<g>
		<g>
			<path class="st1" d="M525,401v-95.8h52.9v7.2h-44.2v35.3H576v7.2h-42.3v39h46.2v7.2H525z"/>
			<path class="st1" d="M586.2,401l25.8-34.4l-24.5-32.5h9.9l20,26.6l19.6-26.6h9.9l-24.9,32.5L648,401h-10l-21.4-28.5L596.1,401
				H586.2z"/>
			<path class="st1" d="M664.8,426.1h-8.1V354c0-6.6,0-13.4-0.4-20h7.9l0.3,10.1c5-7.9,11.6-11.6,21.6-11.6
				c20.6,0,29.5,17.1,29.5,35c0,18-8.9,35.1-29.5,35.1c-9.3,0-16.5-3.6-21.3-11.2V426.1z M707,367.5c0-14.3-6-28.3-21.8-28.3
				c-15,0-20.4,12.3-20.4,28.3c0,16,5.4,28.3,20.4,28.3C701,395.8,707,381.8,707,367.5z"/>
			<path class="st1" d="M757.1,340.3c-13.4,0-18,11.3-18,22.9V401H731v-47.3c0-6.5-0.1-13.1-0.4-19.7h7.9l0.5,9.7
				c4-7.7,10.6-11.2,19.5-11.2c1.2,0,2.5,0.1,3.7,0.3v8.1C760.4,340.5,758.9,340.3,757.1,340.3z"/>
			<path class="st1" d="M772.1,369c0,15.1,7.1,27.5,21.8,27.5c11.4,0,16.7-7.5,18.7-15.1h7.7c-3.6,14-12.2,21.2-27.4,21.2
				c-20.4,0-29.4-15.1-29.4-33.9c0-19.2,9.4-36.2,30.4-36.2c21.3,0,27,18.6,27,36.5H772.1z M772.4,362.9h40
				c0-13.1-6.2-24.3-18.9-24.3C781.9,338.5,774,347.3,772.4,362.9z"/>
			<path class="st1" d="M852.5,402.6c-13.8,0-24.1-6.5-24.1-21.2h8.1c0,10,6.6,15.1,16.4,15.1c9.1,0,16.3-4.4,16.3-13.3
				c0-8.1-8.3-10.2-17.1-12.7c-10.6-3-22.1-6.4-22.1-19.3c0-14.4,12-18.6,23.3-18.6c13,0,22.6,5,23,18.9h-8.1
				c-0.4-7.9-6.1-12.4-14.7-12.4c-6.7,0-15,2.6-15,11.4c0,7.9,8.2,10.2,16.9,12.6c10.6,2.9,22.2,6.1,22.2,19
				C877.7,397,866.1,402.6,852.5,402.6z"/>
			<path class="st1" d="M908.4,402.6c-13.8,0-24.1-6.5-24.1-21.2h8.1c0,10,6.6,15.1,16.4,15.1c9.1,0,16.3-4.4,16.3-13.3
				c0-8.1-8.3-10.2-17.1-12.7c-10.6-3-22.1-6.4-22.1-19.3c0-14.4,12-18.6,23.3-18.6c13,0,22.6,5,23,18.9h-8.1
				c-0.4-7.9-6.1-12.4-14.7-12.4c-6.7,0-15,2.6-15,11.4c0,7.9,8.2,10.2,16.9,12.6c10.6,2.9,22.2,6.1,22.2,19
				C933.7,397,922.1,402.6,908.4,402.6z"/>
		</g>
	</g>
</g>
</svg>
