<?xml version="1.0" encoding="utf-8"?>
<!-- Generator: Adobe Illustrator 23.0.3, SVG Export Plug-In . SVG Version: 6.00 Build 0)  -->
<svg version="1.1" id="Layer_1" xmlns="http://www.w3.org/2000/svg" xmlns:xlink="http://www.w3.org/1999/xlink" x="0px" y="0px"
	 viewBox="0 0 1000 1185.8" style="enable-background:new 0 0 1000 1185.8;" xml:space="preserve">
<style type="text/css">
	.st0{fill:#150400;}
	.st1{fill:#F7BE00;}
</style>
<g>
	<path class="st0" d="M500,1185.8c-50.5-21.9-286.9-127-363.4-189.9C47.8,923.5,0,818.3,0,694V113.4C142.1,36.9,306,0,500,0
		s357.9,36.9,500,113.4v579.2c0,124.3-46.4,229.5-136.6,301.9C786.9,1058.7,550.5,1163.9,500,1185.8z"/>
	<path class="st1" d="M939.9,136.6c-60.1-5.5-121.6-9.6-185.8-9.6c-233.6,0-485,50.5-692.6,240.4v325.1
		c0,106.6,39.6,194,113.4,255.5c65.6,53.3,267.8,144.8,325.1,170.8c56-24.6,258.2-114.8,325.1-170.8
		c75.1-61.5,113.4-147.5,113.4-255.5v-556 M105.2,659.8v-265h84.7v267.8c0,23.2,5.5,58.7,43.7,58.7c16.4,0,30.1-4.1,39.6-10.9V394.8
		h83.3v364.8c-32.8,21.9-75.1,34.2-127,34.2C146.2,793.7,105.2,748.6,105.2,659.8 M483.6,964.5h-84.7V416.7
		c30.1-19.1,66.9-30.1,113.4-30.1c101.1,0,155.7,76.5,155.7,198.1c0,123-53.3,206.3-147.5,206.3c-17.8,0-30.1-2.7-38.3-4.1
		L483.6,964.5L483.6,964.5z M483.6,718.6c5.5,2.7,16.4,5.5,27.3,5.5c47.8,0,71-45.1,71-136.6c0-94.3-20.5-132.5-69.7-132.5
		c-10.9,0-23.2,2.7-30.1,5.5L483.6,718.6L483.6,718.6z M687.2,495.9c0-68.3,57.4-107.9,113.4-109.3c46.4-1.4,77.9,16.4,92.9,27.3
		v73.8c-17.8-17.8-46.4-34.2-75.1-34.2c-23.2,0-49.2,10.9-49.2,39.6c-1.4,30.1,24.6,42.3,54.6,61.5c69.7,41,83.3,77.9,82,127
		c-1.4,53.3-38.3,112-121.6,112c-32.8,0-65.6-10.9-92.9-26v-77.9c21.9,19.1,53.3,34.2,80.6,34.2c31.4,0,50.5-17.8,50.5-46.4
		c0-26-15-41-51.9-62.8C700.8,573.8,688.5,541,687.2,495.9 M147.5,982.2C62.8,912.6,17.8,812.8,17.8,692.6V124.3
		c133.9-71,296.4-107.9,483.6-107.9S851.1,51.9,985,124.3V694c0,120.2-45.1,219.9-129.8,289.6c-77.9,64.2-325.1,172.1-353.8,184.4
		C472.7,1154.4,225.4,1046.4,147.5,982.2z M808.7,1102.5v49.2h9.6v-20.5h1.4c0,1.4,13.7,20.5,13.7,20.5h10.9c0,0-13.7-19.1-15-21.9
		c6.8-1.4,10.9-6.8,10.9-13.7s-4.1-15-16.4-15L808.7,1102.5L808.7,1102.5z M822.4,1109.3c8.2,0,8.2,4.1,8.2,6.8
		c0,4.1-1.4,8.2-10.9,8.2h-1.4v-15H822.4z M856.6,1127c0,17.8-15,32.8-32.8,32.8s-32.8-15-32.8-32.8c0-17.8,15-34.2,32.8-34.2
		C841.5,1092.9,856.6,1107.9,856.6,1127 M823.8,1086.1c-21.9,0-41,17.8-41,41c0,21.9,17.8,41,41,41c21.9,0,41-17.8,41-41
		C863.4,1103.8,845.6,1086.1,823.8,1086.1"/>
</g>
</svg>
