<?xml version="1.0" encoding="utf-8"?>
<!-- Generator: Adobe Illustrator 23.0.3, SVG Export Plug-In . SVG Version: 6.00 Build 0)  -->
<svg version="1.1" id="Layer_1" xmlns="http://www.w3.org/2000/svg" xmlns:xlink="http://www.w3.org/1999/xlink" x="0px" y="0px"
	 viewBox="0 0 1000 126.9" style="enable-background:new 0 0 1000 126.9;" xml:space="preserve">
<style type="text/css">
	.st0{fill-rule:evenodd;clip-rule:evenodd;fill:#EF3E28;}
</style>
<g>
	<polygon class="st0" points="720.7,1.5 700.2,1.5 700.2,126.9 796.4,126.9 809.4,106.4 720.7,106.4 720.7,1.5 720.7,1.5 	"/>
	<path class="st0" d="M439.9,7.7l-75.1,119.1h24.8l22.6-36h48.4l12.7-20.5H425l26.4-41.3l61.7,97.7H538L462.3,7.4l0,0
		C457.6-0.3,445.2-0.3,439.9,7.7L439.9,7.7L439.9,7.7L439.9,7.7z"/>
	<path class="st0" d="M585.4,22h86.1l12.7-20.5l-99.4,0.1l0,0c-34.6,0-57.4,28-57.4,62.6c0,34.6,22.8,62.6,57.4,62.6l0,0l84.1-0.1
		l13.2-20.3h-96.6l0,0c-23.3,0-37-18.9-37-42.2C548.5,40.9,562.1,22,585.4,22L585.4,22L585.4,22L585.4,22z"/>
	<path class="st0" d="M146.1,1.6H57.4l0,0C22.8,1.6,0,29.6,0,64.2c0,34.6,22.8,62.6,57.4,62.6l0,0h88.7l0,0
		c34.6,0,57.4-28,57.4-62.6C203.4,29.6,180.7,1.6,146.1,1.6L146.1,1.6L146.1,1.6L146.1,1.6z M146.1,106.4H57.4l0,0
		c-23.3,0-37-18.9-37-42.2C20.4,40.9,34,22,57.4,22l0,0h88.7l0,0c23.3,0,37,18.9,37,42.2C183,87.5,169.4,106.4,146.1,106.4
		L146.1,106.4L146.1,106.4L146.1,106.4z"/>
	<path class="st0" d="M867.9,22H954l12.7-20.5l-99.4,0.1l0,0c-34.6,0-57.4,28-57.4,62.6c0,34.6,22.8,62.6,57.4,62.6l0,0l84.1-0.1
		l13.2-20.3h-96.6l0,0c-19.9,0-32.7-13.8-36-32.3l0,0h108.4l13-20.5H832l0,0C835.5,35.5,848.3,22,867.9,22L867.9,22L867.9,22
		L867.9,22z"/>
	<path class="st0" d="M320.1,75.9c20.5,0,37.2-16.6,37.2-37.2c0-20.5-16.6-37.2-37.2-37.2l0,0l-104.4,0v125.3h23V22h81.4l0,0
		c9.3,0,16.8,7.5,16.8,16.8c0,9.3-7.5,16.8-16.8,16.8l0,0h-65.3l73.7,71.2h29.6L305.4,76L320.1,75.9L320.1,75.9L320.1,75.9z"/>
	<path class="st0" d="M988.7,0c-6.2,0-11.4,4.7-11.4,11.2c0,6.5,5.2,11.2,11.4,11.2c6.1,0,11.3-4.7,11.3-11.2
		C1000,4.7,994.8,0,988.7,0L988.7,0L988.7,0L988.7,0z M988.7,20.5c-5.1,0-9.1-4-9.1-9.3c0-5.3,4-9.3,9.1-9.3c5.1,0,9.1,4,9.1,9.3
		C997.8,16.5,993.8,20.5,988.7,20.5L988.7,20.5L988.7,20.5L988.7,20.5z"/>
	<path class="st0" d="M990.5,12c1.9-0.2,3.3-1.2,3.3-3.6c0-2.5-1.5-3.7-4.6-3.7l0,0h-4.9v12.9h2V12h2.2l3.4,5.6h2.2L990.5,12
		L990.5,12L990.5,12z M986.3,10.4v-4h2.7l0,0c1.4,0,2.8,0.3,2.8,1.9c0,2-1.5,2.1-3.1,2.1l0,0H986.3L986.3,10.4L986.3,10.4z"/>
</g>
</svg>
