<?xml version="1.0" encoding="utf-8"?>
<!-- Generator: Adobe Illustrator 23.0.3, SVG Export Plug-In . SVG Version: 6.00 Build 0)  -->
<svg version="1.1" id="Layer_1" xmlns="http://www.w3.org/2000/svg" xmlns:xlink="http://www.w3.org/1999/xlink" x="0px" y="0px"
	 viewBox="0 0 91.2 82.5" style="enable-background:new 0 0 91.2 82.5;" xml:space="preserve">
<g>
	<path d="M45.9,47.7c4.1,0,7.5-3.4,7.5-7.5c0-4.2-3.4-7.5-7.5-7.5c-4.2,0-7.5,3.4-7.5,7.5C38.4,44.4,41.8,47.7,45.9,47.7z
		 M45.9,36.3c2.1,0,3.9,1.8,3.9,3.9c0,2.2-1.8,3.9-3.9,3.9c-2.1,0-3.9-1.7-3.9-3.9C42,38.1,43.8,36.3,45.9,36.3z M87,34
		c-0.1-0.1-0.2-0.1-0.3-0.2c0.1-0.6,0.2-1.1,0.2-1.7c0-4.2-3.4-7.5-7.5-7.5c-3,0-5.5,1.7-6.7,4.2c-1.7-0.4-3.6-0.7-5.5-1
		c2.9-7.5,4.5-14.2,4.6-19.1c0-3.4-0.8-6.4-3.3-8l0,0C67.5,0.2,66.5,0,65.5,0c-4.5,0.1-9.4,3.8-15,9.6c-1.6,1.7-3.3,3.6-4.9,5.7
		c-1-1.2-1.9-2.3-2.9-3.4c0.8-1.2,1.3-2.7,1.3-4.2c0-4.1-3.4-7.5-7.5-7.5c-1.9,0-3.5,0.7-4.9,1.8c-2.1-1.3-4.1-2-6-2.1
		c-1,0-2,0.2-2.9,0.7c-2.6,1.5-3.3,4.5-3.3,8c0,4.9,1.6,11.5,4.6,19.1c-3.6,0.6-6.9,1.3-9.9,2.1C10.1,31,6.7,32.3,4.3,34
		C1.8,35.6,0,37.6,0,40.2c0,2.6,1.8,4.7,4.3,6.3c4.2,2.7,11.2,4.9,19.8,6.2c-2.9,7.5-4.5,14.2-4.6,19.1c0,3.4,0.8,6.4,3.3,8
		c0.9,0.5,1.9,0.7,2.8,0.7c0,0,0,0,0,0c1.1,0,2.3-0.3,3.5-0.8c1.4,1.7,3.5,2.8,5.8,2.8c4.1,0,7.5-3.4,7.5-7.5c0-1.7-0.6-3.2-1.5-4.5
		c1.5-1.6,3.1-3.4,4.6-5.4c1.7,2.1,3.3,4,4.9,5.7c5.6,5.8,10.5,9.5,15,9.6c0,0,0,0,0,0c1,0,2-0.2,2.8-0.7l-0.9-1.6l0.9,1.6
		c2.5-1.6,3.3-4.5,3.3-8c0-4.9-1.6-11.5-4.6-19.1c3.6-0.6,6.9-1.3,9.9-2.1c4.1-1.1,7.4-2.5,9.9-4.1c2.4-1.6,4.2-3.6,4.3-6.3
		C91.2,37.6,89.4,35.6,87,34z M79.4,28.2c2.1,0,3.9,1.8,3.9,3.9c0,2.1-1.8,3.9-3.9,3.9c-2.2,0-3.9-1.8-3.9-3.9
		C75.5,29.9,77.2,28.2,79.4,28.2z M53.2,12.1c5.1-5.5,10-8.5,12.2-8.5c0,0,0.1,0,0.1,0c0.5,0,0.8,0.1,1.1,0.2
		c0.7,0.3,1.5,1.9,1.5,4.8c0,4.3-1.6,10.9-4.6,18.6c-3.1-0.4-6.4-0.7-9.9-0.9c-1.9-2.9-3.8-5.6-5.7-8.1C49.7,16,51.5,13.9,53.2,12.1
		z M33.5,47.2c0.6,1,1.2,2,1.8,3c-2.1-0.1-4.1-0.3-6.1-0.5c0.8-1.8,1.6-3.7,2.6-5.6C32.3,45.2,32.9,46.2,33.5,47.2z M29.2,30.7
		c2-0.2,4-0.4,6.1-0.6c-0.6,1-1.2,2-1.8,3c-0.6,1-1.2,2.1-1.7,3.1C30.8,34.4,30,32.6,29.2,30.7z M33.7,40.2c0.9-1.7,1.9-3.4,2.9-5.2
		c1-1.8,2-3.4,3.1-5.1c1.9-0.1,3.9-0.1,5.9-0.1s4,0.1,5.9,0.1c1,1.6,2.1,3.3,3.1,5.1c1,1.7,2,3.5,2.9,5.2c-0.9,1.7-1.9,3.5-2.9,5.2
		c-1,1.7-2,3.4-3.1,5.1c-1.9,0.1-3.9,0.1-5.9,0.1c-2,0-4-0.1-5.9-0.1c-1-1.6-2.1-3.3-3.1-5.1C35.6,43.7,34.6,41.9,33.7,40.2z
		 M57.7,47.2c0.6-1,1.2-2.1,1.7-3.1c0.9,1.9,1.8,3.7,2.6,5.6c-2,0.2-4,0.4-6.1,0.6C56.5,49.3,57.1,48.3,57.7,47.2z M59.5,36.3
		c-0.6-1-1.1-2-1.7-3.1c-0.6-1-1.2-2-1.8-3c2.1,0.1,4.1,0.3,6.1,0.6C61.2,32.6,60.4,34.4,59.5,36.3z M49.1,26.3c-1.2,0-2.3,0-3.5,0
		c-1.2,0-2.4,0-3.5,0c1.2-1.7,2.3-3.4,3.5-5C46.8,22.9,48,24.5,49.1,26.3z M36.5,3.8c2.1,0,3.9,1.7,3.9,3.9c0,2.2-1.8,3.9-3.9,3.9
		c-2.1,0-3.9-1.7-3.9-3.9C32.6,5.6,34.4,3.8,36.5,3.8z M23.1,8.7c0-3,0.8-4.5,1.5-4.8c0.3-0.2,0.6-0.3,1.1-0.3c0,0,0.1,0,0.1,0
		c0.9,0,2.2,0.5,3.7,1.4C29.2,5.9,29,6.8,29,7.7c0,4.2,3.4,7.5,7.5,7.5c1.3,0,2.5-0.3,3.5-0.9c1.1,1.2,2.2,2.5,3.3,3.9
		c-1.9,2.5-3.8,5.2-5.7,8.1c-3.4,0.2-6.8,0.5-9.9,0.8C24.7,19.6,23.1,13,23.1,8.7z M15.1,47.1c-3.8-1.1-6.9-2.3-8.9-3.6
		c-2-1.3-2.7-2.5-2.6-3.2c0-0.7,0.6-1.9,2.6-3.2c3.5-2.4,10.4-4.5,19.2-5.8c1.2,2.9,2.6,5.9,4.2,9c-1.6,3.1-3,6.1-4.2,9
		C21.6,48.7,18.1,47.9,15.1,47.1z M35,78.8c-2.2,0-3.9-1.8-3.9-3.9c0-2.1,1.8-3.9,3.9-3.9c2.1,0,3.9,1.7,3.9,3.9
		C38.9,77.1,37.1,78.8,35,78.8z M38.2,68.2c-1-0.5-2.1-0.7-3.2-0.7c-4.2,0-7.5,3.4-7.5,7.5c0,0.5,0.1,1,0.2,1.5
		c-0.8,0.3-1.4,0.4-1.9,0.4c-0.5,0-0.8-0.1-1.1-0.3c-0.7-0.3-1.5-1.8-1.5-4.8c0-4.3,1.6-10.9,4.6-18.6c3.1,0.4,6.4,0.7,9.9,0.8
		c1.9,2.9,3.8,5.6,5.7,8.2C41.6,64.4,39.8,66.4,38.2,68.2z M42.1,54.2c1.2,0,2.3,0,3.5,0c1.2,0,2.4,0,3.5-0.1
		c-1.2,1.8-2.4,3.4-3.5,5C44.4,57.6,43.3,55.9,42.1,54.2z M68.1,71.8c0,3-0.8,4.5-1.5,4.8l0,0c-0.3,0.2-0.6,0.3-1.1,0.3
		c-2.2,0.1-7.1-2.9-12.4-8.5c-1.7-1.8-3.5-3.9-5.3-6.1c1.9-2.5,3.8-5.2,5.7-8.1c3.4-0.2,6.8-0.5,9.9-0.8
		C66.5,60.8,68.1,67.4,68.1,71.8z M85,43.5c-3.5,2.4-10.4,4.5-19.2,5.7c-1.2-2.9-2.7-5.9-4.2-9c1.6-3.1,3-6.1,4.2-9
		c2.2,0.3,4.2,0.7,6.1,1.1c0.1,4,3.4,7.3,7.5,7.3c2.2,0,4.3-1,5.6-2.6c2,1.3,2.6,2.5,2.6,3.2C87.6,40.9,87,42.1,85,43.5z"/>
</g>
</svg>
