<?xml version="1.0" encoding="utf-8"?>
<!-- Generator: Adobe Illustrator 23.0.3, SVG Export Plug-In . SVG Version: 6.00 Build 0)  -->
<svg version="1.1" id="Layer_1" xmlns="http://www.w3.org/2000/svg" xmlns:xlink="http://www.w3.org/1999/xlink" x="0px" y="0px"
	 viewBox="0 0 327.8 337.8" style="enable-background:new 0 0 327.8 337.8;" xml:space="preserve">
<style type="text/css">
	.st0{fill:none;stroke:#EA272A;stroke-width:14;stroke-linecap:round;stroke-linejoin:round;stroke-miterlimit:22.9256;}
</style>
<g>
	<path class="st0" d="M257.3,328.5l-83.6,2.3c-31.8,0.9-74.7-13.9-99.3-35.7c-4-3.5-43.7-9.2-67.4-9.5l0.2-128.8
		c36.8-19.7,121.3-21.3,174.2-95.8l17.8-47.9c5-13.4,31.3-2.5,36.4,10.8c5,13.2,5.3,42.3-1.6,54.9l-26.7,48.1"/>
	<path class="st0" d="M307.7,148.7v3.8c0,12.7-10.4,23.1-23.1,23.1h-65.3c-12.7,0-23.1-10.4-23.1-23.1v-3.8
		c0-12.7,10.4-23.1,23.1-23.1h65.3C297.3,125.6,307.7,136,307.7,148.7L307.7,148.7z"/>
	<path class="st0" d="M320.8,200.8v3.8c0,12.7-10.4,23.1-23.1,23.1h-77.5c-12.7,0-23.1-10.4-23.1-23.1v-3.8
		c0-12.7,10.4-23.1,23.1-23.1h77.5C310.4,177.7,320.8,188.1,320.8,200.8L320.8,200.8z"/>
	<path class="st0" d="M300.4,252.9v3.8c0,12.7-10.4,23.1-23.1,23.1h-53.1c-12.7,0-23.1-10.4-23.1-23.1v-3.8
		c0-12.7,10.4-23.1,23.1-23.1h53.1C290,229.7,300.4,240.2,300.4,252.9L300.4,252.9z"/>
	<path class="st0" d="M280.9,302.4v3.8c0,12.7-10.4,23.1-23.1,23.1h-41c-12.7,0-23.1-10.4-23.1-23.1v-3.8
		c0-12.7,10.4-23.1,23.1-23.1h41C270.5,279.3,280.9,289.7,280.9,302.4L280.9,302.4z"/>
	<path class="st0" d="M198.4,141.1c-9.2,41.4-28.7,65.4-59.6,71.5"/>
</g>
</svg>
