<?xml version="1.0" encoding="utf-8"?>
<!-- Generator: Adobe Illustrator 23.0.3, SVG Export Plug-In . SVG Version: 6.00 Build 0)  -->
<svg version="1.1" id="Layer_1" xmlns="http://www.w3.org/2000/svg" xmlns:xlink="http://www.w3.org/1999/xlink" x="0px" y="0px"
	 viewBox="0 0 355.5 353.5" style="enable-background:new 0 0 355.5 353.5;" xml:space="preserve">
<style type="text/css">
	.st0{fill:none;stroke:#EA272A;stroke-width:14;stroke-linecap:round;stroke-linejoin:round;stroke-miterlimit:22.9256;}
</style>
<path class="st0" d="M113.6,190.1h-58C28.9,190.1,7,168.3,7,141.6v-86C7,28.9,28.9,7,55.6,7h244.3c26.7,0,48.6,21.9,48.6,48.6v86
	c0,26.7-21.9,48.6-48.6,48.6"/>
<path class="st0" d="M114.6,142.5L114.6,142.5c9.2-5.7,21.1-2.6,27.2,6.4l30.8,46c1.1-5.1,4.2-9.7,8.9-12.6l0,0
	c8.4-5.2,19.3-3.3,25.5,4.1c0.4-6.1,3.7-11.9,9.3-15.4l0,0c8.4-5.2,19.3-3.3,25.5,4.1c0.4-6.1,3.7-11.9,9.3-15.4l0,0
	c9.2-5.7,22-3.1,27.2,6.4l38.4,70.1c31.2,57-29,130.2-89.6,101.6l-105-49.5c-9.8-4.6-14.1-16.5-9.4-26.3c9.2-5.7,28.9-8.2,38.8-3.5
	l19.9,9.4l-63.1-98.1C102.4,160.6,105.4,148.3,114.6,142.5L114.6,142.5z"/>
<path class="st0" d="M209.3,47.3v53.1c0,6.4-0.7,11.8-2.1,16.1c-8.4,25.6-46.5,25.2-55.1-0.1c-1.5-4.4-2.3-9.8-2.3-16V47.3"/>
<path class="st0" d="M86.1,129.6h-13c-4.1,0-7-0.8-8.7-2.4c-1.7-1.6-2.6-4.2-2.6-7.8V57.5c0-3.6,0.9-6.2,2.7-7.8
	c1.8-1.6,4.7-2.4,8.7-2.4h14.7c4.4,0,8.3,0.2,11.5,0.7c3.2,0.5,6.1,1.4,8.7,2.8c19.5,10.5,10.6,27.1-9,35.2
	c28,7.9,32.6,31.9,9.6,40.7c-2.8,1.1-6.1,1.8-9.7,2.2C95.2,129.3,90.9,129.6,86.1,129.6L86.1,129.6z"/>
<path class="st0" d="M234.4,47.3c9.5,9.4,23.7,33.5,31.7,45.3c9.2-13.3,18.4-26.6,27.5-40c1-1.4,2-2.8,3.2-4.1"/>
<line class="st0" x1="265.9" y1="87.5" x2="265.9" y2="135.5"/>
<line class="st0" x1="99" y1="86" x2="61.7" y2="86"/>
</svg>
