<?xml version="1.0" encoding="utf-8"?>
<!-- Generator: Adobe Illustrator 23.0.3, SVG Export Plug-In . SVG Version: 6.00 Build 0)  -->
<svg version="1.1" id="Layer_1" xmlns="http://www.w3.org/2000/svg" xmlns:xlink="http://www.w3.org/1999/xlink" x="0px" y="0px"
	 viewBox="0 0 346.6 286.8" style="enable-background:new 0 0 346.6 286.8;" xml:space="preserve">
<style type="text/css">
	.st0{fill:none;stroke:#EA272A;stroke-width:14;stroke-linecap:round;stroke-linejoin:round;stroke-miterlimit:22.9256;}
</style>
<path class="st0" d="M318.7,95c11.5,0,20.9,9.4,20.9,20.9v142.9c0,11.5-9.4,20.9-20.9,20.9H27.9c-11.5,0-20.9-9.4-20.9-20.9
	L318.7,95z"/>
<path class="st0" d="M339.6,258.8c0,11.5-9.4,20.9-20.9,20.9H27.9c-11.5,0-20.9-9.4-20.9-20.9V115.9C7,104.4,16.4,95,27.9,95
	L339.6,258.8z"/>
<polyline class="st0" points="38.4,95.2 38.4,8.3 308.2,8.3 308.2,95.2 "/>
<line class="st0" x1="75.4" y1="54.4" x2="271.3" y2="54.4"/>
<line class="st0" x1="75.4" y1="84.4" x2="271.3" y2="84.4"/>
</svg>
