<?xml version="1.0" encoding="utf-8"?>
<!-- Generator: Adobe Illustrator 23.0.3, SVG Export Plug-In . SVG Version: 6.00 Build 0)  -->
<svg version="1.1" id="Layer_1" xmlns="http://www.w3.org/2000/svg" xmlns:xlink="http://www.w3.org/1999/xlink" x="0px" y="0px"
	 viewBox="0 0 340.7 328.6" style="enable-background:new 0 0 340.7 328.6;" xml:space="preserve">
<style type="text/css">
	.st0{fill:none;stroke:#EA272A;stroke-width:14;stroke-linecap:round;stroke-linejoin:round;stroke-miterlimit:22.9256;}
</style>
<g>
	<path class="st0" d="M275.3,7h3.2c10.8,0,19.7,8.8,19.7,19.7v255.7c0,10.8-8.8,19.7-19.7,19.7h-3.2c-10.9,0-78.8-100.2-151.3-100.2
		H33.6C19,201.8,7,189.8,7,175.1v-41.2c0-14.7,12-26.6,26.6-26.6H124C196.6,107.2,264.4,7,275.3,7L275.3,7z"/>
	<path class="st0" d="M297.9,106.7c20.7,6,35.9,25.2,35.9,47.8c0,22.7-15.2,41.8-35.9,47.8"/>
	<line class="st0" x1="125.7" y1="107.2" x2="125.7" y2="201.8"/>
	<path class="st0" d="M104.1,201.8c3.7,20.9-1.7,42.7,11,62.7l21.5,33.9c5.4,8.5-3.3,23.3-13.1,23.3H91.3c-9.8,0-20.1-7.9-22.4-17.8
		L44.6,201.8H104.1L104.1,201.8z"/>
</g>
</svg>
