<?xml version="1.0" encoding="utf-8"?>
<!-- Generator: Adobe Illustrator 23.0.3, SVG Export Plug-In . SVG Version: 6.00 Build 0)  -->
<svg version="1.1" id="Layer_1" xmlns="http://www.w3.org/2000/svg" xmlns:xlink="http://www.w3.org/1999/xlink" x="0px" y="0px"
	 viewBox="0 0 552.9 560.2" style="enable-background:new 0 0 552.9 560.2;" xml:space="preserve">
<style type="text/css">
	.st0{fill:#FFFFFF;}
</style>
<g>
	<path d="M361.4,547.8c-4.6,11.2-14.1,6.5-22.5,7.1c-0.1-1.9-0.2-3.4-0.2-4.8c0-181.2,0-362.3,0-543.5c0-6.6,0-6.6,6.5-6.6
		c9.1,0,18.3,0,28.1,0c0,78.9,0,157.2,0,236.1c4.5-5.1,8.1-9.7,12.3-13.8c6.1-6,13.5-9.3,22.1-9.3c7-0.1,14.1-0.7,21,0.2
		c13.7,1.8,25.8,7.3,34.9,18.2c6,7.2,10.3,15.3,11.9,24.5c1.9,10.6,4.2,21.4,4.3,32.1c0.4,70.2,0.4,140.3-0.1,210.5
		c-0.1,11.8-2.2,23.7-8.9,34.1c-6,9.2-13.6,16.6-24.1,20.2c-6.5,2.2-13.3,4-20.1,5.1c-7.5,1.2-15.2,2.3-22.7,1.8
		c-11.8-0.7-23.7-2.6-34.7-7.3C366.6,551.2,364.3,549.5,361.4,547.8z M445.2,389.1c0.1,0,0.3,0,0.4,0c0-33.1,0.2-66.3-0.1-99.4
		c-0.1-15.2,0.4-30.5-5.1-45.3c-3.4-9-13.3-18.3-22.8-18.7c-5.5-0.3-11-0.5-16.5,0.2c-3.5,0.4-7.3,1.8-10.3,3.8
		c-8.1,5.5-12.4,14-14.7,23c-2.1,7.9-2.8,16.3-2.8,24.4c-0.2,74.1-0.1,148.2-0.1,222.4c0,10.8,1,21.3,5.2,31.3
		c3.4,8.1,9.3,14.5,17.9,16.4c7.2,1.6,14.5,3.4,22.4,1.1c6.7-1.9,12.3-4.3,16.8-9.4c7.7-8.7,9.7-19.2,9.7-30.3
		C445.2,468.7,445.2,428.9,445.2,389.1z"/>
	<path d="M305.7,555c-5.4,0-10.1,0.5-14.6-0.2c-2-0.3-3.5-3.1-5.4-4.5c-1.2-0.9-3.5-2.3-4.1-1.9c-10.9,7.6-23.5,8.1-36,10.2
		c-11.8,2-23,0.3-34.1-1.6c-17.3-3-31.7-12-39.5-28.6c-3-6.5-5-14.1-5.1-21.2c-0.5-36,0.1-72-0.5-108c-0.2-15.1,6.2-26.2,17.8-34.1
		c9.1-6.2,19.2-11,29.2-15.8c12.9-6.2,26.4-11.1,39-17.8c13.3-7.2,21.9-18.2,21.1-34.5c-0.3-7,0.3-14-0.1-21
		c-0.5-8.4-0.9-16.9-2.7-25.1c-1.8-7.8-4.3-15.9-11.7-20.8c-3.5-2.3-7.3-5.6-11.1-5.9c-8.9-0.7-18-0.6-26.8,0.6
		c-4.2,0.6-9.2,3.4-11.8,6.8c-3.6,4.8-6.7,10.9-7.5,16.8c-1.8,12.4-2,25-2.9,37.6c-0.1,1.3-0.2,2.6-0.3,4.1c-10.6,0-20.8,0-32,0
		c0-5.4-0.3-10.8,0.1-16.2c0.5-8.4,0.2-17.1,2.5-25c3.5-12.5,11.6-22,23.3-28.3c14.5-7.9,30.3-8.2,46.1-7.5c9.3,0.4,18.9,0.7,27.9,3
		c13.2,3.4,24.8,10.3,31.7,22.8c4.8,8.8,7.8,18.1,7.8,28.4c-0.1,94.3-0.1,188.6-0.1,282.9C305.7,551.4,305.7,552.9,305.7,555z
		 M273.2,327.1c-4.2,3.8-7.2,7.5-11,9.8c-12.7,7.8-25.7,15-38.4,22.6c-7.3,4.4-14.1,9.3-18.1,17.2c-4.3,8.4-6.9,17.2-6.9,26.7
		c0,24,0,48,0,72c0,17.5-0.9,35,4.7,52.1c3.2,9.8,10.6,18.5,21.2,19.9c7.1,1,14.1,2,21.4,0.3c8.2-1.9,20.5-10.6,22.2-18.9
		c2.2-11.4,4.7-23,4.8-34.5c0.5-53.8,0.3-107.6,0.3-161.5C273.5,331.4,273.3,329.8,273.2,327.1z"/>
	<path d="M106.8,416.8c11.9,0,23.1,0,34.8,0c0,1.9,0,3.6,0,5.2c0,22.7,0.3,45.3-0.1,68c-0.2,9.5-0.7,19.3-2.7,28.5
		c-3.6,16.2-13.5,27.7-29,34.1c-16.2,6.7-33.2,8.6-50.3,7c-15.6-1.5-31-5.2-42.5-17.2c-5.9-6.1-10.4-13-12.7-21.6
		C1,508,0.1,495.1,0.1,482.1c0-70.7-0.3-141.3,0.1-212c0.1-18.4,6.2-35.2,22.3-46.1c6.3-4.3,13.8-6.8,21.5-8.8
		c13.8-3.6,27.7-2,41.6-2.1c11.5-0.1,21.9,3.7,31.9,9.5c10.3,6,16.2,14.6,19.4,25.6c4.4,15.1,5.9,28.8,4.2,41.8
		c-11.2,0-22.4,0-34.6,0c0-11.3,0.6-22.5-0.2-33.5c-0.7-8.8-2.6-17.6-9-24.6c-5-5.5-11-8.8-18.6-8.8c-4.3,0-8.7,0.1-13,0
		c-10.8-0.2-23.2,10.2-26.6,19.8c-3.7,10.2-4.6,20.4-4.6,31c0.1,78.7-0.1,157.3,0.4,236c0.1,12.4,3,25.1,14.5,33.3
		c1.4,1,2.9,1.7,4.5,2.3c7,3,13.9,5.5,21.7,2.9c4.1-1.4,8.5-1.9,12.6-3.3c6.6-2.3,10.4-7.7,13.3-13.5c4.9-9.8,5.4-20.5,5.3-31.3
		c-0.2-26-0.1-52-0.1-78C106.8,420.6,106.8,419,106.8,416.8z"/>
	<path d="M512.5,554.6c0-110.7,0-220.9,0-331.3c11.5,0,22.7,0,34.2,0c0,110.6,0,220.8,0,331.3C535.1,554.6,523.8,554.6,512.5,554.6z
		"/>
	<path d="M529.8,134.3c-14.8,1.5-24-10.6-23.6-23c0.5-16.5,10.2-22.5,23.3-23.8c12.8-1.3,22.9,10,23.4,23.8
		C553.3,123.7,543.9,135.7,529.8,134.3z"/>
	<path class="st0" d="M445.2,389.1c0,39.8,0,79.6,0,119.4c0,11.1-2,21.7-9.7,30.3c-4.5,5.1-10.1,7.5-16.8,9.4
		c-8,2.2-15.3,0.4-22.4-1.1c-8.6-1.9-14.5-8.3-17.9-16.4c-4.1-10-5.2-20.5-5.2-31.3c0.1-74.1-0.1-148.2,0.1-222.4
		c0-8.2,0.7-16.6,2.8-24.4c2.4-9,6.7-17.5,14.7-23c2.9-2,6.7-3.4,10.3-3.8c5.4-0.6,11-0.4,16.5-0.2c9.5,0.4,19.5,9.7,22.8,18.7
		c5.5,14.8,5,30.1,5.1,45.3c0.2,33.1,0.1,66.3,0.1,99.4C445.4,389.1,445.3,389.1,445.2,389.1z"/>
	<path class="st0" d="M273.2,327.1c0.1,2.6,0.3,4.3,0.3,5.9c0,53.8,0.2,107.6-0.3,161.5c-0.1,11.5-2.6,23.1-4.8,34.5
		c-1.6,8.3-13.9,17-22.2,18.9c-7.4,1.7-14.3,0.7-21.4-0.3c-10.6-1.4-18-10.2-21.2-19.9c-5.7-17-4.7-34.6-4.7-52.1c0-24,0-48,0-72
		c0-9.5,2.6-18.3,6.9-26.7c4-7.9,10.8-12.9,18.1-17.2c12.7-7.7,25.8-14.9,38.4-22.6C266,334.6,269,330.9,273.2,327.1z"/>
</g>
</svg>
