<?xml version="1.0" encoding="utf-8"?>
<!-- Generator: Adobe Illustrator 23.0.3, SVG Export Plug-In . SVG Version: 6.00 Build 0)  -->
<svg version="1.1" id="Layer_1" xmlns="http://www.w3.org/2000/svg" xmlns:xlink="http://www.w3.org/1999/xlink" x="0px" y="0px"
	 viewBox="0 0 1000 494.75" enable-background="new 0 0 1000 494.75" xml:space="preserve">
<g>
	<linearGradient id="SVGID_1_" gradientUnits="userSpaceOnUse" x1="500" y1="495.3738" x2="500" y2="0.7034">
		<stop  offset="0" style="stop-color:#225FBC"/>
		<stop  offset="1" style="stop-color:#1FB2F0"/>
	</linearGradient>
	<polyline fill-rule="evenodd" clip-rule="evenodd" fill="url(#SVGID_1_)" points="0,494.67 505.359,494.67 1000,0 0,0 0,494.67 	
		"/>
	<path fill-rule="evenodd" clip-rule="evenodd" fill="#FFFFFF" d="M593.45,92.993l-98.429-0.025v234.016L409.023,92.967H323.77
		l-73.436,195.688c-7.775-49.315-58.828-66.394-99.002-79.168c-26.564-8.499-54.631-21.046-54.381-34.889
		c0.179-11.348,15.106-21.908,44.544-20.311c19.794,1.068,37.285,2.64,71.994,19.418l34.27-59.566
		C216,97.984,172.163,87.813,136.251,87.753h-0.24c-41.886,0-76.815,13.609-98.438,35.957
		c-15.07,15.629-23.206,35.432-23.565,57.406c-0.539,30.222,10.535,51.626,33.831,68.744c19.613,14.383,44.751,23.74,66.903,30.637
		c27.312,8.436,49.621,15.79,49.346,31.481c-0.119,5.724-2.32,11.033-6.433,15.347c-6.832,7.048-17.276,9.697-31.728,9.973
		c-27.918,0.559-48.588-3.805-81.511-23.26l-30.407,60.376c32.873,18.696,71.773,29.643,111.418,29.643l5.116-0.041
		c34.56-0.612,62.427-10.503,84.738-28.419c1.223-0.98,2.412-2.057,3.584-3.099l-9.847,26.395h89.385l15.017-45.644
		c15.709,5.3,33.571,8.305,52.545,8.305c18.444,0,35.891-2.825,51.322-7.884l14.452,45.223h145.802v-94.528h31.801
		c76.873,0,122.388-39.134,122.388-104.76C731.729,126.525,687.533,92.993,593.45,92.993z M365.965,293.288
		c-11.468,0-22.258-2.037-31.55-5.571l31.221-98.412h0.639l30.572,98.697C387.664,291.331,377.164,293.288,365.965,293.288z
		 M599.242,236.71h-21.701v-79.344h21.701c28.925,0,51.941,9.596,51.941,39.215C651.183,227.109,628.167,236.71,599.242,236.71"/>
	<path fill="#225FBC" d="M626.31,462.59c0-15.191,11.46-26.689,26.13-26.689c14.473,0,25.953,11.498,25.953,26.689
		c0,15.447-11.48,26.803-25.953,26.803C637.77,489.394,626.31,478.037,626.31,462.59z M652.44,494.75
		c17.448,0,32.398-13.614,32.398-32.16c0-18.425-14.95-32.004-32.398-32.004c-17.666,0-32.577,13.578-32.577,32.004
		C619.863,481.136,634.774,494.75,652.44,494.75z M645.633,465.118h6.448l9.741,16.018h6.307l-10.556-16.28
		c5.426-0.639,9.599-3.543,9.599-10.171c0-7.286-4.311-10.521-13.037-10.521h-14.09v36.971h5.588V465.118z M645.633,460.351v-11.424
		h7.666c3.832,0,7.966,0.818,7.966,5.421c0,5.709-4.214,6.003-8.905,6.003H645.633z"/>
</g>
</svg>
