<?xml version="1.0" encoding="utf-8"?>
<!-- Generator: Adobe Illustrator 23.0.3, SVG Export Plug-In . SVG Version: 6.00 Build 0)  -->
<svg version="1.1" id="Layer_1" xmlns="http://www.w3.org/2000/svg" xmlns:xlink="http://www.w3.org/1999/xlink" x="0px" y="0px"
	 viewBox="0 0 1000 223.9" style="enable-background:new 0 0 1000 223.9;" xml:space="preserve">
<style type="text/css">
	.st0{fill-rule:evenodd;clip-rule:evenodd;fill:#A29F9E;}
	.st1{fill:#A29F9E;}
	.st2{fill:#F0AD00;}
</style>
<g>
	<path class="st0" d="M414.1,105.4h-15.4V49.3h15.4c20.4,0,36.8,6.8,36.8,27.8C450.8,98.6,434.5,105.4,414.1,105.4 M249.1,145.6
		c-8.2,0-15.8-1.5-22.4-4l22.1-69.7h0.5l21.6,69.9C264.4,144.1,257,145.6,249.1,145.6z M410,3.8h-69.6v165.5L279.5,3.8h-60.3
		l-52,138.4c-5.5-34.9-41.6-46.9-70-56c-18.8-6-38.7-14.9-38.5-24.7c0.1-8,10.7-15.5,31.5-14.4c14,0.8,26.4,1.9,50.9,13.7l24.2-42.1
		C142.9,7.3,111.9,0.1,86.5,0h-0.2C56.7,0,32,9.7,16.7,25.5C6,36.6,0.3,50.6,0,66.1c-0.4,21.5,7.5,36.6,23.9,48.7
		c13.9,10.2,31.7,16.8,47.4,21.7c19.3,6,35.1,11.2,34.9,22.4c-0.1,4-1.7,7.8-4.6,10.8c-4.8,5-12.2,6.9-22.4,7.1
		c-19.8,0.4-34.4-2.7-57.7-16.5L0,202.9c23.3,13.2,50.7,21,78.8,21h3.6c24.5-0.4,44.2-7.4,60-20.2l2.5-2.1l-7,18.6h63.3l10.6-32.3
		c11.1,3.7,23.8,5.9,37.2,5.9c13,0,25.3-2,36.2-5.6l10.3,32h103.1v-66.9h22.5c54.4,0,86.6-27.6,86.6-74.1
		C507.8,27.4,476.6,3.8,410,3.8z"/>
	<path class="st1" d="M640.5,23.2c0,9.3-5.2,14.1-10.8,17c8.9,3,15.1,8.1,15.1,18.6c0,13.7-11.2,20.9-28.1,20.9h-35.2v-76h34.1
		C630.8,3.8,640.5,11.3,640.5,23.2 M627.1,25.4c0-6.3-4.8-9.8-13.3-9.8h-19.2v20.2h18.2C621.4,35.8,627.1,32.4,627.1,25.4z
		 M631.4,57.4c0-6.5-5.1-10.3-15.6-10.3h-21.2v20.9h22.1C625.8,67.9,631.4,64.4,631.4,57.4z"/>
	<path class="st1" d="M689.5,22.4h13.1v57.3h-13.1v-8.9c-3.7,5.4-9,10.1-17.9,10.1c-12.9,0-20.4-8.7-20.4-22V22.4h13.2V55
		c0,8.9,4.4,14,12.3,14c7.6,0,12.9-5.4,12.9-14.2V22.4"/>
	<path class="st1" d="M733.3,80.9c-8.2,0-17.2-3-24.3-8.6l5.9-8.9c6.2,4.7,12.9,7.1,18.8,7.1c5.7,0,8.9-2.4,8.9-6.2V64
		c0-4.5-6.1-6-12.8-8.1c-8.5-2.3-17.9-5.8-17.9-16.8v-0.2c0-10.8,9-17.5,20.4-17.5c7.2,0,15,2.5,21.1,6.5l-5.2,9.3
		c-5.6-3.4-11.4-5.4-16.2-5.4c-5.1,0-8,2.3-8,5.7v0.2c0,4.2,6.1,5.8,12.9,8c8.4,2.6,17.8,6.4,17.8,16.7v0.2
		C754.6,74.9,745.3,80.9,733.3,80.9"/>
	<path class="st1" d="M776.9,13.7h-14.1V1.2h14.1V13.7z M776.4,79.8h-13.1V22.4h13.1V79.8z"/>
	<path class="st1" d="M801.3,79.8h-13.1V22.4h13.1v8.9c3.7-5.4,9-10.1,17.9-10.1c12.9,0,20.4,8.7,20.4,22v36.5h-13.2V47.2
		c0-8.9-4.4-14-12.3-14c-7.6,0-12.9,5.3-12.9,14.2V79.8"/>
	<path class="st1" d="M876.6,70.3c6.4,0,10.9-2.4,15.5-6.8l7.7,6.8c-5.4,6.5-12.9,10.7-23.4,10.7c-16.6,0-29.4-12-29.4-29.9
		c0-16.5,11.6-30,28-30c18.2,0,27.5,14.4,27.5,31l-0.2,3.6h-42.1C861.6,65.1,868.1,70.3,876.6,70.3 M889.4,47.1
		c-0.9-8.5-5.9-15.1-14.5-15.1c-8,0-13.7,6.2-14.9,15.1H889.4z"/>
	<path class="st1" d="M929.8,80.9c-8.1,0-17.2-3-24.3-8.6l5.9-8.9c6.2,4.7,12.9,7.1,18.8,7.1c5.7,0,8.9-2.4,8.9-6.2V64
		c0-4.5-6.1-6-12.8-8.1c-8.5-2.3-17.9-5.8-17.9-16.8v-0.2c0-10.8,9-17.5,20.4-17.5c7.2,0,15,2.5,21.1,6.5l-5.2,9.3
		c-5.5-3.4-11.4-5.4-16.2-5.4c-5.1,0-8,2.3-8,5.7v0.2c0,4.2,6.2,5.8,12.9,8c8.4,2.6,17.9,6.4,17.9,16.7v0.2
		C951.2,74.9,941.8,80.9,929.8,80.9"/>
	<path class="st1" d="M978.7,80.9c-8.1,0-17.1-3-24.3-8.6l5.8-8.9c6.2,4.7,12.9,7.1,18.8,7.1c5.6,0,8.9-2.4,8.9-6.2V64
		c0-4.5-6-6-12.8-8.1c-8.5-2.3-17.9-5.8-17.9-16.8v-0.2c0-10.8,9-17.5,20.4-17.5c7.2,0,15,2.5,21.1,6.5l-5.2,9.3
		c-5.5-3.4-11.4-5.4-16.2-5.4c-5.1,0-8,2.3-8,5.7v0.2c0,4.2,6.2,5.8,12.9,8c8.4,2.6,17.8,6.4,17.8,16.7v0.2
		C1000,74.9,990.7,80.9,978.7,80.9"/>
	<path class="st2" d="M636.3,222.6c-38.5,0-66.1-28.7-66.1-64.2v-0.4c0-35.4,28-64.5,66.4-64.5c38.5,0,66.1,28.6,66.1,64.1v0.4
		C702.8,193.6,674.7,222.6,636.3,222.6 M674,158.1c0-21.4-15.7-39.2-37.7-39.2s-37.4,17.4-37.4,38.8v0.4c0,21.4,15.7,39.2,37.7,39.2
		c22.1,0,37.4-17.4,37.4-38.8V158.1z"/>
	<path class="st2" d="M774,220.4v-53.2c0-12.8-6-19.4-16.4-19.4c-10.4,0-17,6.6-17,19.4v53.2h-27.1V125h27.1v13.6
		c6.3-8,14.3-15.4,28-15.4c20.5,0,32.4,13.6,32.4,35.5v61.8H774"/>
	<path class="st2" d="M906.2,182.2h-66.5c2.7,12.3,11.2,18.7,23.4,18.7c9.1,0,15.7-2.8,23.1-9.8l15.5,13.7
		c-8.9,11-21.7,17.8-39,17.8c-28.7,0-49.9-20.2-49.9-49.3V173c0-27.3,19.4-49.8,47.2-49.8c31.9,0,46.5,24.8,46.5,51.9v0.3
		C906.6,178,906.4,179.6,906.2,182.2 M860,144.9c-11.2,0-18.5,8-20.6,20.3h40.8C878.6,153.1,871.5,144.9,860,144.9z"/>
	<path class="st1" d="M563.6,29c0,14-11.4,25.4-25.2,25.4C524.2,54.4,513,43,513,28.8c0-13.8,11.4-25.1,25.7-25.1
		C552.3,3.8,563.6,15.3,563.6,29 M518.8,29c0,11,8.7,19.8,19.6,19.8c10.7,0,19.4-8.9,19.4-19.8c0-10.6-8.7-19.7-19.3-19.7
		C527.5,9.3,518.8,17.9,518.8,29z M526.8,15.1h13c8.1,0,11.7,2.2,11.7,7.1c0,3.4-1.6,5.4-5,6.3c3.2,1,4.3,2.3,4.3,4.8v3.2
		c0,4,0.2,4.8,1.3,5.6H544l-0.8-3.3v-4c0-2.7-0.8-3.3-4-3.3h-4.6V42h-7.8V15.1z M541.2,26l2.6-2.6l-2.6-2.8h-6.6V26H541.2z"/>
</g>
</svg>
