<?xml version="1.0" encoding="utf-8"?>
<!-- Generator: Adobe Illustrator 23.0.3, SVG Export Plug-In . SVG Version: 6.00 Build 0)  -->
<svg version="1.1" id="Layer_1" xmlns="http://www.w3.org/2000/svg" xmlns:xlink="http://www.w3.org/1999/xlink" x="0px" y="0px"
	 viewBox="0 0 1000 220.7" style="enable-background:new 0 0 1000 220.7;" xml:space="preserve">
<style type="text/css">
	.st0{fill:#FFCB05;}
	.st1{fill:#D71635;}
</style>
<g>
	<polygon class="st0" points="1000,0 1000,220.7 0,220.7 0,0 1000,0 	"/>
	<path class="st1" d="M175.9,39.6L143.9,83c0,0,165.6,0,174.1,0c8.8,0,8.7,3.3,4.4,9.2c-4.4,5.9-11.7,16.2-16.1,22.2
		c-2.3,3.1-6.3,8.6,7.2,8.6c14.3,0,71.2,0,71.2,0s11.5-15.6,21.1-28.7c13.1-17.8,1.1-54.7-45.7-54.7
		C318.2,39.6,175.9,39.6,175.9,39.6L175.9,39.6z"/>
	<path class="st1" d="M131,181l64.2-87.2c0,0,71.1,0,79.6,0c8.8,0,8.7,3.3,4.4,9.2c-4.4,5.9-11.8,16.1-16.3,22.1
		c-2.3,3-6.3,8.6,7.2,8.6c14.3,0,106.7,0,106.7,0c-8.9,12.2-37.7,47.3-89.3,47.3C245.6,181,131,181,131,181L131,181z"/>
	<path class="st1" d="M498.5,133.7L463.7,181h-91.8c0,0,34.8-47.3,34.8-47.3L498.5,133.7L498.5,133.7z"/>
	<polygon class="st1" points="639.1,123 414.6,123 476,39.6 567.8,39.6 532.6,87.5 573.5,87.5 608.7,39.6 700.5,39.6 639.1,123 	"/>
	<path class="st1" d="M631.2,133.7L596.4,181h-91.8c0,0,34.8-47.3,34.8-47.3H631.2L631.2,133.7z"/>
	<polygon class="st1" points="0,152.4 135.2,152.4 127.8,162.4 0,162.4 0,152.4 	"/>
	<polygon class="st1" points="0,133.7 149,133.7 141.6,143.8 0,143.8 0,133.7 	"/>
	<polygon class="st1" points="0,171.1 121.5,171.1 114.1,181 0,181 0,171.1 	"/>
	<polygon class="st1" points="1000,162.4 865.3,162.4 872.7,152.4 1000,152.4 1000,162.4 	"/>
	<polygon class="st1" points="1000,181 851.6,181.1 858.9,171.1 1000,171.1 1000,181 	"/>
	<polygon class="st1" points="886.4,133.7 1000,133.7 1000,143.8 879,143.8 886.4,133.7 	"/>
	<path class="st1" d="M827.6,39.6L766.2,123H669c0,0,61.4-83.4,61.4-83.4H827.6L827.6,39.6z"/>
	<path class="st1" d="M661.1,133.7c0,0-6.7,9.2-10,13.6c-11.5,15.6-1.3,33.7,36.3,33.7c43.4,0,147.4,0,147.4,0l34.8-47.3H661.1
		L661.1,133.7z"/>
</g>
</svg>
