<?xml version="1.0" encoding="utf-8"?>
<!-- Generator: Adobe Illustrator 23.0.3, SVG Export Plug-In . SVG Version: 6.00 Build 0)  -->
<svg version="1.1" id="Layer_1" xmlns="http://www.w3.org/2000/svg" xmlns:xlink="http://www.w3.org/1999/xlink" x="0px" y="0px"
	 viewBox="0 0 1000 699.9" style="enable-background:new 0 0 1000 699.9;" xml:space="preserve">
<style type="text/css">
	.st0{fill:#139CD8;}
	.st1{fill:#FFFFFF;}
	.st2{fill-rule:evenodd;clip-rule:evenodd;fill:#FFFFFF;}
</style>
<g>
	<path class="st0" d="M416.1,76.3c32.2-33.6,77.1-54.4,126.8-54.4c66,0,123.6,36.8,154.3,91.4c26.7-11.9,56.2-18.5,87.2-18.5
		c119.1,0,215.6,97.4,215.6,217.5c0,120.1-96.5,217.5-215.6,217.5c-14.5,0-28.7-1.5-42.5-4.2c-27,48.2-78.5,80.7-137.5,80.7
		c-24.7,0-48.1-5.7-68.9-15.9c-27.4,64.4-91.2,109.6-165.5,109.6c-77.4,0-143.4-49-168.7-117.7c-11.1,2.3-22.5,3.6-34.3,3.6
		C74.7,585.8,0,510.3,0,417.2c0-62.4,33.6-116.9,83.4-146.1c-10.3-23.6-16-49.7-16-77.1c0-107.1,87-194,194.2-194
		C324.7,0,380.6,29.9,416.1,76.3"/>
	<path class="st1" d="M144.8,363c-0.6,1.6,0.2,2,0.4,2.3c1.9,1.4,3.8,2.4,5.7,3.5c10.2,5.4,19.8,7,29.9,7
		c20.5,0,33.3-10.9,33.3-28.5v-0.3c0-16.2-14.4-22.1-27.9-26.4l-1.8-0.6c-10.2-3.3-18.9-6.2-18.9-12.9v-0.3c0-5.7,5.1-9.9,13.1-9.9
		c8.8,0,19.3,2.9,26.1,6.7c0,0,2,1.3,2.7-0.6c0.4-1,3.8-10.2,4.2-11.2c0.4-1.1-0.3-1.9-1-2.3c-7.7-4.7-18.4-7.9-29.4-7.9l-2,0
		c-18.8,0-31.9,11.3-31.9,27.6v0.3c0,17.1,14.5,22.7,28,26.6l2.2,0.7c9.9,3,18.4,5.6,18.4,12.6v0.4c0,6.3-5.5,11.1-14.4,11.1
		c-3.5,0-14.5-0.1-26.4-7.6c-1.4-0.9-2.3-1.5-3.4-2.1c-0.6-0.4-2.1-1-2.7,0.9L144.8,363z"/>
	<path class="st1" d="M445.1,363c-0.6,1.6,0.2,2,0.4,2.3c1.9,1.4,3.8,2.4,5.7,3.5c10.2,5.4,19.8,7,29.9,7
		c20.5,0,33.3-10.9,33.3-28.5v-0.3c0-16.2-14.4-22.1-27.9-26.4l-1.8-0.6c-10.2-3.3-18.9-6.2-18.9-12.9v-0.3c0-5.7,5.1-9.9,13.1-9.9
		c8.8,0,19.3,2.9,26.1,6.7c0,0,2,1.3,2.7-0.6c0.4-1,3.8-10.2,4.2-11.2c0.4-1.1-0.3-1.9-1-2.3c-7.7-4.7-18.4-7.9-29.4-7.9l-2,0
		c-18.8,0-31.9,11.3-31.9,27.6v0.3c0,17.1,14.5,22.7,28,26.6l2.2,0.7c9.9,3,18.4,5.6,18.4,12.6v0.4c0,6.3-5.5,11.1-14.5,11.1
		c-3.5,0-14.5-0.1-26.4-7.6c-1.4-0.9-2.3-1.4-3.4-2.1c-0.4-0.2-2.1-0.9-2.7,0.9L445.1,363z"/>
	<path class="st1" d="M667.3,310.2c-1.7-5.7-4.3-10.7-7.8-14.9c-3.5-4.2-7.9-7.6-13.2-10c-5.2-2.4-11.4-3.7-18.3-3.7
		c-7,0-13.1,1.2-18.4,3.7c-5.2,2.4-9.7,5.8-13.1,10c-3.5,4.2-6.1,9.2-7.8,14.9c-1.7,5.7-2.5,11.8-2.5,18.4c0,6.6,0.9,12.8,2.5,18.4
		c1.7,5.7,4.3,10.7,7.8,14.9c3.5,4.2,7.9,7.5,13.2,9.9s11.4,3.6,18.4,3.6c6.9,0,13.1-1.2,18.3-3.6c5.2-2.4,9.7-5.7,13.2-9.9
		c3.5-4.2,6.1-9.2,7.8-14.9c1.7-5.7,2.5-11.8,2.5-18.4C669.8,322,668.9,315.8,667.3,310.2 M650.1,328.6c0,9.9-1.9,17.8-5.5,23.3
		c-3.6,5.5-9.1,8.1-16.7,8.1c-7.6,0-13-2.7-16.6-8.1c-3.6-5.5-5.4-13.4-5.4-23.3c0-9.9,1.8-17.7,5.4-23.2c3.6-5.4,9-8,16.6-8
		c7.6,0,13.1,2.6,16.7,8C648.3,310.8,650.1,318.7,650.1,328.6"/>
	<path class="st2" d="M807.9,357.3c-0.6-1.7-2.2-1-2.2-1c-2.5,1-5.1,1.8-8,2.3c-2.9,0.5-6,0.7-9.4,0.7c-8.3,0-14.9-2.5-19.6-7.3
		c-4.7-4.9-7.4-12.8-7.3-23.4c0-9.7,2.4-17,6.6-22.5c4.2-5.5,10.5-8.4,19-8.4c7.1,0,12.4,0.8,18.1,2.6c0,0,1.4,0.6,2-1.2
		c1.5-4.2,2.6-7.1,4.2-11.7c0.5-1.3-0.7-1.9-1.1-2c-2.2-0.9-7.5-2.3-11.4-2.9c-3.7-0.6-8-0.9-12.8-0.9c-7.2,0-13.6,1.2-19.1,3.7
		c-5.5,2.4-10.1,5.8-13.8,10c-3.7,4.2-6.5,9.2-8.3,14.9c-1.9,5.7-2.8,11.9-2.8,18.4c0,14.2,3.8,25.7,11.4,34.1
		c7.6,8.5,19,12.7,33.8,12.7c8.8,0,17.8-1.8,24.3-4.3c0,0,1.2-0.6,0.7-2L807.9,357.3z"/>
	<path class="st2" d="M895.5,306.9c-1.5-5.5-5.1-11-7.4-13.6c-3.7-4-7.4-6.8-11-8.4c-4.7-2-10.4-3.4-16.6-3.4
		c-7.2,0-13.8,1.2-19.1,3.7c-5.3,2.5-9.8,5.9-13.3,10.2c-3.5,4.2-6.2,9.3-7.8,15c-1.7,5.7-2.5,11.9-2.5,18.5
		c0,6.7,0.9,12.9,2.6,18.5c1.8,5.7,4.6,10.6,8.4,14.7c3.8,4.1,8.7,7.4,14.6,9.7c5.8,2.2,12.9,3.4,21,3.4c16.7,0,25.6-3.8,29.2-5.8
		c0.6-0.4,1.2-1,0.5-2.8l-3.8-10.6c-0.6-1.6-2.2-1-2.2-1c-4.2,1.5-10,4.3-23.8,4.3c-9,0-15.7-2.7-19.8-6.8
		c-4.3-4.2-6.4-10.5-6.7-19.3l58,0c0,0,1.5,0,1.7-1.5C897.3,331.3,899.2,320,895.5,306.9 M837.8,319.1c0.8-5.5,2.3-10.1,4.7-13.7
		c3.5-5.4,9-8.4,16.6-8.4c7.6,0,12.6,3,16.2,8.4c2.4,3.6,3.4,8.3,3.9,13.7L837.8,319.1z"/>
	<path class="st2" d="M431.3,306.9c-1.5-5.5-5.1-11-7.4-13.6c-3.7-4-7.4-6.8-11-8.4c-4.7-2-10.4-3.4-16.6-3.4
		c-7.2,0-13.8,1.2-19.2,3.7c-5.3,2.5-9.8,5.9-13.3,10.2c-3.5,4.2-6.2,9.3-7.8,15c-1.7,5.7-2.5,11.9-2.5,18.5
		c0,6.7,0.9,12.9,2.6,18.5c1.8,5.7,4.6,10.6,8.4,14.7c3.8,4.1,8.7,7.4,14.6,9.7c5.8,2.2,12.9,3.4,21,3.4c16.7,0,25.6-3.8,29.2-5.8
		c0.6-0.4,1.2-1,0.5-2.8l-3.8-10.6c-0.6-1.6-2.2-1-2.2-1c-4.2,1.5-10,4.3-23.8,4.3c-9,0-15.7-2.7-19.8-6.8
		c-4.3-4.2-6.4-10.5-6.7-19.3l58,0c0,0,1.5,0,1.7-1.5C433.1,331.3,435,320,431.3,306.9 M373.6,319.1c0.8-5.5,2.3-10.1,4.7-13.7
		c3.6-5.4,9-8.4,16.6-8.4c7.6,0,12.6,3,16.3,8.4c2.4,3.6,3.4,8.3,3.8,13.7L373.6,319.1z"/>
	<path class="st1" d="M271.4,316.3c-2.4-0.2-5.4-0.3-9-0.3c-5,0-9.8,0.6-14.3,1.8c-4.5,1.2-8.6,3.1-12.1,5.6
		c-3.5,2.5-6.3,5.7-8.4,9.6s-3.1,8.3-3.1,13.3c0,5.1,0.9,9.6,2.7,13.2c1.8,3.7,4.3,6.7,7.6,9.1c3.2,2.4,7.2,4.1,11.8,5.1
		c4.6,1,9.7,1.6,15.4,1.6c6,0,11.9-0.5,17.6-1.5c5.7-1,12.7-2.4,14.6-2.8c1.9-0.4,4.1-1,4.1-1c1.4-0.4,1.3-1.9,1.3-1.9l0-53
		c0-11.6-3.1-20.3-9.2-25.6c-6.1-5.3-15-8-26.6-8c-4.4,0-11.3,0.6-15.5,1.4c0,0-12.7,2.5-17.9,6.5c0,0-1.1,0.7-0.5,2.3l4.1,11
		c0.5,1.4,1.9,0.9,1.9,0.9s0.4-0.2,1-0.5c11.1-6.1,25.2-5.9,25.2-5.9c6.3,0,11.1,1.3,14.3,3.7c3.2,2.4,4.8,6.1,4.8,13.8v2.5
		C276,316.7,271.4,316.3,271.4,316.3 M248.3,357c-2.3-1.8-2.6-2.3-3.3-3.4c-1.2-1.8-1.7-4.3-1.7-7.5c0-5.1,1.7-8.8,5.2-11.2
		c0,0,5-4.4,16.8-4.2c8.3,0.1,15.7,1.3,15.7,1.3v26.4c0,0-7.4,1.6-15.7,2.1C253.5,361.1,248.3,357,248.3,357"/>
	<path class="st2" d="M738.9,286.4c0.4-1.3-0.5-1.9-0.9-2.1c-1-0.4-5.9-1.4-9.7-1.7c-7.3-0.4-11.3,0.8-14.9,2.4
		c-3.6,1.6-7.6,4.2-9.8,7.2l0-7.1c0-1-0.7-1.7-1.7-1.7H687c-1,0-1.7,0.8-1.7,1.7v86.5c0,1,0.8,1.7,1.8,1.7h15.2c1,0,1.7-0.8,1.7-1.7
		v-43.2c0-5.8,0.6-11.6,1.9-15.2c1.2-3.6,3-6.5,5.1-8.5c2.1-2.1,4.5-3.5,7.2-4.3c2.7-0.8,5.7-1.1,7.8-1.1c3,0,6.4,0.8,6.4,0.8
		c1.1,0.1,1.7-0.6,2.1-1.6C735.5,295.9,738.4,288,738.9,286.4"/>
	<path class="st2" d="M596,246.3c-1.9-0.6-3.5-1-5.7-1.4c-2.2-0.4-4.9-0.6-7.9-0.6c-10.5,0-18.7,3-24.5,8.8
		c-5.8,5.8-9.7,14.7-11.7,26.3l-0.7,3.9h-13.2c0,0-1.6-0.1-1.9,1.7l-2.2,12.1c-0.2,1.1,0.3,1.9,1.9,1.9h12.8l-13,72.5
		c-1,5.8-2.2,10.6-3.5,14.3c-1.3,3.6-2.5,6.3-4,8.2c-1.5,1.9-2.9,3.3-5.3,4.1c-2,0.7-4.3,1-6.8,1c-1.4,0-3.3-0.2-4.6-0.5
		c-1.4-0.3-2.1-0.6-3.1-1c0,0-1.5-0.6-2.1,0.9c-0.5,1.2-3.9,10.6-4.3,11.8c-0.4,1.1,0.2,2,0.9,2.3c1.7,0.6,3,1,5.3,1.5
		c3.2,0.8,6,0.8,8.5,0.8c5.3,0,10.2-0.7,14.2-2.2c4.1-1.5,7.6-4,10.7-7.5c3.4-3.7,5.5-7.6,7.5-13c2-5.3,3.7-11.8,5.1-19.5l13.1-73.9
		h19.1c0,0,1.6,0.1,1.9-1.7l2.2-12.1c0.1-1.1-0.3-1.9-1.9-1.9h-18.5c0.1-0.4,0.9-6.9,3.1-13.1c0.9-2.6,2.6-4.7,4.1-6.2
		c1.4-1.4,3.1-2.4,4.8-3c1.8-0.6,3.9-0.9,6.2-0.9c1.7,0,3.5,0.2,4.8,0.5c1.8,0.4,2.5,0.6,3,0.7c1.9,0.6,2.1,0,2.5-0.9l4.4-12.2
		C597.5,247.1,596.4,246.5,596,246.3"/>
	<path class="st2" d="M337,371.7c0,1-0.7,1.8-1.7,1.8H320c-1,0-1.7-0.8-1.7-1.8V248c0-1,0.7-1.7,1.7-1.7h15.4c1,0,1.7,0.8,1.7,1.7
		V371.7z"/>
</g>
</svg>
