<?xml version="1.0" encoding="utf-8"?>
<!-- Generator: Adobe Illustrator 23.0.3, SVG Export Plug-In . SVG Version: 6.00 Build 0)  -->
<svg version="1.1" id="Layer_1" xmlns="http://www.w3.org/2000/svg" xmlns:xlink="http://www.w3.org/1999/xlink" x="0px" y="0px"
	 viewBox="0 0 1000 285.7" style="enable-background:new 0 0 1000 285.7;" xml:space="preserve">
<style type="text/css">
	.st0{fill:#95BF47;}
	.st1{fill:#5E8E3E;}
	.st2{fill:#FFFFFF;}
	.st3{fill:#231F20;}
</style>
<g>
	<g>
		<path class="st0" d="M214.8,54.3c-0.2-1.4-1.4-2.2-2.4-2.3c-1-0.1-22.5-1.7-22.5-1.7S175,35.6,173.4,34c-1.6-1.6-4.8-1.1-6.1-0.8
			c-0.2,0.1-3.3,1-8.3,2.6c-5-14.3-13.8-27.5-29.2-27.5c-0.4,0-0.9,0-1.3,0C124.1,2.5,118.7,0,114,0C78,0,60.8,45,55.4,67.8
			c-14,4.3-23.9,7.4-25.2,7.8c-7.8,2.4-8,2.7-9.1,10C20.4,91.2,0,249.1,0,249.1l159.1,29.8l86.2-18.6
			C245.3,260.3,215,55.7,214.8,54.3z M150.2,38.5c-4,1.2-8.5,2.6-13.5,4.2c0-0.9,0-1.9,0-2.9c0-8.9-1.2-16.1-3.2-21.7
			C141.5,19,146.8,28.1,150.2,38.5z M123.7,19.8c2.2,5.5,3.6,13.5,3.6,24.2c0,0.5,0,1.1,0,1.6c-8.8,2.7-18.3,5.7-27.8,8.6
			C104.9,33.5,114.9,23.5,123.7,19.8z M113,9.6c1.6,0,3.1,0.5,4.6,1.6c-11.5,5.4-23.9,19.1-29.1,46.4c-7.6,2.4-15.1,4.7-22,6.8
			C72.6,43.6,87.2,9.6,113,9.6z"/>
		<path class="st1" d="M212.4,52c-1-0.1-22.5-1.7-22.5-1.7S175,35.6,173.4,34c-0.6-0.6-1.4-0.9-2.3-1.1l-12,246l86.2-18.6
			c0,0-30.3-204.6-30.4-206C214.6,52.9,213.4,52.1,212.4,52z"/>
		<path class="st2" d="M129.8,99.7l-10.6,31.6c0,0-9.3-5-20.7-5c-16.7,0-17.6,10.5-17.6,13.1c0,14.4,37.6,20,37.6,53.8
			c0,26.6-16.9,43.7-39.6,43.7c-27.3,0-41.3-17-41.3-17l7.3-24.2c0,0,14.4,12.3,26.5,12.3c7.9,0,11.1-6.2,11.1-10.8
			c0-18.8-30.9-19.7-30.9-50.6c0-26,18.7-51.3,56.4-51.3C122.6,95.5,129.8,99.7,129.8,99.7z"/>
	</g>
	<path id="s" class="st3" d="M345.7,158.9c-8.6-4.7-13-8.6-13-14c0-6.9,6.1-11.3,15.7-11.3c11.2,0,21.1,4.7,21.1,4.7l7.9-24.1
		c0,0-7.2-5.6-28.5-5.6c-29.6,0-50.1,16.9-50.1,40.8c0,13.5,9.6,23.8,22.3,31.2c10.3,5.9,14,10.1,14,16.2c0,6.4-5.2,11.5-14.7,11.5
		c-14.3,0-27.8-7.4-27.8-7.4l-8.3,24.1c0,0,12.5,8.3,33.4,8.3c30.5,0,52.3-15,52.3-42C370,176.9,359,166.5,345.7,158.9z"/>
	<path id="h" class="st3" d="M467.1,108.3c-15,0-26.8,7.1-35.9,17.9l-0.5-0.2l13-68h-33.9l-32.9,173.1h33.9l11.3-59.2
		c4.4-22.3,16-36.1,26.8-36.1c7.6,0,10.6,5.2,10.6,12.5c0,4.7-0.5,10.3-1.5,15l-12.8,67.8h33.9l13.3-70c1.5-7.4,2.5-16.2,2.5-22.1
		C494.8,119.9,484.7,108.3,467.1,108.3z"/>
	<path id="o" class="st3" d="M571.4,108.3c-40.8,0-67.8,36.8-67.8,77.9c0,26.3,16.2,47.4,46.7,47.4c40,0,67-35.9,67-77.9
		C617.4,131.4,603.1,108.3,571.4,108.3z M554.7,207.6c-11.5,0-16.5-9.8-16.5-22.1c0-19.4,10.1-51.1,28.5-51.1c12,0,16,10.3,16,20.4
		C582.7,175.6,572.7,207.6,554.7,207.6z"/>
	<path id="p" class="st3" d="M704.1,108.3c-22.9,0-35.9,20.1-35.9,20.1h-0.5l2-18.2h-30c-1.5,12.3-4.2,30.9-6.9,44.9l-23.6,124h33.9
		l9.3-50.1h0.7c0,0,7,4.4,19.9,4.4c39.8,0,65.8-40.8,65.8-82C738.9,128.7,728.9,108.3,704.1,108.3z M671.6,208c-8.8,0-14-4.9-14-4.9
		l5.6-31.7c3.9-21.1,15-35.1,26.8-35.1c10.3,0,13.5,9.6,13.5,18.7C703.6,176.9,690.6,208,671.6,208z"/>
	<path id="dot" class="st3" d="M787.3,59.7c-10.8,0-19.4,8.6-19.4,19.6c0,10.1,6.4,16.9,16,16.9h0.5c10.6,0,19.6-7.1,19.9-19.6
		C804.3,66.8,797.6,59.7,787.3,59.7z"/>
	<polygon id="i" class="st3" points="739.9,231.1 773.8,231.1 796.9,111 762.8,111 	"/>
	<path id="f" class="st3" d="M883.1,110.8h-23.6l1.2-5.6c2-11.5,8.8-21.9,20.1-21.9c6,0,10.8,1.7,10.8,1.7l6.6-26.5
		c0,0-5.9-2.9-18.4-2.9c-12,0-24.1,3.4-33.2,11.3c-11.5,9.8-16.9,24.1-19.6,38.3l-1,5.6h-15.7l-4.9,25.5h15.7l-17.9,94.8h33.9
		l17.9-94.8h23.3L883.1,110.8z"/>
	<path id="y" class="st3" d="M964.6,111c0,0-21.2,53.4-30.7,82.5h-0.5c-0.7-9.4-8.4-82.5-8.4-82.5h-35.6l20.4,110.3
		c0.5,2.5,0.2,3.9-0.7,5.6c-3.9,7.6-10.6,15-18.4,20.4c-6.4,4.7-13.5,7.6-19.2,9.6l9.3,28.7c6.9-1.5,21.1-7.1,33.2-18.4
		c15.5-14.5,29.7-36.8,44.5-67.3L1000,111H964.6z"/>
</g>
</svg>
