<?xml version="1.0" encoding="utf-8"?>
<!-- Generator: Adobe Illustrator 23.0.3, SVG Export Plug-In . SVG Version: 6.00 Build 0)  -->
<svg version="1.1" id="Layer_1" xmlns="http://www.w3.org/2000/svg" xmlns:xlink="http://www.w3.org/1999/xlink" x="0px" y="0px"
	 viewBox="0 0 1000 301.4" style="enable-background:new 0 0 1000 301.4;" xml:space="preserve">
<style type="text/css">
	.st0{fill-rule:evenodd;clip-rule:evenodd;fill:#FF9900;}
	.st1{fill-rule:evenodd;clip-rule:evenodd;}
</style>
<g>
	<g>
		<path class="st0" d="M620.4,235.7c-58.1,42.9-142.3,65.7-214.9,65.7c-101.7,0-193.2-37.6-262.5-100.1c-5.4-4.9-0.6-11.6,6-7.8
			c74.7,43.5,167.2,69.7,262.6,69.7c64.4,0,135.2-13.4,200.3-41C621.8,217.9,630,228.6,620.4,235.7z"/>
		<path class="st0" d="M644.6,208.1c-7.4-9.5-49.1-4.5-67.9-2.3c-5.7,0.7-6.6-4.3-1.4-7.9c33.3-23.4,87.8-16.6,94.1-8.8
			c6.4,7.9-1.7,62.5-32.8,88.6c-4.8,4-9.4,1.9-7.2-3.4C636.3,256.8,652,217.6,644.6,208.1z"/>
	</g>
	<g>
		<path class="st1" d="M578,32.9V10.2c0-3.5,2.6-5.8,5.8-5.7l101.7,0c3.3,0,5.9,2.4,5.9,5.7v19.5c0,3.3-2.8,7.5-7.7,14.3L631,119.2
			c19.6-0.5,40.3,2.5,58,12.5c4,2.3,5.1,5.6,5.4,8.9v24.2c0,3.3-3.7,7.2-7.5,5.2c-31.3-16.4-72.9-18.2-107.5,0.2
			c-3.5,1.9-7.2-1.9-7.2-5.3v-23c0-3.7,0.1-10,3.8-15.6l61.1-87.6l-53.2,0C580.7,38.6,578.1,36.3,578,32.9z"/>
		<path class="st1" d="M206.9,174.7h-31c-2.9-0.2-5.3-2.4-5.5-5.2l0-158.8c0-3.2,2.7-5.7,6-5.7l28.8,0c3,0.2,5.4,2.4,5.6,5.3V31h0.6
			c7.5-20.1,21.7-29.4,40.7-29.4c19.4,0,31.5,9.4,40.2,29.4c7.5-20.1,24.6-29.4,42.8-29.4c13,0,27.2,5.3,35.8,17.4
			c9.8,13.4,7.8,32.8,7.8,49.8l0,100.2c0,3.2-2.7,5.7-6,5.7h-30.9c-3.1-0.2-5.6-2.7-5.6-5.7l0-84.2c0-6.7,0.6-23.4-0.9-29.7
			c-2.3-10.7-9.2-13.7-18.2-13.7c-7.5,0-15.3,5-18.5,13c-3.2,8-2.9,21.4-2.9,30.4V169c0,3.2-2.7,5.7-6,5.7H259
			c-3.1-0.2-5.6-2.7-5.6-5.7l0-84.2c0-17.7,2.9-43.8-19.1-43.8c-22.2,0-21.4,25.4-21.4,43.8l0,84.2
			C212.9,172.1,210.2,174.7,206.9,174.7z"/>
		<path class="st1" d="M779,1.5c45.9,0,70.8,39.5,70.8,89.6c0,48.5-27.4,86.9-70.8,86.9c-45.1,0-69.6-39.5-69.6-88.6
			C709.3,40,734.2,1.5,779,1.5z M779.2,34C756.4,34,755,65,755,84.4c0,19.4-0.3,60.8,24,60.8c24,0,25.1-33.4,25.1-53.8
			c0-13.4-0.6-29.4-4.6-42.1C796,38.3,789.1,34,779.2,34z"/>
		<path class="st1" d="M909.3,174.7h-30.8c-3.1-0.2-5.6-2.7-5.6-5.7l-0.1-158.9c0.3-2.9,2.8-5.2,5.9-5.2l28.7,0
			c2.7,0.1,4.9,2,5.5,4.4v24.3h0.6c8.7-21.7,20.8-32.1,42.2-32.1c13.9,0,27.4,5,36.1,18.7c8.1,12.7,8.1,34.1,8.1,49.5v100
			c-0.3,2.8-2.9,5-5.9,5h-31c-2.9-0.2-5.2-2.3-5.5-5V83.4c0-17.4,2-42.8-19.4-42.8c-7.5,0-14.4,5-17.9,12.7
			c-4.3,9.7-4.9,19.4-4.9,30.1V169C915.3,172.1,912.6,174.7,909.3,174.7z"/>
		<path class="st1" d="M496.9,98.8c0,12.1,0.3,22.1-5.8,32.8c-4.9,8.7-12.7,14.1-21.4,14.1c-11.9,0-18.8-9-18.8-22.5
			c0-26.4,23.6-31.2,46-31.2V98.8z M528.1,174.3c-2,1.8-5,2-7.3,0.7c-10.3-8.5-12.1-12.5-17.7-20.6c-17,17.3-29,22.5-51,22.5
			c-26.1,0-46.3-16.1-46.3-48.2c0-25.1,13.6-42.2,33-50.6c16.8-7.4,40.2-8.7,58.2-10.7v-4c0-7.4,0.6-16.1-3.8-22.4
			c-3.8-5.7-11-8-17.4-8c-11.8,0-22.3,6-24.9,18.6c-0.5,2.8-2.6,5.6-5.4,5.7l-30-3.3c-2.5-0.6-5.3-2.6-4.6-6.5
			C417.8,11,450.7,0,480.1,0c15.1,0,34.7,4,46.6,15.4c15.1,14.1,13.6,32.8,13.6,53.3v48.2c0,14.5,6,20.9,11.7,28.7
			c2,2.8,2.4,6.2-0.1,8.2C545.6,159.1,534.4,168.9,528.1,174.3L528.1,174.3z"/>
		<path class="st1" d="M91.2,98.8c0,12.1,0.3,22.1-5.8,32.8c-4.9,8.7-12.7,14.1-21.4,14.1c-11.9,0-18.8-9-18.8-22.5
			c0-26.4,23.7-31.2,46-31.2V98.8z M122.4,174.3c-2,1.8-5,2-7.3,0.7c-10.3-8.5-12.1-12.5-17.7-20.6c-17,17.3-29,22.5-51,22.5
			C20.3,176.9,0,160.8,0,128.6c0-25.1,13.6-42.2,33-50.6c16.8-7.4,40.2-8.7,58.2-10.7v-4c0-7.4,0.6-16.1-3.8-22.4
			c-3.8-5.7-11-8-17.4-8c-11.8,0-22.3,6-24.9,18.6c-0.5,2.8-2.6,5.6-5.4,5.7l-30-3.3c-2.5-0.6-5.4-2.6-4.6-6.5
			C12.1,11,44.9,0,74.4,0c15.1,0,34.7,4,46.6,15.4c15.1,14.1,13.6,32.8,13.6,53.3v48.2c0,14.5,6,20.9,11.7,28.7
			c2,2.8,2.4,6.2-0.1,8.2C139.9,159.1,128.7,168.9,122.4,174.3L122.4,174.3z"/>
	</g>
</g>
</svg>
